<mxfile host="app.diagrams.net" modified="2023-06-20T13:19:38.981Z" agent="Mozilla/5.0 (Windows NT 10.0; Win64; x64) AppleWebKit/537.36 (KHTML, like Gecko) Chrome/114.0.0.0 Safari/537.36" etag="3W6RTZ-jGJ0_2T5Op023" version="21.5.0" type="github">
  <diagram name="Page-1" id="vN5hJqbnCDmSOIVlNILt">
    <mxGraphModel dx="1248" dy="579" grid="1" gridSize="10" guides="1" tooltips="1" connect="1" arrows="1" fold="1" page="1" pageScale="1" pageWidth="3300" pageHeight="4681" math="0" shadow="0">
      <root>
        <mxCell id="0" />
        <mxCell id="1" parent="0" />
        <mxCell id="haDdtKFeIpYZxnQrOWUY-1" value="" style="shape=image;verticalLabelPosition=bottom;labelBackgroundColor=default;verticalAlign=top;aspect=fixed;imageAspect=0;image=data:image/png,iVBORw0KGgoAAAANSUhEUgAAAgAAAAIACAYAAAD0eNT6AAAABGdBTUEAALGPC/xhBQAAACBjSFJNAAB6JgAAgIQAAPoAAACA6AAAdTAAAOpgAAA6mAAAF3CculE8AAAABmJLR0QA/wD/AP+gvaeTAAAACXBIWXMAAAsTAAALEwEAmpwYAAAAB3RJTUUH4wUIDBgeIF44TQAAgABJREFUeNrtnXeYHMW1t9/qWWUJFAgSQgiJnEFkgaSVtMbYxglnE5xzvk7Xn+O1r21snO3rnA22sbGNcQDbg7TKCJCIAkRQFhKgnFc70/X9UTNLb2/PTPdMd0/17DnPs89KHd6t3+mqOtXVFRRiYmJxWxswFjgCOBw4DBgNjAFGAYcCh5R+DweGAkNKP4OBgcAAIFdiea1Y+ikAB4Eu4EDp915gj+f3ztLPDmBb6Wcr8Kznp6vZzhITE2uOqTggHR3tPZx8vlMLT3gtzHOA8cAkYGLp5xjgaOCo0rkxxFS2UrAdwGZgE7Cx9LMWWOf52Rmj/yKb8IQnvGR4bVEurvaH4zDhCc8W3ty5C450XfdU4ATglNLv4zCBf2Ccf7fJNrL0c3KVa7YBq4EngSeAlaV/PwxsD/JfHCY84QkvWV7dgNIf996vG2nNCE94TeKNAM5SSp0FnA6crrU+HRMUxWrbs8DDSqmHgRVKqQfa2nIrpk+/ZLslz1d4whNeBaurAdDR0e74j+XznW4DYoQnvDR4w4FzgfOB84ApwPGAUuq5oqB1w71yCI91wH3A8tLPPZjPDDXNovwiPOG1NC9yA6D0x/0tj0bFCE94SfBOBKYCF5d+TsUMrOsxb+DqATYQEIVXlbcRWIppDCwq/d7nvaDF8p/whGc1L9IYgI6O9pz/WINihCe8uHgK04XfDswALgWOrMZrseCaBd544MrSD5iZDPdhGgMLBg8etAjzSaHHMpT/hCe8TPEgZAOg9L2hT8sDqOuPC094cfDuuGPeeOAyoAOYiZl2F8osCIbCM/XPecB5SqkPdHUd5I475q1USt2hFHO1Zg5mAGIky2p+Fp7w0uB5mLU/AZQuzAWcKtYz6EB4wquXt2LFo4OefXbLDNd1n++67vOBk6LywNpgKLy+PBdYBuSB24AlmF6Dipal/Cw84aXN8zCBGg0Azx/3tzwaFSM84YXiLVly99gDBw5cobV+odb6ecCwjAQv4cXP24VpDPwd+AfwjPdkFvKz8ITXLF6J6Xg4NRsA5T/uva7QgJigTw7CE57fjgaudBz1Kq2Ziun+AjIdvIQXL88F7gZuAf7S0dH+GPbmZ+EJr6m8EtM7e0Dn851aVbnY2/Io/7ZCjPBakjceeA3wSuAiFRAdWih4CS9+3qOOo/7c1tb252nTpj5QOtxK5UN4wmuE1+vNn2oNAM9UA+/5RroxbHeO8JrDOxQT8K8BplHKpBkINsKzm/e41vp3wO+AR6OwLCsfwhNeHLxeb/54Fg1SATd4RxuWf0vwF15cvBxwOXAt8BLM5jc9lsFgIzy7efcBNwC/pcZCRJaUD+EJL05eeQCh982/Z/aACrjB/+bvWiRGeNnlTQbeCrwRGBfEbIFgIzx7eUXgP8AvgFsxOyj2mAXlQ3jCSyr4w3Nv/r2mDirfDf43fwn+wmuE1wa8FHgHZq5+xTEnLRZshGc3bxumV+AnwEMtVN6EJzw/z/vmX/RfW6kBUPcKQxlzjvCS4Y0F3o4J/EfVYloWHITXv3hLcrncj486auzNJ510QpfneJbKm/CEV4lXfvMvBl2vPDf1/F+Cv/Dq5E0BPogZzR9qy1zLg4Pw+g9vq+Oonw0cOPDHl1xy0aqMlDfhCa8Wr+q6Af4GAA2uLpQ15wivQd7KlY8X16/feDnwMcwa/KEtQ8FBeP2H52LWFvgmsDAsK6vlV3gtzau5aFCvGyT4Cy8sb+3adbknnlj1Kq35GGYTnkiW0eAgvNbnOTy3YdE9wNeAmzGDCAMti+VXeP2CV3P2nqJBy7BzhFcH74knVg1cv37jNcVi8ePAsVF5kOngILz+yXsS+DpmBoHMHhBey/AaagDYJkZ4yfFWr147YM2adW9yXfe/tdZHR2WVzYLKXHjCq5e3CfgG8ENgT5bKr/CEF2R1NwBsFCO8+Hnr1m1oe/LJ1ddo7X5Kaya0UGUuPOHVy9sCfH3MmNE/POecM/f6zllVfoUnvGpWVwPAVjHCi5fX2bnwStctfkFrTgBrKl/hCc8W3hbHcb52xBGH/eC0007Zj2XlV3jCq2WRGwA2ixFePLx58xbOLBbd67TW55ePW1j5Ck94tvCe0lp/HvgZUIjCykJ9ILzW5UVqANguRniN8ZRSJyqlrtdav8R73PLKV3jCs4X3OPBJ4I9hWLbXB8JrbR5EaADYLkZ4DfEOAT6tlHo/vgV8MlT5Ck94tvAWAx8BllRiWV4fCK/FeWUL1QCwXYzwGuJdDVyvlBrrP5HRyld4wrOF93vgo8AG70HL6wPhtTjPw+y1W1C1C3P0bSxYIUZ4dfNOwyxw8iGl1HD/yRaofIUnvGbzTgfeiak/7wIKFtcHwusHPA8TKoD9F0rwby3eEODTmC7KARZVlq3G2wts9/3sBHaXfvZ4/r0f2K+UOtDW1tallDqglDqoFN1A4eDBgwe0Nv8G3NIPmFXrnNK/20o/A0o/g5RSg9vacsO0ZhgwWGs9AhhWLBaHAYd6fkaXfg4r/fRpELbA82gWbyjweeCNSqn3YbYk9lsr1S/Cs5RXYpbrCw01PgF0dLSXg7/3OivECK8u3kzgx8DxYGVlaTPPBTaXfjYBmx3HeUYptUUptbn0+9lCofC067rb8K0YV8ssyy+DgCOBI4BxmB0dj3IcZwJwNDBBa30MMLSFnm8qPKXUX4YMGfzhiy++oPxZoJXqF+FZyisxHc9/dT7fqVWVi71v/uXfVogRXmTeIZg1zd9K6VlmobJMmbcXWAk8AawB1gMbMd9vNwDPUFoP3sLn2xTenDnzR7uuOxE4DtOoPKH0+xRgZDVmC+SXRni7Hcf59KGHHvK9bdu2F6OysppfhNdUXq83f6o1AEotBf+bf82NBTLsnFbmdQA/ByaUD2SsskyC95TW+m5gGXAf8CCwlucKR0Wz8PnayjsCOLX0cwZwJuab+CEZzC9J8ZYAbwYeDcuy6PkKLzu8Xm/+lII/BHwC8AR/73kJ/tnjDQWuB96F5zlnuLKsl6eVUg8CCxzHWTRw4IAlU6deuLYFnm8meQsX3nlCoVCYorV7ltacp7U+V2s9KiqrbBnIf7V4XcDnMGW1am9AFp6v8KzjlQf6e9/8y2OIejcASjf43/xdi8QILxzvXOBG4CTvwRaoLMPaauD2trbcnGHDhi04//wp2yL6r49Z9nxbhrdy5ePF9es3nghcBFwMXILpNag5Rdni/FcP7y7gjcAjUfyH5c9XeE3leWf5ld/8Xe91yneD/81fgn+2eAr4MPAlzEjw5060VmXZxy/AfOAfwN87Otofr9N/gWbR8+0vvDHApUA7MAvzCaFXBrEs/8XF2w98HPgens9RFjwP4WWX533z79PDVKkBgL+lYIkY4VW2w4FfA5f7T1hSucXNOwj8C/gzcCuwrUH/BZrwrOCNAWYDlwGXK6XG+y9ogfzstX8DbwA2W/o8hJcdXvnNP/DzUpvnph6T4J853nTgd5jpWr3MwsqtEZ4LzMF83rgF2BGT/wJNeNbwtgJ/6Oho/yPQtmDB4jMLheLlWusXaa0v1Fo7EVi9zNLycRnwgFLqTZjGQKP+A6x+vsJLllcxnivPjQA0uLpQFp2TZZ4CPgZ8kYBVHS2t3OrhPQz8ErgBMwc/Lv9VNOFlgzdnzvxRruteAVyJmfEyKCwzA+VDK6W+PWnSxE9OmjSxOwn/Ca+leZoaA/h7tZwl+GeKNxz4E3AdrRn892OmL16MWbb4eiT4C8/Hc133GUw+uQKzeNEbgduosS1vRsqH0lp/cPXqtZ2LFi2dkIT/hNfSvJqz92qOtLVIjPCesxMwXeCnBp3MSOVWifcYZhDUr4BdCflPeK3PGwO8BrPZ1cXeExktH9uA12PGvaThP+H1A15DDQDbxPQT3vMxu4yNDDqZ0coNzBrp3wRuJ8SCPA34T3j9j3cCpmfgDRkfQOhi9hX4PLJolfBi4NXcDTBLYvoB773AbzCL/PSxDAb/bq31jcC1mKWKn0jYf8Lrn7xtHR3tcwcNGvT97dt3LMMsjT0ZcCwvH36ewkyNPBsz5fVgSv4TXovy6uoBsFVMC/NywLeB91RiZiz4H1BK/QL4iuu6a1Pwn/CE14u3aNGdx+zff+BtwFswOyBGMgvK28PAi4FVzfCf8FqDF3n6jM1iWpQ3FPO9vxWC/wGl1HeHDh1ywqxZ098jwV94zeJdcslFq4D/xuyR8Q5MQA1llpS3U4G7MT0CqftPeK3Bi9QDYLuYFuQdDvwTOK8S05LKqBavWyn1syFDhlx38cXnP5Wi/4QnvCi8F2IaBdMqMS0sb93A24FfWuA/4WWIBxHGANgupgV5k4FOzA5qgWZhZeTnaaXUHwcPHvSqGTMu+d2ECeN3p+g/4QkvKu9x4BdAHjOl8ETvSUvLWw54GTDgiCMOXzhw4MBm+k94GeGVLVQPgO1iWpB3Bma6z7hKTEsrox5zHLWwrW3AR6dPn7qsCf4TnvDi4J0PfBZ4ke3lTSmFUurG44+f/LZjjjm6vAZCs/0nPAt5HmbtBkDHc7sK+a+1QkwL8i7EdPuPrsS0vDJa29aW+3h7+7Q/h9Rb1Sx4HsLr57x58xZdXCwWv6i1bi8ft6i89eIppf4zatTIV59zzpk7bfGf8OzheZhAjQaABP/UedMw03tGVGJaHPy7gK+MGzf2+tNOO7mrSf4TnvAS482bt2h2sVj4kuvqc6KyypZS+b0HeAGwxSb/Ca+5vBKzPPBfQ+1ZAEHnrRDTgryZmEVwshj8/6WUOqOjo/1/JfgLr1V5M2ZccsfIkSPPxywqtCEqM8Xyex6wABgflpXF5yG8yMw+S/+3VblY3vzT480G/gYMqcS0NPg/C3ygo6P99032n/CElwpv27btGrNM9R8xMwY+CgyuxWxC+T0Z0wjoIGCtgGb5T3hN4/V68y+bqnCDUzrnPV9zY4EMO6fZb/5/p8LqfmBt8L8RE/y3Ndl/whNeM3mTgG8BL6nEbHL53QjMwuyxYaP/hJc8z/vmrwFdZqmAGxzP8fJvCf7J8C7FdPsPq8S0MPg/jZl3fKsF/hOe8GzhvQSzidUE70FLyu9mzIvGoxb7T3jJ8MpT/cv363y+0y1f4wTc4DWNBP+keOdhRvtnKfj/CbMugQR/4Qmvt92K2bb6O5hNe2wqv2Mxa4qcYrH/hJdc8C9br+APnh6A0g3+N3/XIjGtxDsZWIjZsjTQLKo8APZgNiL6lSX+E57wrOUppS7BLCh0gve4BZ/tNgPTOzran4hTr+3Po5/zvG/+Rf+1PS2EyZOP7fXNP5/vdFetWhP1b2fNOc3gTQDmYVrlgWZZ8F8GPA+Ya4n/hCc8q3mTJx+7qaur6+d79uwdDlwAKAuCP8Bw4OWbNm2+9Zhjjt5pq/+EFzsvMPhD6ROAv+vf301gmZgs80ZjVvg7uhLTsuD/bWAqpW16LfCf8ISXCd4pp5x0YNas6R/O5XLP11pHnjJYtgTqg6O7urr+vWTJ3UfZ7D/hxcqrGM/98/y1BP/EeIOAv+L5Duc3i4L/LuBVwAcp7Tlugf+EJ7zM8drbL80DZwF/icpMqj7Qmkn79+//x113LRtlu/+E1xCv5hg+5bmZBpcWzJpz0uQp4PfAqysxLQr+DwNXAist8p/whNcKvHcDX8eedQOWYtYg2ZsR/wkvZp6iQbNJjMW8LwGfqMS0KPjfAlwL7LbMf8ITXqvwzsHMpplUiZlyffAPzG6ChTAsC/wnvBh5tZYCzpQYS3nXko3g/wXMm78Ef+EJLznevcAUzOJffawJ9cGLgB9myH/Ci5GXC3NRVsRYyLsI09oPXHLZkuDfhWmkfNdC/wlPeK3IO4D5JNgGTC8fbGJ9MAUoAvMz4j/hxcSrqwFgqxjLeEcBc4CRQSctCf5bMLuG3Wah/4QnvFbnzcGMublCKTXAfzLl+qC8XPBDGfKf8BrkRf4EYLMYi3gDMW/+gXP9LQn+qzBT/BZb6D/hCa+/8G4eOHDALKXY5D3epM+Av8D0WmbJf8JrgBepAWC7GIt438ZXkMpmSfC/FxP8H7fUf8ITXr/hTZ9+ybLBg4dcqpRaAU1d92MQZrri+Cz5T3j18SBCA8B2MRbxrgHeGXTCkuDfCczAbOpjo/+EJ7x+x5s69YL1hxwyYobWujMqq2wx1S9jgb8OGDBgaJb8J7z6LNQYANvFWMQ7FbMpSJ/veZYE/38ALwX2Weo/4Qmv3/KOOmrc3lWr1vwOs1fIqVGYMdcvRwGTJ02aeEuW/Ce8aMzJk49VNRsApT+eo++aAVaIsYg3FPg3pe4zr1kS/P+EWd3voKX+E57whGdG4/8Zs1z4OWGYCdUvZ6xdu37XpEkTl2bMf8ILxwRq9ABI8I/E+z5wuf+gJcH/JuD1+Bb7sMx/whOe8Ixp4G/AKODCaswk6xet9az16zfOPfbYY1ZnzH/Cq8x08MRzVePicvD3XmeFGMt4rwT+6D9oUfC/CvNmYav/hCc84QXbV4GPBp1IqX55CtMT8UxG/Se855jeMX86n+/UbVUuljf/cLzxwI/8By0J/n8GrkaCv/CEl1Xex0q/ezUCUqxfjgJuwPRuhtoozjL/Cc/wysG/1/2qwg3lbgLv+aJFYmzhKeB24LJeB+0I/rdh1viWb/7Ca2neggVLTisWiydrrUcBw4ABxWKxgFlxbw+wFTPrZQO+2S8Z0vtNzO6czapfPonZ0yQtvcKLj9frzZ/S2z8ENAB83wjKvyX4B9u7MN/+e8yS4L8AeD6w33L/CU94dfNGjBjetnfvvl9prV/vPV6jfOzDrHj3AHAPsAi4Hyjarhf4oVLqHf6DKdUvBcz04cWVWLb7r5/yyuP8yvfrfL6zpydHBdzgf/N3LRJjE28yphIZ1uNMO4L/fUA7sNNy/wlPeA3x5s5d8AHXdb/pPV5nedsJ5HO53G3Dhw/7+/nnT9lmo94tW7YOfOCBFb/WWvdsK55y/bIGOBtf3ZKUXuE1zPMO8i+/+ff6jKN8N/jf/CX4B5sC5mJaxOaAHcF/NWaFv82W+094wmuYN2fO/H9orZ9XPh5TeetWSv3HcdSvc7m2W7q6urps0QvwxBOrBq5bt+EWrXVHk1YMvAGz2FkqeoXXMM/75l/0X1tpJUCdz3dKt39leyf2Bf+tmIE6EvyF1194B8rHYyxvA7TWLywUir/v6upah9nK25oVU48/fvLBUaNGvkprfW9MeqP672rgNWnpFV4svMDgD6WM7V0YAMDfTWCZmGbzjgauK//HkuDfhRnw91gG/Cc84cXCU4qk184/AjPw7bowrLT8d845Z+4EXgisi1lvWPs/YGzW8ks/5lWM5/6WrZbgX9O+DRwC1gR/gLcACzPiP+EJLyaeejil8vY+zEY5NvlvM/AiYHcCemvZGOAnKesVXnSepsYA/l4NgAaXFsyac+rhvQi4EqwK/l8EbsyI/4QnvNh4rus+FJVVtojlbTBmqe+m6g3gPYTpjq/50pZAfXVFZ+eC1/sOW51f+iGv5md8RYOWYedE5Q0BHgaOtSj4/w3T9d9TAVjsP+EJLwdcAZwEPIhZq0I3wBsE7CXituZ1lLdHgVMs8F8l3keA62PUG9Z/24cNG3rWRRedvzllvcKLiRep4NguJmHeJ7Er+K/EDMiR4C+8LPDGA/Mw+81fh9mZ8u9U2Y+kBm8ypjGxK0oa6yxvn7bAf9V4XwN+G6Peiubjjdq3b/83m6BXeDHx6u4BsFFMgrzjgBVKqT7fAZsU/PcAFwCPZMR/wuvfvKmYZamPCDj/Qcy4mqq8u+9ePnrPnr0vKBaLlwMzK7CqWp3l7R7g/Cb7LwxvKLAUOL1BvfX47wpMgy5NvcKLgVdXA8BWMUnxgL8opV7mP9ik4A/mu98fktIrPOHFyHsN8EsqD6Lbjele3+jnbdr0dG7lysevcF33TVrr52mtB0RNW9kaKG+XAf9pov+i8E7ANFgOSbmnch3mGe5LWa/wGuRFbgDYLCYJnlJqNpD3H29i8P8u8P6k9FrMGwacoJQ6znHUcVpzNJBTSj0yZMjgP1900fmbWkxvK/DeA3yH2vXMn4FXlHkPPPDQiK1bt79Na/cDWjMBmlbe5gCzm+i/euqr1wC/r1NvJWafYwG863lu46LU9AqvMV6kBoDtYuLmjR49Krd9+45lwFne400M/sswK/0dzIL/GuCNx3S7novZivR04BjjvkD/7cd8p/16RvW2Iu+/MN+mw9qLhw4d+q+urq53uq77SeDI8okmlrdfAu+h9GablecxZ878H2qt35yy/wqYZYJXpK1XeHX3bIdvANguJqG1xt/kuu7PvMebWBntAaYAj2fFfxF4kzBvWjOBaWDe+urw32eAL2RAb6vz3g18LyJyvVJqF3Ca92ATy1tPuoAPdHS030JGnseDDz489Nlnt9yptT45Zf/16TFJQ6/w6gv+ELIBYLuYJHiPPPLY0E2bNj2sNceUjze5MnoT5o0kE/6rwcsB04GXAi8ATozJf0VMb8GjluntT7zXYtaliNS7aNHsmkBzHOdPI0YMf4+tGwX5efPnLzrn4MHuhUBd4yYa8N8rgT+lrVd4dTFrTwMsXRg0VccKMUnxNm9++t0WBf+byXjwX778fjef72wHfoxZxWwO8AHiC/5g8umbq7Gy6r+M8C7F5NOWCv5KKbTWr9i9e/fy+fMXXZyg/2LjTZ9+yd3A/zTBf9/ALJyUql7hRWYCNQqqJ/j7r7NCTFK8e+99YMS2bdsfwyx52ezKaBNwBrA1K/7zHlu4cMnkAwe6rsXsIDYhKrMO/+WB5wWdyKL/MsSbgBmBfngUZhaCv8+6tdbvBn4aldWknraFwEUp++8TwHUZz88txysxyy/9mgpwrwX1EFghJknejh0734cdwR/gbWQs+G/dus158MGHr3Bd912u686izummdfovcLpZlvyXQV4b8EdaP/hTmor4E0xj9rNVbj8beAcwArhjxIjhvyG4HCT5fIvAG4H7qbGXQcz++6TjOL/E7FCapl7hVWf2Wfq/rcrF/e7NH2D58vsOdV33A2BFZfRr4B9Z8d+KFY8MeeaZLW8sTd+a3CT/9dGVsv8uwcwdHws8C9yB+dxRL8+a51uF9yXMwlShLaPB3/vfz2AW3/lowO1vwHzqGlj6/1V79+57AXBVBf9FsojPdyXwecyeIWn5bzimcfR+3/Gs5OdW5PV68y+bqnCDUzrnPV9zY4EMO6eHN3fugk+5rvsZCyqjzcCpHR3tO2z33733PnDojh0731NqOB1ep964/LcMOC9JvUG8OXPmj3Zd9wago0KaPkvAamlZKx8BvBmYBk7oZcVbIPh77QuYxgCYLvevY8a29OHlcs6b29un3eDzXySr8/m2YfLgmSn6rzBo0KAzL730oieaoFd4vXnesqkxu/5qCGgAeIK/93y/CP7Ll99/yPbtOx7XWo+KyipbjIXpVR0d7X+y2X8DBw4YUiy673Vd92PAYQ3qjct/D2HGTKSW/zo7FwwpFIpLgFNrIBYDH6e0dXPWykcAbzBmU5/jwzJbLPiX7V2YlTlvwtcA9PG2DRs27PSLLjpvcxOe74XAEnx1fpL+U0r9adas6a8Lmb649Qqv9wD+8v06n+/s2T/GCbjBa5p+EvwBdu7c+XZLgv+tlgd/pZR6fXd3YaXrul/FnuAPpW7XNPNfoVD8LLWDP5hFnBYAf1RKTU4rfQnyPokEfzCrc95L9eAPMHrPnj2fb9LzXQr8KE3/aa2vvOOOeWdmKD+3Gs8/e69X8AdPa7B0g//N37VITKK8Bx98ePDTTz/zOJ4VyKJYjIVpr+M4p82aNf0pS/13PvBdpdSFMekFYvXfmo6O9jSD6yDM55pDI+o94Djq62PHHvmVU0456UCC6UuKNwmzGVXNwWUlvX2OxZRf9iqllgIPuK77GPA0Zn8BjVk++khgMmY1zwuBUTV4cafPz3MxC3rdH5YV4/MdBTwGHJai3n8Bl0dhZTF+WMzzvvkX/ddWagDgbylYIiYxXj7f+Tbg/+rRHHNh+lhHR/u3ktZbB28k8GXg7UqpPt97LQn+AEWl1DMlZBHo0pq9WuudwDbMwLynMCu8rQGeANZSYV/6EP67CriBCNa7m5QnHSf3rvb2S/M2l48A3m+B10XVW7YG88sOpdTvc7ncnyZNmrjomGOOLoTU62AGK74a89yOSCh9tXi3AS8Mw0pgNPg7lFI/TFnvJZjPX6nrFV7PN/9i0PXKc1PP//tb8F++/H5327btKzHb/kaymCuPRyZNmnjuccdNKljmv5djGkfjLOp2jZO3F7OG+X2YuexLgBUdHe2E8N8czBLGjabvJ8CHMW+voayJ5e3Mkq9qTu+M+fluzOVy1x922JhfnnHGqd6d5+rRO1AprgL1KUwPQRzpi6L3QuCuaqwknu/GjZsGrVz5+FKtdc+AwBT03kHw4NjE9Qqv+md8fwOABlcXyppzyryX41u+MozFHbza2tpe2N5+qX/nwWb6L4cJTG9KQq/lvG2O48xXSs0ZOHDg7ZdccuGaAP8dh9mbIdQ6ByHStxazYNKCWqwml7ffAa+NQW9YOwhcd+SRR3ztjDNOPeA715De1avXDlizZt37XNf9NDAsxfz3V+BltdIXcKrh5ztv3qJZhULh9hrpi1vvVEzDOnW9/ZhXcwxfrwZAPw3+GlPhXhqFmcBa43+fNWv6lZb57wvAp5LQm0Hew1rrP2EWvHmwdOyLwP+LOX1uifs/mE8YfcyC8rYBs2NjHHpr2SNKqdfNnj3j4ST1Lly45LgDB7p+g2cKaRSrQ68LnIT5BFUzfXHrnTNn/q2u60b6Nt+g3n8CLwqbvrj1Ci/Y6lqhzVYxdfLOA+6Owkwg2HQPGjToLM+cWRv8dySwDhiYwWCdNO9BzCJNHwKOSih98zBv2Zu9By0pb3dhBoPGqTfI/tbW1nZVe/ulBwLOJaF3IGYBn2ujMBvQ+w3MZ5+w6YtN7x13zDtJa30/EdZviEHvFMxsidT1Ci/YIj98m8XUyXtvFGYSwUYp9WPLgj/AS5DgX4l3BnA9yQV/MAvsLMd0nQJWlbevJqDXb78eMWL4lSkGfw10YVbx+0ZYZoN6r8WzW1+az1dr/RDwm6jMBvV+Imz6LKj/+gWv7gaAjWLq4B1BiG+ZZUso2OwcPnyYd5lOK/wHTG6RYJ1l3jhgLvBmy8rbzcBreO5TSNz+++Po0aPefOGF5wX1UKah98OEmBEUg97DMNthN6v++xxmfEUoi0HvKyitG2FZfu63vLoaALaKqYP3Zpo8j9lxnG9ccMG5W2zzn+M4fd68Wiy4ZoU3EPjZnDnzv7p37z4/tJn55Q+Y2QBTgO8ppbbFpPfugQMHvGHKlLOavRHZ+zHfrQMtxuf7mibWf2uAX4RhxqTXAT7UQvEj87zIYwBsFhOR5wBPAsfWdFJyweHpww8/7OQzzzxtr23+844UjlFv3P7rVzyl1B/Hjx/35pNOOqELy/LLypWPD9q0afMri0X3Fw3o3eE46pxZs2ZsjDt9dfJGY6Y79trGOubnu2vSpIljmzj1dwKmHhxQiRmz3v0jRgyffOGF5/l3CrQqP/cXXqQeANvFROR10Nzgj+M419kY/AFOP/2UTqXUo3Hqjdt//Y2ntX7Vxo2b/tbZuXCwbfnFNErUjkb0KsWHLAr+YBaOenvvNMb+fA/ZsOGpaU3Uux74ZZX0xa13yL59+9/WRL3C81joBoDtYurgvbUWM9mNMnhq7Ngjf2Kr/8aMGe3mcrm3aK0PRGWl4b/+ynNdt71QKOSpsKRtJUujvLmu+7IG9C6aPbv9xiTTVyfvduAvkNzzdd3i7Cbr/TIBU06T0qu1+64nnlhV3iq52c+3X/LKFqoBYLuYOnhjgJdWYyZdmSvlfPWUU07cZ7P/Zsy4ZAm+N6B69YL9wTVDvAswKxCOCcNKI7/s2bNXNTKvfMCAtk8nmb5GeEqpTyml+qyOGl/PDtObrHc1ZifDwPQloHfc+vUbX95Evf2aV2Z2dLQHPOXgP56j73gBK8TUyfsg8M1KzBQq800DBgyYfPDgwchv103y3zcwc97r1Zul4Jol3n3ALGB7JVaK88pPKc0rj2yOo5bMmjVjRpLpa5Q3Z878P2itX1Y+HvPz7Ro4cOChXV1dXU3Uew5m2mla+XkxZo+AZuntlzwPE6jRA9CiwR/MXN9ASynzX5+h4A/wUeA/Deit133Cq847G/g3MCLoZMrzyqdG5ZX1Oo7zIz/Ptvoll8v1pDGB5zuoq6vrtCbrvRe4I8X8PBXT6GiW3n7HKzEdPPG81ieAZk/FSYJ3Bqbi7GMpZf4t+PblTlhvHLwiZr2EJ+vQG7f/hNfbzgNuBQZ7DzYhv5wfEVnWu3/06NF/TSF9DfFOP/2UucDmBJ/vGc3W29bW9t0q6YtbL8A7m6m3P/FKzF7xPJ/v1E6Vi1vxzR/g9UEHU6zMvwvsi8KyxH/dmHnDUfXWZcKLxGvHbEnsQNPyS6QA5pna2FmaCZN0+hrijRkz2tVa/yMqy6/Xa77ne1Kz9Z5//pTblHqukZ9Cfn49FXqv0tDbn3gV4nlwD4C/pYDZVcgaMQ3wFAF7mKdYme8HfpBB/x2L2clrdtBJy4Jhf+W9AvhaE/NL6ADWezaMmp9S+hrmAZ1ReX69ZQt4vpOarXfYsKFaKef7FdIXt16A4dRYidWS+i/rvD7xvMxyAm7o9Y2gZEWLxDTCuwiY6D2QcmX+K+DZjPnvHEzwD/xGaWkw7K+8D82duyCoWzXp/DISOKQevUqpZSmkLy7ePVGZEZ5vzTFBaegdMWL4r7TWkXoo69RbtoqzjCyp/7LO6/Pm72U5ATd4TdM6wR98b/8pV+Ya+FbKehvlzcDsSje2Dr1x+094IXiu63573rxF3q2t08gvY0MgK61r8EiG6pcnMD0BoSzC89VUWYwnTb3nnXfONuB3UXkR9fb6kwR8PrKk/ss6L+c7rPP5zl7TWR3fDf4n6FokplGeA7yy/J8mVOb/AVZmyH+XAbdR4RtdFoJhP+UNKBQKv1+8eOlRpJdfRtap13Vd96kU0hcXr4Bve+aIeoMufRZ4E6ahbYven0RlNpife83KsqT+awWe/82/z1oWyneTqnZxxp0zFVgETavMX0SVzUUs89/zgb9SYaOkDAXD/sxbjOnBCf3GCnXnl1nAHXXo3U3ITwcNpi9O3oPA6dWYFfR+FtOg3u/56Qa2AhXr2ibqfYCQAztjyM/PYrbWLljwfFuNpzFv/sWg672jhnusBYM/mEFSzarMV2EKf5p6G+n2/wsS/LPOmwp8KQqrgfxXcTZRDb3dKaUvTl6xCrKa3seAu4GHMNNpn8IEPhuDP8DPwzBjys+HA8+z5Pm2Iq9iHvNfrOv5w1lwDvCyJlbmP8a0xFLT28CAv78BQxrUG7f/hFcf78OY7V4fqcUKmV/OK/0MwTQQB5d+H1dn+gLzWQPpC20N8NoqnaihN9JLlQV6bwSub0BvVLsGyDdRbyvyao7h63VDqwZ/pdRZwGT/8ZQq84PAz9LUWydvIuYThXzzbx2egxn4+plqrJD55bvAe2NO35DSz/4Y0hfaGuQF7r8QQu9eQpolep/FbIR0RZ16I5lS6qUPPLBimGdNiLT1tiKv5gB+B0zgb9Xg39HRrpRSL/YfT7Ey/yuwJU29dfAOwQR/Ge3ferxTq7FC5pfnEX/wL9uxMaQvtDXIGwQcUafe7SmkL27eDUEHE8rPQ7dt2+atp62JH63MC70dcBbEVOG9yHs85cq84tu/Jf5zgN9SIVC0WDDsj7yKgwAj5JfphLQ60ldxDXxLyofXTsFXZ0bQuymF9MXN+xu+nosk87Pr6vKiQLbFj5bltYW5KCtignh33bXsMK31BeXjKVe+66iwiY5F/vssvgZSA3rj9p/wGuctCzoYMb/sSjB9FwI3N5i+mhYTr9d+BxH0FoD1KaQvbt4+TCPgtRH1hjI/T2vdMXfugmHFYnFHk/T2O15dPQC2igni7du377KyziZUvr8mYPCPRf57HvCpGPXG7T/hNcbbT0A3bh35ZXWCejtiSF/1PxAfr2cp7Ih6VxNPT0zaegH+UIfemlaBN7BYLL44Ksty/1nNi9wAsFlMEM919fOhaZX5byz235F4NpCJSW/c/hNeY7yP4Ot6rjO/PJqg3rPxjAOwqHz4bRBweZ1670shfYnwBgwY8C+lVJ8BjAnm5yubqbe/8SI1AGwX4+ft3btPaa1nN6nyvQsz99dW//2M+gc0peE/4dXP2we8D/i+92AD+WUlZjZLUnrf0GD6Ai1m3kuAQ+vUe1cK6UuEN2PGJd1KqX9H1FvRQvjvcmBYs/T2Jx5EGANgu5gg3rJl952utT4iKqtsDVZuv7XYf28h4Lu/JcErKu8gZpvitcDTwA5M17db8s9wYDQwDjPV8WhKK15mVG+t224GPgRs8B5sML90A/dT/zfwWvb2QYMGXUfwXHkr6hfgvQ3one8/YFl9UJXnOOrWYlG/PILeQAvpv8GYRsCfmqW3P/DKFqoBYLuYSryDBw+21+uYBis3l9K3s6T1btr0dO6JJ1ad4rrF0YVCcZ3W+vEatx8FfD1mvXH7ryJPKfUYMEcptcR13bsxvSzFCKhhSqkzHMe5SGt9qda6ndLcbhv1RuA9gZmq9y//iZjy3yI8DYCY9R5VKBTeQt816K2oX5RSMwiYCRFS73Z8AzGzVp8OGzbstl27dhe11rmoLI8P+xyr4r+XUqUBkDX/2cbzMFEhL8wFXGuFmBq8vwMvjMqMoXKbj1lSNzG9mzY9nXv00cfe77rufwFHetL3CPBpKhegmyktixyj3rj918scRy1Tyrlp4MABf73kkovKA9JiyS9bt25zHnrokQu6u7tfilk056hm643IOwBcV/rpqqXXY1H99xLMmhZJ6d08evSo084558zddaYvbr0ATJgw3tm48ak7te7d+xFB7w2YVe4SSV9avHy+8w5gWlQe1JVftmI+T9o8gDqTPA8TqDEGIOPBP0eE+ctli6ly+0OSetet29D2yCMr/+C67lfoHfzBzFW+GdMIucCHuIzsBP+9wPcHDhx4zqxZMy6eOXPat+IO/gBjxox2Z8y4ZCFmwNwEzMpn/w7LtMB/m4CvkGzwB+gEuhPUO3b79h1faCB9iZS3p57a/O4Ggj+k1BOYNI8QG5kFWZ35ZQxwcTP1tiKvxHTwxPOqXTqTJx9bDv7ep2iFmBC884D3RGHGVLm5wNs6Otr3JqV3+fL7/1tr/Y4a6ZsIvBU4GdMFuQfzBnd4zHrj9t9u4Ppcznnt7Nkz/jpx4oRn4/ZfFZ4GHse8tf0F8xZScSU9S/w3ChP8e31nTqC8HVyzZl07MClBveetXr32zlWr1tT6jBWUvtjrlwULlpxWKBR+DwxsQG8B2DZhwvj1hx02xtrgEIK3C3hXFGaD5eMZPDtM2h5cbeeVmL1e+PP5Tq2qXOx98y//tkJMSN5HMJtZhLIYK/NFHR3t05LS+8ADK4Y9++yW1cDICOnrAhZS/zzmNPxXxGya9NmOjvYtSfmvDt4FwLfwvZFY5r89wPGYQZCJlbe5cxe803Xd7ySsdytmcaAno6YvTr3Llt03aufOXYu01ifHpHet46gbBwwYeMOll170RKPpi1tvSN5mzPThMHr7HIvov/swm5NZH1wzwisH/56XnXy+UzsVbvAf15aJCcO7NCwz5sr8liT1bt267SqiBX8wc5htDv7LMIH23ZYFfzBTuC4B3gbstNR/wylt+JNkeRs6dMifKQ24TFDvGMzW2WPDsJLQ+8gjjw3duXPXH2MM/gATXVf/v66urofnzJn/h87OBUMyVp9ChVVNK+jtZXX472xgXEaCq+28PvG8zHICbuj1jaBkNXcVstA5l4Rhxl2ZDx486O9J6nVd9+0WdNPHxSsCnwcuApZbXJg08FPHcc50HGeeRf7z2tscRx0bk16gr/8uvPC8Z5RSt6eg9wRgLmbKZuj0xaH3vvsePGTTps1/1lrPqpK+hvS6rvuyQqH4rXrSF7feiLw7aiBjrV+U4rIm620FXp8xfF6WE3CD1zTZDP4nAYfVYiYQDB+99NKL/V2XsemdN2/R+VrrMxtIX9x6G+E9jVkG9rNAIQuFadas6ZvOOuv05zuOuo5SV5olwR9gAKhPJu0/rfWPU9J7MrAEM5YndPoa0bt48dJjtm3bfofW+rIQ6WtU76ujpi9uvXXw5jagN7Ip5QTN4LKmPsgAzz/GT+fznb1mVji+G/xP0LVITBTeRbWYSQRDpdQ/ktTb3d19TVRWknob4JUXlemsphe7ClMbmFkDM2dO/0wu57xea32gSf4L5Gmtr12y5G7vNMbY/ae1/jsh9gaISe/RmLErH8RTNyXxfDs7F750//4Dd2mtz42Qvkb0umFZFpWPtcCqOvVGslJ+nrl3774sDkC3hed/8++T5ypNA9T5fGcW3/zLdmE1ZlLBMJfL3Z6U3vnzF+co7cpVb/ri1lsnbw5mPvH6anqxrzD1svb2aTdhNlPambL/qvEGHjiwvzzzJSn/ucA3U9Q7qPT3FgPnx74WuuNMnDNn/k3FYrE86yNq+urVe3MYloXlo8+qhgnm58OXL7+/PAvH6vrAcp7O5zsDF0tzPDf1WFBLwSIxYXgXVzqRYGbdM378uCVJ6T148ODlwMgG0he33np4/8AszLS7ll6LC5OXV55ZsT0l/9Xkua5+67x5Cwcm7L+fYkaEp6n3IuCuOXPm3zJv3iL/gjT1PN+TgR9qrR/TWr8qhvRF0VsEvlyLZWn5WFSH3tDm5xUKhdlN1tsKvIrxXHluBHoPELBUTC3eYEyA6XNvkplVKfW3WbOmvyJBvb/FrFRXV/ri1lsHL49ZZKcrpN64/Zck7wLMAKnhCfovCu+tmM2ekvTf+4FvN0uvUmolcLPW+h9a67upst1u+RbMmg7PB14JXNzE8vFTzKySimZx+TgZs9poWvn5r8DLmqg3y7yaY/h6NQBaIPiDeVNY4j+YdGZ1HOcDM2dO+25CegcBW6gRYNLUG5F3L2ZVxj0h9cbtvzR4zwf+XuG+tJ/H3fRdBTJuvQOBh4HjLNB7AFiBWcRpM+YFQGN2lTscmAycARzapPR5bS9wIvBUJZYl+bmiVGCLUmp0Sv7bgZkamsUxE9bzFA2aTWJK9m7g/3qJTKGwAydprR+Lygqp9wVEWIrTsuC/CTOS+6kIeuP2X1q89wDfi9l/fSwk73RMUExS70sx615UTZ9S6jbXdU+kQmMhJr1Z4X0Cs29DoFmWnwN5c+bMv01r/fwU/XcW8ECz9LYyz6l1QZbElGyK9z8pFfb1CQZ/gBc3mL649Ya9vYCZ7tQfgj+YhucNMfqvj0XgXZuC3r9iej0qpk8p9dWRIw99MWbsx5YE9WaB9xABO3GWzcL8HMhTSt2dsv9C7emSFf/ZxKu7AWCjmJKdXf5HioW9M2G9lzeYvrj1hrXPYQbKpZZfVq58vJjPdw7CfC4Jtd11zOl7F6VlbJv8PF5LlR6+mPXuCkjffsdxrpk1a/p/b9u2vYjZtvkFRJg1YWF+boRXAN4EdAedtLg+7cNTSvVsb5yS/2ruQpgl/9nEC11BZkFMiXEapF7YOxPUezy+DVjqSF/cesPYXZS6OpPKL6tXrx2wbt2Gqa5bbNeaKa7rnoSZOz7Qc/kOzLz1hzBTyf6Fbx57zOnbo5R6IzAPXwM75edxDGathbsq+S8mvRuUUtdgBqkOM2llQ1tb2yunT7/kLh/vHsyOlLdjNjGKU2/c/oub9z8l/X3M4vo0kDd48KDle/fuS9N/Vdd1yZr/bOJFHgNgsxhM8H+oCYX9eEJuXlKH3rcDP2owfXHrrWUFzEYeDyW0S9vp3d3d79JavwYYXUf6lmFGyf+6o6N9X9zpA9rmzJn/Ha31O+v0Xy9r4Hl8Gfh/QemLW+9ddy07fN++/TOBA6NHj/zPmWeevrsK73TMmJYJMeuN239x8eZg1oxomf3t8/nO9YTcGCgG/4Ep532m22bVf7bwIjUArBej1OuBG/3HEy7sm4CjwrDq1Hsj8PoG0he33jD2TeC/Eni+JymlvqS1vjImvVtzOeerRx017vsnnXRCV6Pp8+pdtuy+kTt27HwEGNPE5/Eg0LN0tGXldxzwZ3xvd5bm50Z464FzAf+21rY9j6i82zAzX5L2X9kuwfTgtYr/ms6DCGMAbBfT0dGulFJn+4+nUNjnh2E1oLfipkYWVG5BtgP4QszPdwBmz4AHYwz+KKXGuK7+ysaNm5bNn7+ovHhULPn53HPP3uE4zheb/DzOAMYHpc9jzSq/mzCDu75NaV8FS/NzI7zdmAG8rRb8NWY576T957UTW8x/TeWVLdQYANvFeHineY+nVNgX12I1oHccMLHB9MWtt5Z9raOjfUedeoPsKOCPSqmpSenVWp/Y3V2Ym893fhL4SlRWpefb1tb2/WKx+CEqdHWHTV+Demd1dLTfgJ3ltxv4oFLqn8DPKTVWGtQbt//q5R0EriQgUGaoPq3GCzUtrwH/+a1nCmmL+K9pPA+zdg9AhV2FrBHTm6dPLx9PsbAvTVBv4GIuFlRulWx3Lpf7XgN6/XYacFeSwd/DczDfzH+J6XEIZdWeb1dXVxfwtZjSV6/cdiyujDo62tXs2TPmjh496kyl1LcojZK3JD8D3OY4jn+Tr1q8AuazXT4N/zWJ91BYZkzPY1KL+a8pPA8TqNEAqLSfsC1ivLwHHlgxTGvzppVi5XEAs8pdUnqn+A9YHPwBfj5z5rR9Dej12mnAPKXUeP+JhPVeixl3kavFCvl8f0Zzp75dWiN9oS3J8nvOOWfunjVr+sccx3m3Jfn5bqXU8zs62l86bNjQd2I+bYXhlYP/n9L0XxN4KwmxOl+Mz+OYFvNf6rwS08ETz2v1AASdt0KMn7djx86TAZVy5XEfpqsvKb1nev9jefBn0KBBQXvF1/N8xwP/UkqNaZLeVwHfqcaK8Hz3Ar+OOX1R9J6wbNl9I6ukL5SlVbkVi8W3Nqi3l0X0n8ZMUbyso6P9wtmzZ8wFuPDC8552HOfTIXj7gZcDf2yW/1LkHQDWVGPGnJ/HN1lvpnklZq94ns93aqfKxZl48y9bsVg8sQnB8K6ggzHq7RnTYHvwdxx157RpFz/eoF4w3e9/aMKbv9/ejVm4pY/V8Xx/mUD6wvLUnj17z6mRvqqWVuV2xx3zXkCNrbxD6O2xCP57FDNP/zjgBR0d7Xl/+s4449SfaK2rfe57BpiFb2XENP3XBN7KSicSyM9jLdCbWV6FeB7cA+BvKWBaxtaIIfjN4YSorLI1kFn7LOwRo94BmE1MrA/+SimUcm5qUG/ZPpXSN/8wt34X3/r1dT7f5aRbWfb6v+u6Z1VI3wDMIMthlVhpruCotf58HHpD+O9pzDLGH8TsbncKZtXK1ZXSd9hhYw5iVj0M2lf9PkzD5c5m+a9JvMA8nVB+HvrAAyu8+bQV/JcWr088L7OcgBt6fSMoWdEiMYE84KSoPGg4sy5PUO9kIJeF4A8waNCgWxvUi1LqZKXUJyzSOwzTCFDQ8PP9SwLpC8UrFotn5fOdZ2O+TX8e00X9IGZ3xo2Y6Wr34NtuOs3yu379xldiNn1pWG8N/50IjMVsMfttPEEshN57gat5bkEaF7NI11QCusMzEhwa4T3hP5Bkft6zZ295B8JW8V8avD5v/l6WE3CD1zQZCP4l3okRkY1m1n2U9sVOQq9S6risBH+l1CNTp16wvhG9pXUcvoxvBL4Fel8AzI7h+d6WUPrC8K7CNFZvBD4NvBKzGl95yWSFWazmt5jpeKoJ5fe/YtRbzUbUmb6y/R7zPXoKZpruOzHf/uvlxeW/ZvB6rX6adH4uFAqHNFlv1nj+gcw6n+/sNXDT8d3gf4KuRWJq8SJtNRpDZn2I0ijYJPQ6jjOpwfTFrbcar7NRvfPnLz5La/0yS/V+isaf7514AoXFjbs3AR+OQW+PhSwfkT7hNaD31DrT57X9mN6AZxrQG7f/msHr6QFIIz93d3cPbTH/Jc3zv/n3mbVRaRCgzuc7s/LmD6YlPjwsM6bMel+yenVmFkVRSi1pVG+hUHiXxXpnLFiw5Azf4ah6D1IaM2Jx8C/zPrVixSNDGtQLRCofK1LS26sBkKHK3EbeOkCnlZ+11kOisiz3X1o8nc93Bo1dMQ0Af9d/UEvBIjFBvMlhmTFm1kQ2uinztKZn1KtlwaHPMdd172lE7xNPrBqotX61zXq7u7u9+zHUO8BxWQaCP8ChW7Zs9a4fkEbl9nECutIT0NvTAMhoZW4Tr1sptdl/PMH8PDAKKwP+S4tXMZ4HjQ7MWvCHkA2AOCtLpdSKhPUe3kj64tZbhXdQa/1YI3o3btx0KTDSbr36JaV/1P18c7ncw8mlL16e6/b0QKVVuS3B7CD5E8zgxKT0nlFn+uLW2xI8pdQm7/GE83PNxbmS1psxXs0xfH0WBoj6hy1xTs0GQNyV5bBhwx4JOByjXj3a1uDg460heGpUaL2uW2xPMH2x8LTmhDlz5h/ZyPN1HOfJ3kx79QKH0px55W/HTE18I/BvzAyfOPV2W1BftRJva/l4Cvk51B/ImP+S5NX8jN8G9Qd+i5xzbDVmApXlMxdddN6WJPW6rh4RlZWg3mq8tY3q1ZpzLQ+G5W+Q5wIb6tU7YEDbukKhkFj64uQVi8VBTazcdgO/An6VyzljQL1Qa30Z6BkxLPf9oxjSF7feLPP2QGr5udsCvS3FC7UbYAbETKx0IplFb9SjSeulwnSlMOmLW28N3jNhWZUbO25dazg0Qe/JmAVk6tJ76KGHPLN//wHrg3+JNygqK6H6YBdm6t3vARYvXjp+//4DZ2GWyT4ZM/tnIuaTWbUu4u3ANy+66Pz/izl9NtR/zeR1pbz3SrP1thSv7gaAZWICt1tNsLL0NgCS0ht5xGuTBpjtaETv8uX3u/i2gbVYb+h0Buk97bRT9m/a9PRBIg5mapJeKwdcTZ164dp8vnMNfRtiDjAK03AegmkMFDADC3d2dLTvTCN9/Y3num6kz39eqyM/72623lbj1dUAsFDM0f4DSVaWSqnyoLck9UaqgJs4urzmyO1qerdt2z6MCIN7mqx3ZBhWjZ6d/dTRAGiC3tB1gyX1gYv5Hr01Jp7teq3gEbC+fBirMz9va7beVuPV2g0wC2LGAIO9B1KY9/54CnpDP5smTy2r+gYQQm/kRmgT9dZ8JiH0FjKiN9SbnYX1gfDS5aXZmH3aAr0txYvUALBUTK9u2ZQGSK204eGlpbcGr2IFEFJv1e96luntqsYKqXcAEayJems2VCytD4SXLm9YBGQj+XkLvrqiRfzXNB5EaABYLGZc+R8pVZau1np1CnprvoFZEPwBhjao9wCwN8H0xcnbWulEBL2hK8wWaOyENuFllndIWGaD+blXndtC/msKr2yhul8tFzMOUq0sN2KWdU1ab9UK2IJgWLYxMehdjdmcxna9gQ2/CHoPJeR4Bwv07qt0wvL6QHjp8g4Pw4whPye28Vp/43mYob9pBlVatog5KuXKclVKeisOrrMgOHjtqBj0Pphg+uLkPeQ/EFHvOEKYJXp3BR20vXITXuq8I2sxY8rP91uiN9M8DxOo0QCotJ+wLWJKu+b1qVQTrixDd/83qDdwyoslwcFrx8agd0mC6YuLdxBY5j1Qh95JCaYvbt52/wHbKzfhpc4biunVqmgx5uc7LdCbaV6J6eCJ57V6AILOWyHGw+vVAk2hslyTkt4+FbBFwcFr44ARDer9V4Lpi4u3EE+3eJ16q255a5neXuMdbK/chNcU3jHVmDHm572DBg1aZoHezPJKzD5L/7dVudjqN38Pb3T5eEqV5bqU9K4A2utIX9x6Q6DUmcBdDeh9DPMZ4AwP1Da9fyz/o4Hne1aC6Yub17PLm+2Vm/Caxqu4B0vM+XnutGkXB21Sl3X/pckrB/9e9zsVbuizS6BlYry8wyDVyrLqWvAx6v1lnemLW29Ncxznohj0/sxivfsoLUXb4PM9P6H0JcHbHIPePia8luIdH3Qw7vycy+XmWKI3q7ygXX81ASf6fCMoWc1dhZrlHK31mJQry/Up6b0H+J6lwaEXT2t9qe9wPXp/AeywVO/PgR0NPt+RwGkJpS9u3h5gW0YqN+E1j3ey/0AS+bmtrW2uJXqzyOvTk+9lOQE3eE1jcfAH0FqPjsoqW52Z9am09J5yykkfVUp9F0+3TYX0bQLmJaS3Jk9r3b5p09PlmSL16t3tOM7Xk0hfg7z9wHUxPN+Z+MqbpcEfYG1GKjfhNZfXa+puQvl565QpZz1sid6s8fyz93Q+39nrU4rju8H/BF2LxPThLVp0p6LCQjS1rM7MepCA6VFJ6R0/flxx1qzpHx44cMD5Sqlvaq1vA/4BfB14C3AxZgOUozDjBSouVJNwsBn52GNPXNSo3iOPPPw7Sj03y8KSYPjFjo72p2j8+V6RUPqS4D0Zg94ey0hlKbzovMTH7Cillg4bNrQMarberPH8b/59xlFUGgSogy62zTn79x84rJ40NpBZ9zRD77RpUx8AlofgPQTMiFFvaP91d3dfmc93djai97TTTtm/Zcu2dxQKhX9prVVUVgJ67xs0aNDXaPz5tgEvTSB9ifAcx3m8Qb09lqHKUnjReJMobY6V8MZr5cHFzdabZZ7O5zsDV5Z1PDf1WBaCf4l3aERko5m11+I8FmaG+2LW28eq8F5N5QZlaL0zZlzSqbX+nwTSF9V2KaVeG9Po4+dTWjHR9uCvlEIp9ajvsM2Vm/CawzsPUtl47S5L9GaZVzGeB40OzErwh5Dbs5YthszaswSwpZnh7pj19rIavCOBl8ShF/gCcFPM6YtiBaXUq2fPnhG06mM9z/ctMacvbr29eLlczrvioe2Vm/CawAMuTCM/u667zAa9GeXVHMPX64YGlxZshnNCf/+PKbO6TdZby+6MWW+PheS9F/hzDHo18AbMNs8vrcWLWW9BKfWa2bNnxDX16BjgJVkJ/kBxzJhR5UFXzc7P5bSdOnfuglnAaNBDgJzWuK7r7gV2YLaJ3YhZpntT2unrj7w5c+Zd6s9uCeTnzVrrZ2zQm1FezQH8bVB/4LfAOcPDMOOsLC3PDE8Cm5VSY+PSC5H8NxM4F9+SuXXq7QJeBfyA0ht0DOmrZbtKb/6xzTsG/ksp1WcvDUuDP0qpR0477ZT99eqNP/hzDfBL13V79VZW0bsDuBdYjJkZsxDPpzvLy28meA888NAIrZniPZ5Qfn44KisL/rOJF3o7YEvF1OwBiLmydJqstybPcZz5Meqtx3+fjVFvN/A24N349gJvIH2V7D6l1AVxBn/HccYppd4WU/ri1luJd3e9euPOzxMmjHdAfQNfPVVD70hMQ/STwL8xM2NuAa5ua2sbEWf6LKj/msLbvn3nxcCA8vEE8/NKG/S2Mq/uBoAlYqo2ABKoLAc2WW9NnlLqPzHq7XMsBO/FwCUx6tWYXoCzgV7BOabnewD49KBBgy6K8Zt/We/n8OVRy4M/rususiU/HzzYPYzSSp8N6B2C+Yz0m2KxuGnOnPk/XrBgiXf+ulXlNws81y3OLB9POD8/HpaVJf/ZxKurAWCRmIoNgIQqywG+w9ZlhsGDB/c0AJoYbL5J3zUmGtW7EugAXgQsieH5HgC+D5zQ0dH+xbjXGp8/f/FZWuteny5sD/4l3oJ69JJAfj7jjFMPKPXcN/0Y9A7TWr/x4MGDd3d2LnhZo+mLW29WeFrTYX4nnp9Xh2FlzX828SI3ACwTMyjoYIKVpbfB0fSHF8S7+OLzn1KK5U0ONucDb09Ar+7oaL+to6N9xoABAy5SSn1XKbM7Y8j0FTDfhd8LjAfe09HRvjHG9NHR0a727Nk7oFAofA/PSlwZCf6bMBszRdIbt/9689QjCejNFQrFL9hYfm3nLV16zxFa63NSys8barGy5j/beA3P226ymD4NgIQry3IDwIqHV4nnuvpP0HuQTp16gbr99xXHcW4jeOnkhvVOnz51ObAc+PCcOfOO1ppzMWuTj8esD+FgBhJuxYwOfwizv8KeIF6c6bv77uXv0Vr3fAbJSPAHuKMevQGn4szPj2itZyWgd2xUloX1X+q8ffv2X6a1rvvTccT8vLHZeluZBxEaAJaK6TW6OoXK0unsXDioUCh0N0lvKB7wB+CLMehtxH+HgL5h06annzdu3JHeVahi1+u6ejUhuwvD8BpJ34IFS051XfdLMfivGVM5/x1Vb8Cpsv8cTC9QB7AG+BqeLYbD8lzXfYg6rYbev0ZhWVr/pc4rFosvisoqWx35eUuz9bYqr2yhGgAWi+kZlJdWZVkoFA4lYEnglPSG5T0B3AVc0KjeRvynNZc++ujKz44bd+RnEtZrBe/++x8c3t3dfRNm/YKsBX8XuC0m/40CfodZAbFsLwPOAXbX4i1evHRiV9fB9mKxeAFwKXVYDb1dwGfCsrKS/5LmzZu3aABweVQe1JWfd2FmAbWM/2zheZi1GwAVdhWyRYyC1CvLUdTomkpQbxTerwnZAEjSf66rP97ZueC+9vZpf7AgvyTG27p1m7N16/Zfaa1PitN/ZUuBt5Qqb1wR/HcC8E/67hV/HPB54ENBvEWL7jzu4MGDV2vNK7TWJyes94fA2jCsrOS/NHjd3d0vAoZFZdaZn3c2W28r8jxMoEYDoNJ+whaJyTWhsgy9AVGTM8ONwPWYaVCN6G3Uf6pQKP4in+9cByxJUG9Tefff/9D1WusXJ+C/tHhxrOB4HqYXoVIZeR/wK0p7VnR0tKvOzoXPd133v7TWHZTqmYT17iHk57Es5b+UeK+JymwgP++zQG9L8UrM8vgNDbVnAQSdt0JMadGbZqywdniz9Ebk7aDGevopBpshwN+BsxLU2zTe3LkLPqW1fl+C/kuDd3NYvT4r++8SzDoN1RrIOcyaDkopdemcOfMWFYvF27TWzyOd4A+m8dFVi5Wl/JcSbyhmjY/Q1mB+7vWMWsB/TeWVmL3ieT7fWXk0Z0dHu7Vv/s8tetP7eEqV5ZHN0lsH7zsx6A1lIXijgTxmQZ+k9KbOmzt3wWdc1/1MCv5LkrcUM1CvXv+V3/xHhEjaRZhlehdozcVN0HspZoGZqxrQG8lahPdSInT/x5Cfey5uEf81lVchngf3APhbCpiHYY0YD69n8ZYUK8txTdQblXcv0Nmg3poWgXdYKT0zMuK/irytW7c5c+bM/4brup9K0X9J8W5swH/HY775hwn+5fRd1GS9RwA3AH/D16OXlfzXBN61YZn9aO+VrPCCdv0N/gRQCv7+J1hzV6HmOEdpSL3yGN88vXXxvtKg3qpWB+9QzHSzNyakN3Hevfc+MOL++x+6WWv93ib4L25eN2bEfj3+G4UJ/qE+i1mi12tXYD4JTA2pN5K1EG888LwwzBif78AW8l8zeX3e/L0sJ+AGr2msDf6gte5uQuUxoVl66+TdjtngxabKdyDwC8z34EGW+68Xb8GCJadv375jidb6iib6L07eXwkY/R/Cfwr4DWbUf5b0+u0oYI5S6jVV9ILZ5fICQq6empX8HJL3ZoJngvWymJ/vsCbqbRWe/5npfL6z15Ln/vXa/U/QtUhM0CIhB6OyytZAZp3YLL318pRSn7O08n0ncLdS6uw49SbxPPbs2Ttg7twF7z948OBirfWJlvgvDt6P6/TfRzD7MmRNb5ANAn47d+4C/7bThXy+8wjMlsL3YMZK3AOMqQazvT6IyHOosR03JPJ8RzZJbyvx/G/+ffY7qdSa1fl8p7Vv/mUeFRaKqGUNZtZj8LSsspAZZs+e8R+l1KI69cbtP7+dAdw1d+78/33wwYet3Gth/vzFU+66a9l813W/RjYX+alkj2MGZkb135nA/2ZQbzWe47ru9zs7F1zt0TsF03s21XP5OcCPKrGyUB9E5F1OwEtPgP96WQzP45Annljl3X01q/6zgafz+c5i0PXKc1PP/4NaChaJ8fLeC3w3CjOmzDoZWJ2lzDB//uILuru7F9apN27/BfKUYqNSzmcPPfSQX27btr0YlRW3/xzHGQ/8j9b6jVi8sY9S6hGl1Le1dj+rNeMi8N6Pp/yE9F8Os8pkqL0mMhL8e2kFXqK1HgX8lMrraLwM33LCWaoPIvD+Cbwggv9iex5Dhgw+furUC9dl3H/N5lX9jB80OjArwR8CFouoZjFm1hOzlhmmT596l1LqdzZXvlozvlgs/nTbtu0rMIMEB4Zlxey/Y4Hvaq2fKG3pa23wB8jlnI/OnDnt54cdNuZkrfVnCLdU9f14uv8j+O89NDf4a0y5PxiX/3zpa9Na/xkzM6LaIlrfptQbFNF/ocwS3olUWfo36fqgu7t7Ysb912xezTF8fRYGiPqHm+yc/WGZMWfWE5uktyGe1vr79QpO+U3uJMwgwXXAlzD+Ttp/AzCjwm8BnlRKvRdPBZ+w3rp5SqlbZ8y49N8AZ555+m7gC5hld38AVOpFuQdTsXdF9N8o4HMp6t0H3Ap8cMCAAe3Dhw+bcPbZZwyZPXvGyNmzZwxva8sNB07DrFD3HeDJqP6rkL7BIRATgQ9E9F8os4j3QQLmjofwX2QL4nV3F47PuP+azav5Gb8N6g/8FjgnVA9A3JnVcZzTm6S3Lt6KFY8O2rRp80eAj9ejt4nduEcCnyj93Av8BbPgzL2UgluD/jsUmIkJ/C+ltIpdhrqt9wwePOhDAXqfAd4N/B9moOXFwHDMJlE3Y+bAF+rw339jGgFJ630I+Cbwh46O9r2V0tfdXegGHi79/AETkM/H9FK8HtOoSyJ9Zft4Lpf7IcH1kLX1QUje4QRM1Y3Zf7V4p0dlWeS/TPBCbwdsqZiaXZ0JZdZTmqQ3Mq+zc+EVhULh68CkBvT2siYFw3NKP5/H7BS2FFg2d+6CR3M5Z9WAAQPXjR8/7pljjjm6EOC/oZjpXhOBkzGD2C7ADEBMe0vp2HiO43xm6tQL11M5v6zArL8faBHz3xhMYE1S70bgo8DvAV1n+bgbE7j+B/gq8MoY0+e3UaDfW/o7YdNX0SyoT732PgI+gaRcPs5NUW+/5KkwF1ks5gJMIAgWl1xm3T579ozyksBWZoZFi+6c1NV18Juu674wBr1x+y8pntZa78V8GnJL/hhOaa0BC9IX44BJteDMM0973mGHjTmYUv57NcnuLfFrTNDZVWf6KtnLMYP5Rif0PJ6eOHHCcccfP7k8JdnK+iAibzhmt8TRAXrj9l81Xheml072bkiIF2pRC4vF7K10IuHMOmrRoqUTmqA3FG/evIWXHTjQtayfBX+01gpTeR2O+XwwhhYM/sCuQYMGvjnF4A/ms0ISel1M4H8D8Qd/gL8opc5XSj1SZ/pq6T1yw4anXtZA+myqT8v2bpof/MGU3Usy6L/M8CI3ACwTsy3oYBqZ9cCBA6c3++EF8RYtunNyoVD8vdZ6eJx6LQ6G/Y7nOM57L7nkoidTzn/zMGvnx6m3CLwO+F4M6auod/bsGesPOWTETKXUvRHTF2h+va7rvrmR9MWtt0HeMMwiTxX1xu2/Gryqi01Z6L9M8SI1ACwUs9N/IK3MqrU+rwl6a/K6ug5+SoJ/6/KUUj+fOXPaDU0obxq4EvN9fW7p/43qfSdm8F4c6auq9/zzp2wbPnzYi4An4n6+ruu25/Od46KyLKxPwayt0rO3gwXl41VU+FRtqf8yw4MIDQBLxfTMB4bUM+v5TdBbk+e6bqQ9uyPoFV6TeUqxvK0t994mlrcC8CtgllLqeMdx/lcpNtSp93uYb/Nxpq+q3gsuOHcLZrbH3qg8qPp8HcxYg4bSF7feOniHYgZh1tJblzWw98rMjPgvM7yyhZoFYLmYbcDYJmTWC5qktyJv7twFIzCFOAm9wmsu72lQLz94sDv02hdlSyj/rQc+P2fO/MNBvyOi3ofxdDOnWb9orR/GBLlIa2KEeL4vxky7bCh9Ta5PP0ZpnwPLyse7gDkZ8F8meB5m7R6ACrsK2SRmS5My62jMlLJU9VbjFYvFvZhBVUnoFV7zeAeAl7uuuy4qK8n8t3XrNkdr/bI69L6L6IsQxan3h5jljENZyOc7gxADTi0ODkdhFv6xsXxcSWnXSYv9lwmehwnUaABU2k/YFjEdHe3KcZyt/uMpZtZpaeutwesCliWoV3jp81zgKq31kqispPPfihWPngscGVHv34H5aaSvCk9jFpeqaRGe72DgwpjSF7feMPYFYKil5cMB/p/l/rOeV2I6eOJ5rR6AoPNWiPHwnvUeTzmzXtoEvbV430pQr/DS5723tDZ9JEsj/xWLhZl16P1qWumrwZsDLK/GrOP5XhRj+uLWW83OBt5oefm4ZsGCJafFpNf255Fk8O+xfL5TO1UutvrN38PbXD7ehMw6M+hgkzPDb/GMrI5Zr/DS5X0cs6Z/JEsr/xWL7kURUY8ACyyqLH9S6USdzzdwkySL9Fay7yil+sQCy8pHrru7+3Nx6LX9eSTBqxDPg3sA/C0FTJeZNWK8PKXU09C0zDoBs/FKanpD8t4CrExAr/DS432KvkvM1rQ08x9maeYo9kdLykfZ/kxpOqPXGni+fd5QLdPbx5RSr1NK9fmUaWP50FpfOX/+4vLywFb4LyO8oF1/e6av+G/o9Y2gZDV3FWqic55qcmZ9Xsp6w/D2YAbO9NkrIaPBsL/xPgZ8MSor5fw3DBgfUesdKaYvDO8Z4D5fGvtcFOH52vgyUNHa2nKHAF9rQG8fS7h8qEKh8OV69dr+PBLi9Xnz97KcgBu8prE7+FPPyOiyxZRZL0tTbwTew5jlVXuuzWgw7E+8otb6ncD1UVlNyH+TIiKLRxxx+L1VeM3S27OXSAzPdwClGVMW1gd9eK6rv4AZ/V+v3l6WRnkrLbr0gnr0YvnzSIDnn72n8/nOXrPEHN8Nfo+7FompNK93Y1QexJpZOwYNGjQoLb0ReX8GPhOzXoSXCG8/Zue6H0VlNakyOjICEqXUhjPOOPVAiukLa4+W0tfnRB3P949AMQvBYf78RRdorXvt7mh5+fDyrid4anpFvVj+PBLi+d/8+0wRrzQIUOfznVa/+Xt4kXsAYs6sI4rFYnuKeqPyvug4zg0x6s1icLWdtwlo11rfEpXVxMoo9IJTSimUUhtq8JqiVyn1VB3PtxvzeW0LZgvjJzENt7dnITisXbtuUKFQ/BGeIGp5+fDzTgXe1iz/ZZCn8/nOYtD1juemHgtqKVgkxs/bC2wPy0wiswYsv2tVZpg0aeI7lFL5uPTG7b/+zgNepbUOvTBN2ZpcGQ2OqHdPDV5T9OZyuT7LAtd4vmuBgcAIzJr5RwPHA+/s6GjfG3f6kuCtWrX2o1rrs0LqrWpNLG//AxzSDP9lkFcxngeNDsxS8C/b6jDM5DKrfknKeiPxJk2a2D1mzKhXK8U9GS3sLc3TWn8PGBqF1YTyNgCz1fJhmKB3eC1mhcaOVeVDqd7dpCGer6rGs13vggVLTnNd91MR9FZ2RHPL2xHAJ9P2X8Z4Ncfw9VkYIOoftsQ5a2oxk8ysWjNh/vxF56aoNzLvrLPO2KOUuhx4sFG9cftPeJyNZ2OcWpZyebsaeAqz6dZuzMJb64FvRtOrD00ofQ3xtKZn58yQz/dANV7c6YuTt3r12gHd3d0/w/RgZKl8VLIPAJPT8l8GeTU/4ztgAn+Ggz+Yb3AVLY3MevBg98stzwyFYtHdCnRgFmRpSG8LVB628V6Hbx/2IEu5vJ0G/BKItNVt8OhtfZSN5UNrPaH0OyxiZ5rpi5O3Zs3aT2mtp0TU28csKm+D8E1jzNLzsIEXejtgy8U8UelEipn1NVToHkxAbyO8ZzArGK5oUG/c/hMeXIdnXQm/NSG/zCJiHVFF7wTMd/M409ewXq31iRGf78ZqvLjTFxdv/vxFU11Xf6ykOSqqxywsby+ntCJrlp6HLby6GwCWiQlsAKScWScCl6Skt1He05jdy6puHGRhYW91Xg74PeYbey9rUn7ZGQFZS6/Cwi20XdcNnaaSrU4zfXHwli+/79BCofBrIJfx8lHJvjNixPA2MvI8bOLV1QCwUMzj/gNNyqxXp6Q3Dt5WTMt5bgN64/af8Mw201/wHmhiflkVs97nx5y+hvTOmTP/MODMiLiHLSm/oXk7duz6gdYc0yLlI8hO37dv/3sDjlv5PGziRW4AWCpmA2Y6INDUzPpaakyPssx/u4HLgd/VqTdu/wnP2CspPdMm55eHY9b7Smp8JktTr+u6V9ZKT4DW5WmlLw7e3LkL3qG1fmWLlY8+PNd1P3vXXcu8M1OsfB628SI1ACwWo4l3Ra8ei8g7FHhFxvx3EHg98HkL/Cc8Y8OB8Rbkl62YEf9x6Z2EGYQaV/oa1fuOiMg9xx8/6eEqvLjT1xBv/vzFU1zXvd6C/JwGb+SePXvLPWdWPg/beBChAZABMY9aklnfmobeBHify+Vy12CWpI2it6JZ8jwyyXMcpxs78svimPV+Iub01av3cuCMKEzHcTonTjymWIEXd/oa4t199/LR3d3dN2mtQy3YFGQ2l48gntb6jXfcMe9sG5+HbbyyhWoA2C7GrOjl9Jna1qTMOgM4KWm9SfBmzpx208CBA6YrZdZVSNB/XTHz4k5fs3kbZs2a/mzA8Wbkl3kx652JCb5xpa8evTnMjIvQVlrO+J8ppa8h3tat25zdu/f8Wms9MSrLq9dvFpWPSjxHa/0dsjEbq2m8MrOjo13VbABU2FXIGjHPrejl9JrW1sTMqoCeTTZszwx+3rRpU+8fMWLEBVrrWxP03xuBi4DvY9ZTb5QXd/qaynMc58cBh5uVX/6dgN7/A4bFlL569H4QOCsss6S3MGzY0FtSSl9DvPvvf+hLruteFpXl09vLbCofNXgXAdeGZWWtfm6U52EC4Qbk5AKus0KMl7d48dKJ+/cfeBysyKy7gKM7Otr3JKU3Jd77gK8Sct33kP7bitlHvtwL0IbpNXkZcAVwbEReJLOd5zjqrvHjj5p90kkneHtJmp1fHgROj1nvrzo62t8UU/qi6J2C+awxKAzTo1crpRYppW4EbioWi9sTSl9DvLlzF7y+WCz+MiorQG+P2VQ+QvI2Y3phd1Vj2R6sEwr+5Zd+DbU/AQSdt0KMnzd16oVrgR2WZNZDMGMBrM0MIXnfBc4H7o3RfzfQ+xNAAbgD09iYBJwMvBu4KWAHuSxWRqHNcZybRo4c+ULLgj/AnxLQ+4a5c+d/NKb0hdV7FPAXogd/AKW1vrRYLP6gWCxuwmz9Oyvm9DWkd968RRcXi8XI20lX0AvYVT4i8MZS2ga9ktkerBMO/oBZAVhVudj75l/+bYWYSrx8vjMPTK/HOQlk1nWnnnrySePGHekdNGS1/6rwBgD/D7P5xoAG/XcmNfYj8KbvzjvvHnfgQNcU13VPd133ZOBE4ARgZBTNllduG9ra2t7f3n7p333HrcgvSqkTgMdi1Fv2n3Yc570zZ077SQp6x2IamqdGSF8tvRoz9fcPMaSvIb2LFt05cf/+A4swm+RENsvLRz28bkxd86j/hAX1aTN4vd78MRv/BTcASi0FRe+u/5obC1jgnK8DH4rKTCqz5nLOte3t036foN60eacBPwQurdN/dwEXxpS+QzEr5o3F7FB3KOa78hDP/ZOAN1pQGVWyAvDdMWNGf/6cc870b0trVX6ZM2f+f7TWM5Lwn1Lq8+PHj/uf9es3Rt6JNKTeU4C/E7BxTJj01dBbNU+nUX7vumvZqF27ds/D9J5FNovLR6O8/wC9xkJYVp+mxfO++WtKwZ+gP+QJ/l7LQvDXwPKozCQzq+vqj+/Zs/em4cOHdWfEf7VsBaaH5Q2YUdRHRvTfL2JM387ST8U9DZRSHZgBh2HTV9NizC//Vkp9ePbsGStD6q1pSeYXx3H+r1gszkjCf67rfmb9+o3nAW/BfL+NU+8bMJ+yQu1DUMfzHdhg+kJbEG/FikcH7dq1+09I8A+y52H2CvgLWFmfpsErD+Dvud/LcgJu8JomO8Ef4J4ozBTmpZ62dOk9L8qQ/8KYBn6Zy+VOchzn6/i2R63iv7XAr9LU29aW88/ZtqFyexB4YUdH++VZCf4AJ510wt+AJxP03wsxKw++jypBNYLeMzAzGH5JcsEfzN4N9aQvkgXxNm7clNu0afON+HrkwpplwTop3teBwRbXp0ny/LP3dD7f2auXzfHd4Pe4a5GYMLyV1Bj5Wba0MqvW+jO04LzUmTOn7Zs1a/onhgwZfLpS6ldAsYr/dgKvwrfIUNJ6lVIF7/EmV0aPYfaKOLujo/32JPQmyTNjWfQXorIi+m8U8B3M5l4fw3zeCa136dJ7dD7feRlwC3A/VXZWrDN9ftsG/CBs+ojxeezZs1c98sjK/wNeEpXXgN4s8iZh8lKmyltMvF5O9Ad/vBf4GwBBF2fEOXlgdjVmEzLrqzGjhrPgv7p4d9wxb7LW+tMlreWBgkXgH5hxGaui8OJI3/z5i8/t7u5eAk2tjB7EfC65CShm9fmWeA7wACEH0sXgvyJwJ2bDqmXA447jPH344Yd1FQqFAfv37x/Z3V2Y6LruacVi8ULMZkOHhwHHlL6P0qT96PP5zq9Qx3inBvVmlbd/yJDBp0+deqF3WesslLc4eOVv/sWg670bjvRYhoM/mAqjYgOgSZn188CfMRWa7f6ri6e1Xol5w303ZtBVDngE2F4PL470KUU3NHUA0jeB29LSmwKvCHwE+GcN1AZKWxo3WN5ymC22L/He+8wzz9bL62MNpO9JTG9FFP9FsirB/9NI8I/CG3LgQNf1mBkbkJ3yFhevYjz3z/PXGQ/+AEsrnWhiZj0ZM8ApCb228XZhnsFimhj8y6yUK6PtwLcxb8iX0VrBv2y3URpUVcF+BRwP/DQjwaFe3rsxG2lF9V8oqxL8Pw58ugl6M83TWl/Z2bmwneyVt0Z4Ncfw9VkYIOofttA5i/CMeCybBZn181QYjGSZ/1qG191dCD2i3G8Rnm8RExRfh1lo5oOYno/M+68K732YcR1+P3wYeGNHR/vBU0456X1KqV4NBVuDQx28n+NZIjnF4P9RoK5xGJb5rym8QqHwrXy+MxeVZUF5q5dXcwB/DmDVqjWsWrUm6t+11Tn7Md+he74FWpJZh5d+32G5/1qG9+STq/cALwXGRWGGeL7l1Quvx6z4+BPgodLxlvFfFd5uzJTb52Hy9dOYMvebMu+QQ0Zo4K87duw8GTjV9uAQgfcEZtnqgw34r6JVCf6fQIJ/o7zDgR2Yz8ShzJLylhgv0uh028V47EfA28G6zNqFWUznScv910q8l1G9y7qXVXm+T2G+69+GefvbXovVIv6rZjlM42ozUAjibdmy1bnvvge/Brw3avrAuvK7H7gYM8MgzeD/OcxKnGnrbUXebswn2adqsSwsb7HzQm0HnBUxHusEKzPrIMw3Ytv910q8W4Avh2H23viFJ5RSN2it34GpMMZjFhW6CQn+ZStiBvwVKvEOO2zMQcwng3cQcRtoC8vvm0gx+O/Zs1fl851fQ4J/nLwRmLUBqpql5S12Xl09ALaKKZvjOEdrrdf7j9uSWZVSr549e8Ytcem1/XlYwnsF8FnMAjFl05g3gccdx3lcKfWw4zgPjhgx7P4pU87emXG9NvLOwmwGdXotpoXB5pPAl9Ly39q163KPP77qBwSsZJmS3lbnzQbmBJ1oofJW22+tJMbLmzNn/kNa6xPLxy3LrJtGjjz0rHPPPXuHrf5rYd7RmMF6W4ENHR3tBy1LX6vzBgL/DXyCCttMpxAcntBad2Omq4axbwL/lZb/Hnzw4cFPP/3MjcCLY9JrW/1nA+9RTIP0oPegBeUjVV6kTwC2i/Hx5pWPW5hZx+3cuetLMetFeKFsA2YDlycl+DeFdxAzI6Y96GTCwWGz4zgfGjx40GmYPQLCTHn+DikG/6VLl41++ulnbkeCf9K8kyk917JZUj5S40GEBoDtYvw8x3HuAHszq9b6rZ2dC59nq/+EJ7yEeW/wH0iqvCmlHnQc511jxx55wsyZ0769f/+Bg8DdwPdrIP4X+EBa/lu48M5Ju3fvXgBMbURv3P5rYd6ngWPAyvKRKK9soT4B2C4miHf33csP3blz12b6bogQzjHpZNaNmG/SNQeVpe0/4QkvQd5xmLUSyktGJ1HenlRK3drW1nbT9OlTy7uE+tN3SCkdR/lu7wbeBfwsLf/Nm7fo4u7u7pupYynjhPzXX3h/6ehofwV2lY9EeR5m7QaAZ1ch/7VWiKnBWwxcFJWZcmb9PWYRmTj02v48hCc8gN/iyfMxlbe9wM+U4u5BgwbfdemlF60Omb6XYJbpLr8oPIVZ02BRWv6bO3fBtcVi8fuE2AUxyCwOrpngtbW1vbi9/dJ/+Q63UnkLYgI1GgAZD/4aM+r7c1GYTcqsb6TKVrkR9EYy4QmvCbxTgBWU6pQYy9v+CRPGDz/ppBOCevxqpe88zCyRncBPgS1p+G/r1m3O/fc/9L+u636kHsEx+6/f8pRi1bhxY88+5ZSTylubt1J58zPLn/011B4DEHTeCjEhebU2LellTcys/wecFIPe0CY84TWJdwnxB3+AIVu2bJ1cZ/ruwcxKuI6Ugv8999w76v77H7pFgn/zeVozefPmZz5aOtzs8pEIr8Tss/R/W5WLs/zmX7ZlwDPAEbWYTc6sw4CbMZ8r9lrkP+EJL27eE5BMeSsUCqcAay3T24e3YMGS0w8ePHiz1npyVJZXb9z+688813U/escd836ltX4yKsvy8lbm9XrzL5tT4YY+uwRaJiYsz8XsR1/VLMmsp2PWlLfJf8ITXty8eY7j/M5/PI7y5rra24tmi95evM7OBdccPHhwoQR/63iDtdbficrKQHnzBv8euWVWLuAGh+fe/Mu/a+4qZLFz2jCDegLNssx6BqYHYLFF/hOe8GLlTZo08Zb16zcu0FoPBI7XunJPZC3zlbfVkyZNvM02vQAPPvjw0BUrHvk/19Wf1VoPiMqqoBfIRHDNCu8EzFLPj4ZhZaS89enJ97JUwA3Kd9y1SEw9vOGY73qD/Ccszawu8KKOjvZ/WeI/4QkvMd7cuQuGFovFFwNXAh1U2DI7yPzlzXGcD8ycOe27tuldsGDJqd3d3b/VWrfSroityluHGai6rxorI+XN+4KvMW/+vRa/yvlu8L/5Zz34g1l57ELgRO9BizOrAl6yYcNTt02cOOFZC/wnPOElxnvyydUHgAcwmyx9DbgdWIlZG0Nh5ur3uddf3pRS/2pra/vo448/WSCiJal37twF7ygUCjcBR1lSvwivOu9QTJf5HZVYGSpv/jf/PitfKt9NqtrFTRbTCO9NwM97RGcgsyrF+iFDhk67+OLzy9tW2pa5hCe8NHgKOBKz7fDhSqlDHMcZqhQKVDewx3Gc9dOnT73PJr1Ll95zxN69+36otb4C7KtfhFeVdxA4E9MQ7WUWlo9avPKbfzHQN56bev7fYsEfYAxmz/I2CzJXaJ5S6sFDDz2k/dxzz95uaeYSnvCE5+N1di58SbFY/AGlVf1srV+EV9XuwHyS6rGs5D+/XKqM4fM3AKjnD2fBOcC/lVLP8x/MQGadB7wA2B+FZfvzEJ7wWo13993Lx+zeveebWuury8czUL8Ir7K9FvNpKhP5j4jBH3zTA1o1+Hd0tKtcLvcn//GMZNYZwJ/wrJseRi+WPw/hCa+VeJ2dC1+2e/fuByT4txTvG8CILOS/Cryas/cUDVpWnHP33cvH7Nq1ex2lQGpB5orK+wvwGsxGJan7T3jCE15fcxznSOC7WutXeY9nsH4RXrB9o6Oj/b8DjluR/xrlhd4OOAtiqvHOP3/KVqXUf8CqzBWF93JMd1TFnoAsPQ/hCS/jPAW8TWv9qAT/lua9f8GCJaf5DtuQ/2Lh1d0AsFFMLZ5S6veWZa6ovJdjdi4bHEZvyax9HsITXkZ5ZwILlVI/BkZ6T2S8fhFeX15bd3f39/bu3VeG25D/YuPV1QCwVUwtnlLqLwSstR/GLMqsV2A2ORpeSy+WPw/hCS9jvEOBbwHLlFJT/SctDF7Ci4Gntb7krruWXU3z81/svMgNAJvF1OIVCoU9mG/pkczCzDoTmAMckeXnITzhZYTnAG8DHgc+oJTqw7M1eAkvHl6xWPxyPt95aFSWpfm5xyI1AGwXE5L3yyhMizPr+cDiBQuWnFJDb2hrkecrPOHFyZuJ2VX0x5iFiPpcYEl9ILxkeUcAn47CsjQ/99bbKmIi8BxgNXBMTedkI7Nua2tre/WMGZfMT8l/whNef+CdBHwVeEn5QEbqA+ElxzuA2TBoQy2Whfk50HJhLrJdTESexqwMOL0aM0OZdYjruq9bu3b905MmTbw7g89DeMKziXc08E3MG39P71qG6gPhJcdrw2wq989qLMvyc0Xm5MnHqpo9AJW2FLRFTJ28ycATVOgByXBm/SHwfmqsFRCD/4QnvFbjHQH8N/AufLNsMlwfCC9+3gFM7/GzQSctys+1mECNHoAWDf5gdhqbhmkI9LKMZ9bzgOcB/wZ2Jeg/4QmvVXhjgM8CN2J6Bf1Th/vckKH6QHjx89owM8nm+U9Ykp9rMR088bzWIMCg81aIiYH3Y/8BCzJXHLyLgHuBF1VjWfg8hCe8NHmHA9cBa4CPA8P8F7RIfSC8+Hlvx5fXLMjPYZh9lv5vq3JxK775e+0WTDfO4WBV5oqDNwb4O/A94KOYbqu4/Sc84WWRdwzwYcy0viGVmC1WHwgvXt5RwAuBW6Hp+Tksrxz8e93vVLjBf1xbJiYO3kHgZ2Bd5oqT917MFKZzywcsfh7CE16SvDOAXwNPYsbJSPAXXiO8qyEz5aNPPC+znIAben0jKFnNXYVSFBPjRh7qR0op13/cgswVJ+9U4E7gc4MGDRqExc9DeMJLgHcZ8C/gAeCaCtf3mIXlV3h28q4YMKBtGPaXjz49+V6WE3BDL9/QosG/o6NdzZo1Y6NS6rZegu3IXHHz2oDPHjx48J758xef7ztnzfMQnvBi4g0F3gGswAT/y8IwLS6/wrOPN0TrwHxlU/nwD/LX+XxnrxfenO+GsofKv12LxCTCW7du/TbX1VeBVZkrKd4Rruu+ac2adWO3bNm6aPz4cXttex7CE169vDvumDd51ao1nwZ+BbyS0vieMJaR8is8u3jbJ02a6H2BtK18+N/8+/R2K99NqtrFTRaTCG/v3n3qzjvvfkBrfVI9eiEzmdXPexYz7/kX+AaGVLOsPV/htTZv5crHBz311OaXFovFtwLtUXmQ2fIrvCbzlFIPz5o1/ezSYSvLB6Zu1/l8ZzHoesdzU4/1l+APMGzYUK21/lY9eiE7mTWAdzhmEOTd1FgVsWxZfL7Ca03eggVLzpgzZ/43Nmx4am2xWLwBCf7CS5mntT55+fL7h2Nh+fBZxXiuPDcCvQcIWComCd4QYD0wOgozS5k1BO9W4P9hvpv2sYw/X+G1AO/OO+8Zu3///tdqra/RWp8DmS5vwmsBHjBVa70kKiul8lZzDF+fhQHqcUwWKo8avH2YZXRDWxYzaw3eSzAjpX8FHBfRf5FMeMKLYMOUUq+bM2f+3/fu3bvOdd1vSPAXni08rfXkqKwUy1vNAfyKBs3yyiMKbyxml8DBtZhZzawRrIhZGvWLHR3tj9Maz1d42eENBl4AvAZ4sVJqqP+CFitvwssu72PA9WFZtpW3hhoAtomJgfcT4K1VHZbtzBrVXMdxbmlra/vG9OlT7/Icz+rzFZ69vOGY5auvLP0eBtaXD+EJ74vAp8KwLCtvRl+9jrFRTAy8k4CHqbBCYgtk1rp5SqmFjqO+PWTIkFt2795TiMqy5PkKzy7eeEywfxkwC7PVao9lqXwIr9/yrgM+UYtlSXnrY21hL8yCmBh4K4G/AK/wn2iRzFo3T2t9aaHgXrp79561mI2UfgY8HYZl0fMVXnN5DnA+Zh31FwFTaL0tuYXXv3j7a7FsLr+RewBsFhMT7zzM1LjnnNQ6mTVOXjfwV+DnmO2HA+eZWvh8hZcu72jMFtWXAR3AYbWYLVI+hNc/eO8gYGfZstlefiM1AGwXEyPvNuByaHrmygpvE/Ab4HfAfeWDFj9f4SXEu/POew7bu3fvVK31bEy3fqQFtizJz8ITXljeDGB+0Anbyy9EaADYLiZm3iXAQgsyVxZ5jwC/V0r9afbsGY8FnLfh+QovJt6SJXcd3dV18GLXdadpradprU+lzrFFluZn4QmvkhUwa8fs9p+wvfz2aG7GH88Cb86c+XdorWd6j2c8s6bOU0o9Btza1pb7+6mnnnznYYeNOWjL8xVeXbwBwNnAxY7jXAz6Eq2ZUD5pW/4TnvAS5t2B+azVyywuv35m7QZApS0FbRGTFG/evEWXFAqFueXjLZBZm83bihkrcDuQB54Kw8pKfmlBXhtwCnAuZuDeuZjgPyij+U94woubdw1wg/eAReW3FtNoD3Fhvwv+5f/PmTP/Nq317BbJrLbxHsE0BDqBxcBm/wVZyy8Z5o0EzgDO8vycQcCiWC2U/4QnvEZ4qzHjW7rLB2yvD0rM8hR3TQW414Lmw1shJg1eLpf7XHd39+yorLJZlFlt5J1S+nlf6f+PYxoCdwFLhwwZ/CDBuxRam19s5y1des+YPXv2Hq+1Phnj+9OB0zDz8Wtai+U/4QmvEd4HyW7wB8zS/6rKxd43//JvK8SkzPs7Zt5yJLMss2aRd0Ap9RBwr1LqfsdxHnRd94FisbgjKivj+S8q70il1PGO45wATNZaHwecoLU+Xms9KmraypaB/CI84aXF+z7wnvJ/LK8Pyrxeb/6YLYKDGwClloKid9d/zY0FUhSTJm8KcA8hxkuUzbLM2mq8DcCjpZ/HSz9PAGvwtMjL1gL5z2uHAOOACb6fo4FjgYnAkIw/X+EJz2beX4BXY2YANLs+CMvzvvlrSsEfAoKaJ/h7z/fX4F+2PwCvCsO0LLP2J57GrEewBtNI2AhszOVymx3HedpxnGcHDhyw5eijx28dP35clw35L5fLHTpw4IDDi0V3tNbuGK0ZpbUeUywWDwOOAA4HjsRsVDUeGJKg/4QnPOFVtx8A7ydbwT9Xlln+nc93uj3+CLjB/+bvWiSmWbwTgRXUGDNhWWYVXjBPA7uArcAOYGfp/3tLP/swy3seKP0cBFygkMvl+vyJYrGoMNPjyj+DMYG6/DOs9DMc8wY/svT7EKVUW0D6bPef8ITX33ibgfcCfyofyEh881ZY5Td/13ud8t3gf/OX4P+c/RCz7GOgWZRZhSc84QlPeI3ztgLfAb6JZ7EfS+JRWJ73zb/Pcu2V3mj7tBQsEdNM3ueAqyltU+o1SzKr8IQnPOEJrzFeFzAH+C1wM6YXsMcsikdReIHBn/KF3oUBACT4B9pm4GvAZ70HWyzzC094whNef+IVgaXAXGABsBDzKbCPWRaPovAqxvOglkIjqwtl0TlReNdjPgOMhZbI/MITnvCE1994GhPwfwPcCmyrxbI0HtXiaWoM4O+zMEDUP5xh59TD2wt8GjKd+YUnPOEJrz/yCsAvgFOB2cAvad3gDyFm74We226BGCt4o0ePym3fvuNezFKpPZaBzC884QlPeP2V1wm8G7MEeWizPR41ynNqXZAlMWnwpkw5y2lra/uI93gGMr/whCc84fVHXkFr/RFgFhL8+1guzEVZEZMW79hjj1mzZs26M4GTLc/8whOe8ITXX3n7gZcDv47KylI8aoRXVw+ArWLS5A0cOPCjWuuuevwHmSxMwhOe8ISXFV43cKXW+raorCzGo3p5kXsAbBaTJu+YY47esmrVmiHAtKjMDBYm4QlPeMLLEu/DwI1RWVmNR/XyIg0CtF1ME3hDMd+VjgnLzGhhEp7whCe8rPDmAe1RWS0QjyJb6B4A28U0ideN2Xjm1WGYGS1MwhOe8ISXJd6VmIXbQluLxKPIFqoHwHYxFvDymHmlFS3DhUl4whOe8LLC+zfw/CgsC+JHqjwPs/YgwIBdhawSYwnvPZhd4wItw4VJeMITnvCyxPtVFJYl8SM1nocJ1PgE4An+fo9bIcYi3lbMNrDT/ScyXpiEJzzhCS8rvCLwVsyGPjXNoviRCq/EdPDE81o9AEHnrRBjIe9/gSe9BzJemIQnPOEJL0u8FcDOMCwL40eivBKzz9L/bVUuljf/aLwDmE8Bt0NLFCbhCU94wssSL9RKf5bGj6R55eDf636nwg3+49oyMbby/gX8vkUKk/CEJzzhZYm3vhbL8viRdPDvcV+Z5QTc0OsbQclq7iqUYefEyhs2bNhHgO3e4xktTMITnvCElyXe7mqsLMSPBHh9evK9LCfgBq9pJPhH4l188fnPOI7z3z0OzG5hEp7whCe8LPHcSieyEj9i5vkH+et8vrOXjxzfDX6PuxaJyQzvggvO/aVSqjPjhUl4whOe8LLEGxp0MGvxI0ae/82/TwOp0iBAHXRxizknMd6wYUO11vrtwP3AkKhMSwqT8IQnPOFliXeE/0AW40cCPJ3PdxaDrnc8N/WYBP/GeVrrx4HPR2VaVJiEJzzhCS9LvF57smQ5fsTMqxjPg0YHSvCPj/c1YFlYpmWFSXjCE57wssQ7tfyPFokfjfJqjuHrszBA1D+cYeekwSsAb8ZsGlTVLCxMwhOe8ISXJd544MgWih+N8moO4M8BrFq1hlWr1kT9u1l3Tlq8pzGDMWZWYlpamIQnPOEJL1M8pdSSyZOPfSLgVFbjR6K8mpsBZUmMxbwvYwYE9jGbC5PwhCc84WWMd1nA4azHj8R4dTcAbBRjMa8beCO+TwEZKEzCE57whJchnr7Cd7gV4kdivFzYC7MgxnLeZsxozFmQlcIkPOEJT3iZ4h2yYcPG/0yceMwGWit+JMKL3ANgs5gM8K4D7sxQYRKe8IQnvEzxCoXiNdhR31vPU1Eutl1MFngLFy45uavr4D14Vq2yuTAJT3jCE17GeLuAo6mxN4DfshA/4uRBhE8AtovJCu+YYyZsW7t2/S6t9eWQicIkPOEJT3hZ4g3CzL5aGpaVlfgRF69soXoAbBeTNd7evfvU0qX3/MN13Y6orLJluHAKT3jCE17SvM3AccC+WqysxY9GeR5m7TEAFXYVskZMFnnDhg3VmAWCdkTlQUsUTuEJT3jCS5I3FnhnLVYW40cjPA8TqNEAqLSfsC1issxzXXc98L6ozBYpnMITnvCElzTvQ1Te8C7T8aOB4O/giee1egCCzlshpkV4NwB/CstsscIpPOEJT3hJ8o4Grgg60SLxIyqzz9L/1VpH8uafDu+dwKXAkdWYFhQm4QlPeMLLGu8a4BbvgRaLH2F55eDf635V4YZyN4H3fM2NBTLsnGbzXgzcWolpUWESnvCEJ7ws8fYBo4EusKa+T5vnffPXgC6zcgE3eL8RlH9L8E+W9xhmL+tz/CcsK0zCE57whJcl3gAgD6y1qL5Pk9enJ9/LcgJu8JpGgn9avA8Ca7wHLCxMwhOe8ISXNd4UC+v7NHj+F3ydz3e63gOO7wa/x12LxLQ6bzdmwyANVhcm4QlPeMLLEm8S9tX3afD8b/6u/9pKgwB10MUt5hwbefOAbymlPuQ/YVFhEp7whCe8zPAcxzkk4LAN9X1aPJ3PdxYDfeO5qcck+DePN27c2M8opR7xHrepMAlPeMITXsZ4u3yHranvU+JVjOf+ef7y5t9k3mmnndzV1tb2JqAAVhYm4QlPeMLLDE8p9ZDnsFX1fcK8mmP4+iwMEPUPZ9g51vKmT5+6XCn1JRsLk/CEJzzhZYh3YNiwoX8v/dvK+j5BXs0B/IoGLcPOsZq3ePFd7Nu3bxFwflRmhgqn8IQnPOElxnMc539mzpz2RSyv75vFq7kZUJbEtBJv37593cC1wP4ozCwVTuEJT3jCS4qnlPru+edP+RIZqO+bxcuFuSgrYlqQtwUzgOUFYZhZKpzCE57whJcAr0sp9a+2trZ3zZw57ScDBw7MUn2fOq+uTwC2imlRnsKsZDWrGjMjhVN4whOe8JKY6vfntra2rx9++JgHTznlpAOlw1ms71PlRf4EYLOYFuVpzAJBuyoxbS+cwhOe8ISXJE9rfWWhUPj0rl27y3P+s1rfp8qL1ANgu5gW570R+IX/YBYKp/CEJzzhpcTbALxQa/1gVJZl9X3iPIjQALBdTD/h/Q3P/tYZLJzCE57whJc0byswDXgkLMvS+j4xXtlCNQBsF9OPeOOAFcCoDBdO4QlPeMJLmvckMIUqn07LZnF9nwjPw6w9C6DSloK2iOlnvD1KsVEpdaX/RMYKp/CEJzzhJckbDRwK/LMay/L6PtHgDzV6ACT428mbM2f+LVrrF5aPZ7BwCk94whNe0rwCcBywLuhkVur7uHglZnngv4baswCCzlshpj/zhgwZ/B5gJ2S6cApPeMITXpK8NuCaoBNZqu/j4JWYfZb+z1W52PvmX/5thZj+zpswYfzutWvXb3Nd94qorLJZUDiFJzzhCS8N3q+9/8lafR8Hb/LkY/v05K9atSa4B8DfUsB0F1gjRnhw1FFjfwwsiMoD6wqn8IQnPOElxTve+5+s1vcN8oJ2/Q3+BFAK/n6P19xVKMPOySRv/fqNLvAO4GAUpmWFU3jCE57wkuQNLf8jy/V9A7w+b/5elhNwg9c0Evxt5j0CfDUs08LCKTzhCU94SfK2QcvU91F5/k/8Op/vdL0HHN8Nfo+7FokRXjDvi8CqWkxLC6fwhCc84SXJW9Fi9X0Unv/N3/Vf21aBoYMubjHntArvAPAJ4KZKTIsLp/CEJzzhJcm7g9aq7+vh6Xy+sxh0veO5qcck+GeO90fMCoF9zPLCKTzhCU94SfG6hw0bdkvA8azX91F5FeN50OhACf7Z42nga/6DlhdO4QlPeMJLjOc4zh8vvvj8Z3yHW6G+D8urOYavz8IAUf9whp3Tarw/4Fn32vbCKTzhCU94CfK6Bw0a+AXf4Vaq78Pwag7gVzRoGXZOK/J+CrwlA4VTeMITnvAS4zmOum7mzOmf8Ry2oX62jldrKeBMienvPKXUzVkonMITnvCElxRPKbXyqKPGfdFz2Ir62UZe3Q0AG8X0d96ECePnA7u9x20rnMITnvCElyBPt7Xl3nHSSSd0lQ5bUz/byKurAWCrmP7OO/HE47uVUp3l4xYWTuEJT3jCS4ynlPrx9OmXLC4dtqp+tpEXuQFgsxjhgVJqLthZOIUnPOEJL7ngz6aRIw/5VOmwlfWzbbxIDQDbxQgPcrncQhsLp/CEJzzhJclznNzHpkw5eycW18828SBCA8B2McIz1tbWdh+wLyoPslXYhSc84QnP8+/O9vZLb8Ly+tkWXtnawlxkuxjhPcfbt2+fBu4DpkZhZqmwC094whOexwoDBrR9kAzUzzbwPMzaPQAVdhWyRozwAnn3RWFmrLALT3jCE573/z+dNm3qAxmqn5vG8zCN70JcmAu4zgoxwqvIeyfwgzDMrBV24QlPeMLz2B6l1HGu6z4TldVC9X0UZvmlX0PtTwBBPQRWiBFeVd6jYZgZLOzCE57whOflfV1rLcE/HLPP0v9tVS6WN//s8h6rxcxoYRee8IQnvDJvO/CNqCwL6udm8Hq9+ZfNqXBDn10CLRMjvOq8TcD+SsyMFnbhCU94wvPyvo1nA7QwZkn9nDYvaNdfDQFjAErBv3y8/LvmrkIZdk6r8h4BTvYfzHBhF57whCe8Mm8fcAywNSzLsvo5LV5BxJAyAAAXbUlEQVR5AH/5fp3Pd7rla5yAG7ymkeCfVd56/4EMF3bhCU94wvPybkCCfy2ef/Zer+APngZA6Qa/x12LxAgvGu8p738yXtiFJzzhCc/731CznMDa+jkNXi8n+oM/VJ4FoIMubjHntDpvc/kfLVDYhSc84QmvbPcScq0Ti+vnNHk6n+8sBl3veG7qMQn+LcF7GlqisAtPeMITntduDMOyvH5Ok1cxnge1FBpZXSiLzmlJnlI8G7TOUwYLu/CEJzzhee3PtVi2189pvflTYwxfn4UBov7hDDunpXm5XNtO//GMFnbhCU94wivbw8Dqaqws1M8p8WoO4G+D+gN/xp3T0jzHUTuLnq8+GS3swhOe8ITntTuqsbJSP9vCC70dcBbECO85nlJOzwIZGS7swhOe8ITntYWVTmSpfraFV3cDwEYxwnuOl8s5eyDzhV14whOe8Lx2T9DBrNXPtvDqagDYKkZ4z5nj5Pa2QGEXnvCEJ7yy7SXg+38W62dbeJEbADaLEd5zduDAgd1RWWWzpLALT3jCE57XHse3mU1W62dbeLW2A86UGOE9xysUCnWt5WBRYRee8IQnPK+t8/4ny/WzDTyI0ANguxjh9eEV8bWWa5llhV14whOe8LzWs7ppC9TPTeWVLVQPgO1ihFeRdxAYFIZpYWEXnvCEJzyvbYeWqp+bwvMwa/cAVNhVyBoxwqvKK4ZA2lrYhSc84QnPa3tarH5OnedhAjUaAJ7g73+CVogRXk1ezb9hcWEXnvCEJzyvFWit+jlVXonp4InntXoAgs5bIUZ4jfHA+sIuPOEJT3g9lss5Eo8aD/49ls936rYqF8ubf4vywP7CLjzhCU94vXlqoO+wFfVpRnjl4N/r/rYKN/hbWpoQGwtk2Dmtygvs4clGYRee8IQnPC9Pewc0t0L9nBavTzwvs5yAG3p9IyiZBP9s8vo83+wUduEJT3jCUx4O5R6AVqmf0+D16cn3stoCbvCaBlyLxAgvGm+A9z9ZKuzCE57whOezHK1VPyfN88/e0/l8Z68F4hzfDX6PS/DPLs/B83wzWNiFJzzhCa/HXNftbqH6OQ2e/82/z+qwlQYB6qCLW8w5rc4bXP5HFgu78IQnPOH5ePujsiyun9Pk6Xy+M3BNGMdzU49J8G8J3iDIdGEXnvCEJzwvb0cUluX1c5q8ivE8qKXQyOpCWXROS/IcxxkaVBAzVNiFJzzhCc/7341hWbbXz2m9+VNjAH+fhQGi/uEMO6eleQMHDhjuP56xwi484QlPeF57PAwrC/VzSryas/faoP7An3HntDRPa4Z5j2ewsAtPeMITXtm6gBW1WFmpn23hhd4OOAtihPccT2u3pwcgg4VdeMITnvC8tgTTCKhoWaqfbeHV3QCwUYzwnuNprUeUfkdF9VgLVR7CE57wss37czVW1upnW3h1NQBsFSO850xrPTzDhV14whOe8Mq2F7ix0sks1s+28CI3AGwWIzwPrFAcHpVVtharPIQnPOFlm/d9YFvQiazWz7bwIjUAbBcjvOd4wMioPLCisAtPeMITXtk2Al8MOpHl+tkGHkRoANguRnh9eCOjMi0o7MITnvCEV7YicC2w03+iBernpvLK1hbmItvFCC+QNyoK04LCLjzhCU94Xns/MMd/sEXq56bxPMzaPQAVdhWyRozwKvIOC8u0pLALT3jCEx6YpWs/gPn238taqH5uCs/DBGr0AFTaT9gWMcKryhsThmlBYRee8IQnvLLtBN4A/NV/osXq59R5JWb5pV9D7R6AoPNWiBFeTd7oWkwLCrvwhCc84ZUtD5yJBP+kgz9gVgBuq3KxvPlnmze2GtOCwi484QlPeACrgE8Afwg6aUl9mnVerzf/sqkKNzilc97zNTcWyLBzWpHXBQwMOtFilYfwhCe8bPJWAF8DbsBMXe5jFtWnWeZ53/w1nl1/2wJuKAd/r0nwzxZvJBL8hSc84dnH2wP8BfgZMK8ay6L6NMu88gD+nvu9rLaAG7ymAdciMcILxwvs/m+BykN4whNe9njPALdjvu3fBuyvxbKsPs0qzz97T+fzna73QJvvBv8TlOCfTd44/4EMVx7CE57wssXbrJS603Xd+cBc4H58356rmYX1aZZ53jd/139tpUGAOuhiC8QIL5z16gHIWOUhPOEJLxu8LuBxx3EeVUo9pJR6cNCggfdefPEFG2it+jTrPJ3PdxaDrm/z3NRjEvwzzzuq/A+LKw/hCU949vI0sAV4GrMe/1PABmAtsBp4cvToURumTDlLporbz6sYz4NaCo2sLpRF57Qi72hoqcpIeMITXnWeBvZhvq/vL/17n+fYXsdx9mO21t2rFLuB3cWiuxOz+M52YEfp9zZgK1UCh+X1n/CMaWoM4O91gwT/1uAB41uschOe8FqVtx/zpl3+2Q5sdxxnt1JqN7CzFKz3lIL1HkwQ3+f5vR84UOkP2F5fCS8xXs3Ze4oGLcPOaVnenDnzFmvNRd7jLVJZCk94WeIdwCxy8ySm63wdpht9I7AJ2Azs9t6XhfpFeK3DC7UbYFbECK+HN8F7PCOVpfCEl1VeQSm1ErhPKR5wXf0Q8DAm4IceT5Wh+kV4LcKruwFgoxjh0bZ69doBWj83DdDCylJ4wss6byewIJdzFuVyuSVjxoy+97TTTinPbbeqPhCe8KpZXQ0AW8UID556avN4Sks/WlJZCk94WedpYDnwN+D2ESOGL7vwwvOCPp9aVx8IT3jVLHIDwGYxwoNCoTARWqryFZ7wmsVbBvwWuBnTnZ+5+kB4wqtmkRoAtosRHriuO6lFKl/hCa8ZvJ3Ab4AfAw96T2SxPhCe8KpZ6AaA7WKEZ6xYLE6IyiqbBZWv8ITXLN464BuYTWr2+E9mtT4QnvCqWagGgO1ihPccDzguKg+aXvkKT3jN4j0FfB74OdAddEGW6wPhCa8Ks3YDoMKuQtaIEV4f3uSozBaqzIUnvLC8A8B1wPWYxXQCrQXqA+EJL4gJ1GgAeIK/v0RZIUZ4gbwTojBbpDIXnvCi8PLA24A11VgtUh8IT3heZnnvBg2l6WJVTDZ6yBZvJDAmLLNFKnPhCS8sbx/wLuB5SPAXXj/ilZi94nk+36nbqlwsb/7Z44V++2+Bylx4wovCWwm8AlhRi9VC9YHwhFfm9XrzL5tT4Qb/cW2ZGOEF804Kw2yBylx4wovCuw24EAn+wuufvD7xvMxyAm5w6PvmX3NXoQw7p5V4J9ZitkBlLjzhReH9DHgxZn5/VbOg/ApPeHHz+vTke1lOwA1e00jwzxLvlGrMFqjMhSe8KLxvA28FirVYlpRf4QkvTp5/9p7O5zt7bU7l+G7wlyjXIjHCq807tdKJFqjMhSe8KLzvAx8Mw7Ko/ApPeHHy/G/+fXamrDQIUAdd3GLOaTVeG3B80IkWqMyFJ7wovD8A7w3Dsqj8Ck94SfF0Pt8Z2AvmeG7qMQn+meSdAAz0H2yBylx4wovCuxt4A77RzkFmWfkVnvCS4lWM50EthUZWF8qic1qFd7r/QAtU5sITXhTeFuBKzCp/Vc3C8is84cXNqzmGr8/CAFH/cIad02q8M7z/aYHKXHjCi8p7I7ChFsvS8is84cXNqzmAX9GgZdg5rca7BXgptExlLjzhReH9CHhnLZbF5Vd4wkud11ADwDYx/Zy3Gji2RSpz4QkvCm8jZgbMrmosy8uv8ISXOi8X5qKsiOnPPKXUU47jDMXsBtjzaSeDlbnwhBeV9zZgeTWW7eVXeMJrBq+uHgBbxQgPli6954h9+/a/Wmv3KtfV50Zlla2FgoPwWpu3CLi0GitL5Vd4wkuTF7kBYLMY4fXhnQxcA1wFHBOW2ULBQXitz7sU0wgItIyXX+EJL1FepAaA7WKEV5GngBnAtcArgRGVmC0WHITX2rz/AJdVOtlC5Vd4wktki+DQDQDbxQgvNG8I8DJMz8BleMaBtFhwEF7r82YBc4NOWFTehCc863hlC9UAsF2M8OrmHQm8DrhWKXWO/2TGg4PwWpt3H3BO0AmLy5vwhNd0nodZuwFQaUtBW8QILx7eggVLTi0Uuq/SWr9ea8ZnPDgIr/V5bwN+6j+YlfImPOE1g+dhAjUaABL8+x9vy5atzv33PzRNa3018ApgeBSmJcFBeK3N2wuMBfZ4D2axvAlPeGnxSszyFHENvqWAAyzovBVihJcM77DDxhzUWucxy6oeCVwN/IsQe6pbEhyE1/q8PyPBX3jCi8rss/R/W5WL5c1fePuAG0s/44DXYwYPnuW/0aLgILzW5/3e+58WKm/CE15SvF5v/mVTFW5wSue852tuLJBh5wgv+sZD12IaBEdZFhyE19q8XcBhQDdYWz6EJzybeN43f41n118n4IZy8PeaBH/hee1B4KOjR486pq2t7YVKqd9ivssCLRVshGcf719I8Bee8MLy+vTke1kq4Ab/m79rkRjhWcq7//4Hh2/btuOlxWLxKsz87FrjS/qYhcFGePbx3gz8ImvlQ3jCawLPu9dP+c3f9V6nfDco33EJ/sKrhzce83ngWuD0MExLg43w7OMd09HRvoFslw/hCS8tXvl+nc939hnIXakBgL+lYIkY4WWPdzZm4ODrMVO3+pjFwUZ4dvFWd3S0H0drlQ/hCS9JXvnNP3AWl+O5qcck+AsvRt59wIeBo4EXAL/FzC4ArA42wrOPt4jm52fhCS9rvIrx3P+dVkvwF15CvCJwO2ZnwrFK8SbHcebiy5wWBRvhWcbL5XL3BBxulfIhPOHFzdPUGMDf64YGlxbMmnOE1zzeHkrrCyxefNeErq6u17mue5XW+pSorLLZHryE1zgvl3Pu9R22JT8LT3g28mrO3lM0aBl2jvDs452DGTj4OuCIsMwsBC/hNczThx02esxZZ51RXgEwC/lZeMKzmtdQA8A2McJrGV4bZqvia4GXAoMrMTMSvITXIE8p1syaNePE0uGs5WfhCc9KXuS52jaLEV7L8ArAP4HXYvYjeAswD/8ylhkJXsKLg6dWlv6RxfwsPOFZyaurAWCrGOG1JG8X8HOgHZgEfBJ4NFvBS3gx8J6kNfKz8IRnDS/yJwCbxQiv//Dmz198XqFQuEpr/WrgcMuDl/Aa5/0X8M2orKzkZ+EJrxm8SA0A28UIr//x1q5dl3viidWXaa2vBl4CDIrCzGgw7I+8V2C2AQ5tWczPwhNeWjyI8AnAdjHC65+8iROP6dJa3wq8GrPS4NuBBfjGCwRZhoNhf+RtjMLKan4WnvDS4JUtVA+A7WKEJ7wAmwRcjVmG+AT/yYwHw/7ImwisC8OyJP8JT3hW8jzM2g0Az65C/mutECM84YWwCzFTCl8DjGmBYNgfeUOB/bVYluY/4QnPCp6HCdRoAEjwF14r8YYMGTywu7twheu612itXwgMhEwGw/7G249pAFQ12/Of8ITXTF6JWf7sr6kA91rQGAErxAhPeHXwNPA34G/33HPvqN2797yyWCy+HrgkKg9aJrhmgbe9Fisj+U94wmsKr8TsFc/z+U6tqlzsffMv/7ZCjPCEFzPvOJ4bL3BcGGYLBdcs8FYCJ1c62QL5T3jCS5rX680fs/FfcAOg1FJQ9O76r7mxQIadIzzhlW0qpiHwGmBUELPFgmsWeMuBc4NOWJBfhCc823neN39NKfhDQBe/J/h7TYK/8PoLbzHwLsyUwlcAtwAHyyctCIb9kbcv6KAl+UV4wrOZ12cMn5flBNzgNY0Ef+H1T95BzMIzLwfGAe9xHLXUf1ELBNcs8Lr8ByzML8ITnm28nO+wzuc7Xe8B5bvB/83ftUiM8ITXdN7ChXce39198CrX1VdprY+NyiqbRcE1C7x/AZeX/5Ol/CI84TWZ5/3mX/RfW6kBgL+lYIkY4QnPCt7KlY8X16/fOBWzvsCrgJFhmZYF1yzw/gm8CLKbX4QnvCbxyt/8i0HXO56bekyCv/CEV523fv1GF1iIWXp4LKYR8DeguxrTwuCaBZ6GbOcX4QmvibyK8dw/CFBL8Bee8CLzuoCbMZsRHQW8D7jbf6OlwTULvGKL5RfhCS8NXs0xfH0WBoj6hzPsHOEJLwneFuB7wAWYuetfBNZaHFyzwDuIPc9XeMLLCq/mAH5Fg5Zh5whPeKnw9uzZO2DZsvumFYvFq7TWrwAOsSi4Ws9zHOeGWbOmv9l32JrnKzzhZZWXq3VBlsQIT3g28gYOHMixxx6zdtKkiX/fv//At/fs2fsAMASYTIQtucH+YJ0ETym1aNKkibd7Dlv1fIUnvKzyIlU+tosRnvBs55122sl7tdY3AVcA44EPAsvCMLMQrJPgKcVOz2Grn6/whJclXl0NAFvFCE94GeM9A3wbOA84FbgOWB/EzEqwToantlfwXyhrofwiPOHFyovcALBZjPCEl2HeI8AngInALOCXwG7IWrBOhLeF7D9f4QnPOl6kQYC2ixGe8FqJN2DAgKGu616ptb5aa91BacyO5cE6dh7wQq31bVFZtj9f4QmvmTyI0ACwXYzwhNfKvDvvvHvs/v0HXlMsFl8PnBOVB9kM/iXe2cD9UVhZe77CE16avLKFagDYLkZ4wutnvNMxWxZfhRlIWNMyHPwBjsSMl4jLf5FMeMJrJZ6HWbsBULowF3CtFWKEJ7x+zHMw4wWuAa4EhgcxMx78u4DBCflPeMLrVzwPE6jRAJDgLzzhZYY3DLN18TXAbErjBTIe/AGeAE5IwX/CE15L80rM8sB/DbVnAQSdt0KM8IQnvF62F7gBeD4wAfioUupB/0UZC/4Aa8OwLHwewhOeNbwSs8/S/21VLpY3f+EJL5u8zZj1Bb69YMGSM7q7u6/WWr9Waz0uKqtsTexJWNME/wlPeK3G6/XmXzZV4QandM57vubGAhl2jvCE19K8pUvv0bt375kFXIv5VDA0LLPJnxH+G/hKs/0nPOFlmOd989eYXX+DPwF4gr/XJPgLT3gZ5u3evacA/Bu4GjOq/g1Anip7hUPTgz/Akzb4T3jCyyivT0++l6UCbvC/+bsWiRGe8IQXL288ZjrhNZjphT1mQfCHCmsAWOQ/4QnPVp53s7/ym3+vBr/y3aB8xyX4C094/Yd3DqYh8Hql1JH+k00I/hoztXFfRvwnPOHZxivfr/P5zqL/2kqDAPu0FCwRIzzhCS853r0dHe33bdy46f898cSTzysW3au01i8BhjRp9sAGJPgLT3iN8gKDP+ULvQsDAEjwF57w+i9v/PhxxfHjx90O3L58+f3Dt2/f/jJMz0A7EfcPafAzwiNZ9J/whGcZr2I89w8ClDd/4QlPeD02ZcpZO7TmF5gVBycC/w9fYK5kMYwh6Pk7WfWf8ITXRJ6mxgD+PgsDRP3DGXaO8IQnvGi89cCXgVOB8zBrDQSu0R/TAMIVLeY/4QkvTV7N2XuRuvNazDnCE57wGue1YVYfvAZ4KTA4xtkDUzs62u+0TK/whNcyvFpLAWdKjPCEJ7zUeQXgH8Brc7ncuFwu9w6l1Hw8K47VO4Awl8s9bKFe4QmvZXh19wDYKEZ4whOeHbzFi5cec+BA1+td170KOCkqD1jb0dEetAmQlXqFJ7ws8urqAQhYZABMiz+uRQuEJzzhZZg3deqFa2fNmv6/wMnAhcD3gC1hmY6jHsqSXuEJL4u8yA0A3x/Xnp9GlgsWnvCE17q8u4D3AUdhxgncDHRVYpoxBOqBDOsVnvAywYvUACj98T5TBxsUIzzhCa9/8LqBW4FXAWOBdwAL8YwXKA8gVErd1wJ6hSc8a3lQeSXAStZnS8FKKwwJT3jCE14V2wH8uPQzCbhaKXUNcAKA4zj3U2UFswzqFZ7wbOOFHwTY0XeXwLoXDRKe8IQnvCDe3LkLLnRd9zVnnnn6f91//4N1V25Z0Ss84TWJpyBkA6D0x3tZDGKEJzzhCU94whNeuryeuF/zE4D34pLper83CE94whOe8IQnvKbyFKXPCCrExb0sZjHCE57whCc84QkvZV4+36lDDwJs5A8LT3jCE57whCc8u3j/H0tDFVAGiG4kAAAAJXRFWHRkYXRlOmNyZWF0ZQAyMDE5LTA1LTA4VDA3OjI0OjMwLTA1OjAw2ncE1QAAACV0RVh0ZGF0ZTptb2RpZnkAMjAxOS0wNS0wOFQwNzoyNDozMC0wNTowMKsqvGkAAAAASUVORK5CYII=;clipPath=inset(0% 8.67% 0.67% 8.67%);" vertex="1" parent="1">
          <mxGeometry x="30" y="40" width="166.44295302013424" height="200" as="geometry" />
        </mxCell>
        <mxCell id="haDdtKFeIpYZxnQrOWUY-2" value="" style="shape=image;verticalLabelPosition=bottom;labelBackgroundColor=default;verticalAlign=top;aspect=fixed;imageAspect=0;image=data:image/png,iVBORw0KGgoAAAANSUhEUgAAAWgAAAFTCAYAAAAUWJa7AABXA0lEQVR4Xu19e5BmxXXfLLC8hsc+YGbQziAnix17gWVhBRiRPxxpASF7808oO+WKzFPKFrHl+B9jiZVDIj+q7CpLPLRFlWRLKpWFwKScCrYwBlelKiywiF1ZC6hSiUksZgZmVlqwJGNZBmZyflenP/q79/S93X3f9zu36qt5fH378fv1Od19+vTpqSl9FAFFQBFQBBQBRUARUAQUAUVAEVAEFAFFQBFQBBQBRUARUAQUAUVAEVAEFAFFQBFQBBQBRUARUAQUAUVAEVAEFAFFQBFQBBQBRUARUAQUAUVAEVAEFAFFQBFQBBQBRUARUAQUAUVAEVAEFAFFQBFQBBQBRUARUAQUAUVAEVAEFAFFQBFQBBQBRUARUAQUAUVAEVAEFAFFQBFQBOpEYEOdmXcx7zfeeGOszdPT0+uvvfbaKVTXNfq8vWXLFvzUp6cIgF9wiuqb3y1+3yJ+k+/0GQ4CFr9rxO/bw2nZBLaEhPZk0+w333xz4gaooVNO/J5qeFV+h8c28YvJ1MQ8g1JQRN5pL7744o8fOXLk8qNHj15y+PDh9ywtLS2AzeXl5W02q9u2bVvG3/Pz84u7d+9+bufOnd+g/y3u2LHjm9u3b1+y09IIfaKOzO3LBPP7E8Tve4jfXcTvbk9+D1v8vijwexLx+1b7LZzsGmBwJfkFv2XkF/wmsm0ekt+NxO+bk41uS61/9tlnd9511113XnnllU9RFWCewAfL2NjPGinql2+//fZ7H3nkkeugFFpqmhZLCNTE7yLz+wHi93QFuj0EiN+LK5bfdZbfe1h+ld+m6X3ppZfeRQJ2N4ioQCHnKnLMqiHM1JEubbqdk1qexe+i8ju8XsD8fprlN3Yi5fMeJltGfncND8mOtYhGxD00Uz5Yt9C6Zt+Ypauirq9TEL/XdIDfy+pr4WTn3BF+VVFX3Q2J2PdHCK4xdySjqPSJVfSoiyrq6liOHHhtfl/GbMz6JHyX5FcFuSKKK+AXfBp+R7IcadJcY/lVfsvyi6XQDTfc8ICnoCWKmNI/eP/9998K2yXez6sDbR6cQWm2UQe6Fu/g3RDSkZ7y2Fy2nZP2Ptl9T0CbgX0Jfi/B+578Xsf8PqT8NtfbiJ/5kvzOF/A7DRlX+W2O01FJtHHwcQ/FnGzoIS06Q1XVNBsXvjYyEv7bqip7UvIhzvYH8Hsn8Zt441Tx8Mbjfp5lF9ky14jfD1dR7iTlEcFvlfILx4EQfm+dJG5KtRWzWhp1v0KZ5AnOGkbmKpWyq9IQZp9ZAGbT5Hd7UqnGT8DLxO/ZAfxWppQL+EV/y/X+oTo/pPwWd9BAfitTyh785g7Eym8xt1OwNRfMWtfIo+LTRaYLj6KCk5id5zxBRt0x+w7OfEJewCaRB793F5ku6oCLyjwPfcuD30vqKH8IecLU4MFvW/K7DZ5fym9kT4NyzgOPDfutKz8oaqrLkzkz/DUookgYBvsahDeHX7Nxs7NtAKCoPfi9ru16dq18T367IL/b2OHANaOG/KKv6mMQIBvfTXnCS9/f2DW0sDNdUGe1azFpxN8tBViB/049HvzqvoM/vze3TS6ZXsZOTXvwq/IL0vKUM2YybSx3fTsTkT6dM9vC5hIU00Q/hAGEU7TvYibTxD5CLAEF/K7r5nAiv+jj4my0B/yexvIr9s+J55dGsfc5hDexNccKVtPvUV0/5eikE62kc2Yp4Bf2wF48zK8KcYotNuWJuCi/veja7krSZtpFLuVMLjK/0bfmUZ3vcLUHMQH61p6y9YX3i2vmjNgLZfNv+v0Cfj/QdH3aLm+C+F0n+Z0sftkLQxp5MePsnL3ZVxio7h9yKelJOtDCZgsXv701+yi/P5KEHH5h9lF+fRVGV9M5dlF7rZwN1o6ZFrwUEG1v8A/5Cp/g2iXHab6+A+CaSSu/U71WzgXyuz4p/E6xbSq9qdArm3ORknHZpPl0VdHrvf6e2n4PNSCzacT/73XbTOVz+P3EIBqY0wiH/K5PAL9rJL/D5pfsVhdKJgA6xfPloXVsh3fHGmGwa2htNe3hQzoZ0wafHBxUs5XfdwZh5XcgXVta+uLkEQXPOXEgTRw1g2zOp0unqoa8VMrh99QB8nua8juVBMfHTSgD5PfkieLX4Q+LGSW8OQb5ONwIBxl8J4ff1k8H1tW5iN9/JawIh8xvxjQ55NAGDn5ha/9IXX2qlXzh8C+ZNvrkKwngcDdhKIAOe+Wgbg7P4ffeULzaTE/tCA52NSH8nuGQX+w3DPqZBH6n2O81M/rGLo3ovY2wZ+MUIj6YheN/VfYUciWaw0ELfMoEZ3IoL8yyBjMKO0LDrsXe94eb1zEzg8sWPvC5tW9jr4JnE0cYcRfKnFYlfnFnZdruPkR+JfmNuu+PMDu5Cg6byAMXzkqD02BC0JJgnSTZcnhJHIxxztFhCMVNwRmmXsiJG4H8o2IKSMfZORZx2eq2/j6C7zv4jXKpY1c88ehwFT62BfnH1hn9bqzOE8BvKX9nTKqaOLAE2UMALF4BR03iWH4Hya85qz82w2CBDlIu5F+7gTahnk4LQvpvbFQhpnRQ5pSY/Xfhq5wbN5bzh8nG+3EMUlD4vQ+4Iw2YMcopEP8Yfk/kDVoffoPyxya3MEgNwhbN/FaqnLBiMRc+12nm5BPJuNTjW9i09xZYIaFjEtL/VbAkFDH+wHwdlTNEoK1YOW0QHwjYXaSczfccwD8of2lmPgSPDslzI8ZftIDfMd4j+cV1ZkW3pyTfh7iNmShpA+Y3M2mJkV8jLDD5GeXMfNQSl8UoZzZPJEoaZssgobUSS0GheMIYm2X77zn8YteIpLNCasdBWbyEywhhyKk1jv8akn+sOSVjq6zyKqcQTKtI6/BrB79B9zQ2wC/ic+femJJW3pHmlKHxCw+rjO2Z+N0U239IUf4/ozTtn1XOpEk5fyzFd8ILlf23sfXm9yR+a78VpmSds68bbwfpVFnI7MTkLJk2MAqbTST6fSndkUJGN2mWz/nfDPuTwx/yoC9wZlNEOIXVy9NJ1J7k0lfpVFkkv8AyvYwGv8D/5rL+qC7/7Kryz+vvMasJ335VdzqH/GIlEv1YEQ5Ht7IbRV1FBEtBOZt+hUnVL6Hi8NYxfTikIVJ/L7OaCCm7lrSCYoXfc5BfLAF5ijD7GfMQ4IMu9uiWkJ/nJWKEKrULb/JYo5nt+QYU+v1cYURG/tjB936k8Iwx9lrvAmtOKAxs4DfoSihPfnEQIjN7Ibt1odujlD8wt1cu9PusI/9kIPJ9pFtFUBb2T3zz6FI6aWJUxUlYQZ6gRBOZZY8gbxiMiQkv5FxphX75k96ZOhJK4XMxeeglv5J7WczmIMjEe+joUAj4XRppQQ6neRodi4VwpGRd5EA4Of+XMdPKyf9T+A5pOB1sWttCSHdtFppd5pC82k4ruZfFDDbU9pm0cpRszMJFs2ODaA6/Uv7Yb5iCBwo++N2Rf1X8vqttvkLLr4pfzFRxnR3MnfDcgFkMM1i2EUtmRSjp4HC0rhghrPTvoH62lT7noHyuR/ABOYfHEvph7/jFBbCIoTo264lZ/oZ2rJD09ugrvYfOFbMUyquDpAj6eIehNFuM2byTZlM0AB5KYyitxnz2MqTZMeX1jJB/ejMMtnRvbw5jxhI2O3HHXe/igTv4/ZMQ+UJaUoY7UnrANm04N/1DlDTPuvP2kEyZdpqgU8xmxe2Q397xi+XGfUTMGCAhG3ehHaEv6QW3tLUYr5C22yvYJ6MPZ0g2Ztt2Kx10Cpmte+S/P9VXkxgTIRiTACc+ttzHOz0x8WkX8YtToGNKL+ZwlaCgfTfjMUAWusY5zCU+ZWDm671CMhM1ye2QPcB8YO1OmtgZT3daUE9N2NVnzF7Om1j1FFhTrpL9OdR7w1SNByhxuSttAENxsALJbZ0RKmHWMzZxSCsizPhiw2ey0I8p6D66U1bFLynon0qvpAW8Re59VjBNKWjT0QT57WesaJ7hpAWhJnXRu2xLH9xpu8VV8ptzw45zCRxyjLzu/AUulF8GhTfnfMwaY7oiZFXJ4Yp93ShtR4BY23Fj/AYHh/FRDNgg3LJly9jyAXa/Q4cypkWf7AaXBqsLwuK9pmHLy8vz2Czbvn37sT40lvg9tUp+qd2vwOa5d+/ev6T2F3k8JHfETU9P/4MvVnXnn64H9/WrUvzOUj1WfevcZjpsEAr8UpcNl9+tW7d+Gwp0Zmbm2zltsjnfcP311/859wUvGB5++OFfJNPDY0ePHr2UX4Cydz1JWceOHZvdvHnzca8CUokc/J5L/Oa1Maaoet5hV6u0Ha6U/2Q9NW02V2vJ/QCVnN6wwGUGvXikC39jNgjTjcVmaeqU2RhGmLWHuvHZZcBNKif/xO5cJn9rIyl9ajFoQ6rtTiBdCEv8Bm8Qtt2OusqXNgr50FblRQb5eQaWPjYTuuiii54PfH9wyWlWkoQZpdlEZia1uroau9zqBE5V8Euzpseff/75Hdhog8KH/RkfbMJgg4pWGgtXXHHFN2IbTPk/Qfn/C0f+t1H+55fJn/h9m/nNrISI3yRgT18f4vdoX+tedb1JftP8bqiL31pMHFTZ6DPvVYPZxfwkBd3FerrqVCe/pOT+nsr9PH+SKtASNvlU8VD+P6gzf9cAXEXdm8qjTn6bakOd5TQpv3XOoMcwmpubW6kTtD7lTVi8kq4v7NA9akPGTkxterVH9a+1qgK/G3rGbwYf5fcdSJqU31oUdN87Y63S+07m6Y2Mos2xhqpVXIzyW4xRn1Mov91hrxYFzb6r3Wllx2qysrICe3NvFHIavpBDIh2DvpHqEL+9tjer/OZ3kyb5rcUGTc0zu+8jJUSNCrJL4wQSDO+zs7MrxiZ29dVX/w+zEdOIpDkKgbcB6sXtnCJXou+Qi00pE07PhCLjxtRkp22T+8iy4SGCiIt9eZTfMKZq47cWBc3Ka6yJ8Dv0aTNclaCEf+/3fm8/bQz9W/sdjlnxVz751JUGrlrkDfCYNQM2Ad5/0bdMwiJosPLNt6l0Zfhtqo5tluPb19usY17ZxG9mP6GqNsHV1HgzxbbfHKunfN5EtEL6+UOOWrhOv/8T4qLwT+g3/O9tvIP0sWXa71WFhU9dajFxmJllTKPMDHnPnj04tIAHs3AzE2/dLABXrzSwoS5mEsE7dux40YewjqTJzLBMmxCprCN1bK0aA+c36l4/Q0ZZ5Yx8oGiNsoVy5v/9EEqZfzc/3zL6xFbOZfuog98XWutwoQVXEaoQIQqp3NGxTPzOIQpDq1NpeuEG6+DbVYTgPWu4k6/SitaYGc9W0sddF2ssspGsMcuC8JoDJ7GFSsfg+xQzuE5+OSwwAlGlA/b7BDgaBd8X3s9cAGCnMWGEOXZ8LLXJew75bX3yGNQoRyMKA6ybQoTTap2I+uYIJ4krlUKexs7yh1QqJG1ZfkPK6mHaofJbanXEAah8Y2aEKGzvtFXc2mJNHJNyQyMfdqI/C9cMBd+2kQaC/26tfdLKAHVC7BHfSjmiYXlfn+VbTt3pHPzuqrvcuvInDs/EHoe5BosE+VMxl4zy5QtDiFaYvoYM8mtiXUTRIA3q1izXW8lCKQZ+RrNrqsO3oirPLzUtv7UtqyngyVcZxBEeX/3qV/eGgCPdK9hmcPuDBw9ena4/wjKSfesN33Z96UtfuoXS2suhdcLqUd/3u5IOAW1SddlA/P5cV+pXVA9EuIMyNgMNcfg9BOjZt2/fH+Fz4MCBXz1+/LjXxrZdFvF7c4rfqZ7y+2cufmNtuPPz82kzmL2/lBfgqIjOou9NORuEOhS9O/b9UPjFTQoX8+g4Gu1C4+IKwe2Nx0QQqFUllswbVMcbQ/KX8qjinreQOlSRVrrRO5TfKuoRkgeCAFk20KJZGGaMu0LyR9oB8Zu+CQVxj58OxcNOL11Cyzoi135cMs0YzxyaNLoZQ+EXN+fiQtXMRZ/0/7N80WHTQSYPtk/7ZlNJOmnAQfv4SqWQMqIuPw0poIm0cGVy8HtmE+WHlIFQpjxTlq4+csacjlzSD4Vf2JtLyW+aI+lmnDpvxabJ04fSbajA0UDit5RtPqQvV5pWuu6eQLstpBDpNgzK98mQPKpIy2WOhb8MrYd0K3DXZ5152El2aOIXJpxOPAgdGqGYR54CoTNo6db2gfG7XubaOimMadlZeUH/hJ5Ih/XFDS9Rz9D4xf1sENZS1//QDBVBhDKjFps/ooAOfYnNGNJMHstA78cxYN3qnUHHEhIuN5Xlt44moc8EKOZkVm1ubMcuP1wp0XdxMUFI/RwDVt/5HVthlB1wpPsh+YJprLqD8M7jhvL8mXTfLLtB6JDfD4f0kU6l5TvFMoqNla53XR1XquO2ZPhK1/pItlYQTzP7Pw4pWNr9RT7kH9vP5RFV3mXGCrmMMwRDn7TWvoXLnWukkGET5durfbLOTTNQfkUzVqj82sBJslxW6UvEUJ7/M62g4ZkTS/QQ+U2wEIzqXhd+2kA6bNEY2bGRU9tNJDkXUsL2HBRgn/0v0xsWX4ntMF15TzJBxV64WqZN2AsouJsuUcy4bJbSZk6Dlikb7zK/6VuElN8UsK77IVlxl6UheZ9WQL+eVs6sK6LNGw757f8tMzRDuU4Ci5TuphA2JPst51vLTJrKe59Q72RQCPXcEHxjzeBySQgGXUzLM1BpM+nspuqLQZqXr9Ks2Sjmu+tQzGjjwPnFIaxK+XWtiNlkVqrbUB7/TpLbMpuDjkEFk8PLSlW2Ky9LV7jHzLKEY9aJosMH31V1nJby+phLOXMdgqDlG4rTtrzeHU5xNVqyzcXwGwQqJ7ZCAojKGTP8uhSzqe+E8ntvDF94h23NIl+hkx+7DpLXBn1vdERsdWEFwEposPI75ZpF865uEHCSMBgSsAFRZvMQwi5tYpj8Q66CN41y2bCrsn0GgVdTYtcsOobfkCo6Nm9HXhhlPA586yFdoIvBvc0DVb51903H/KbdEaP8xE2ZqVg7Y54WkLOQ07nIkyYEf+CaVCF0sW9b0+kc/OJmeVgGhvNIsyz+X3AjWVE6N4E4MMqnfIih2dUMzYrvyFHMyQiMZRkFWsGmSdAjuOfB4X8ws2cDRpX8+gAseZCYgRR1IQHf7JNP2TRNt7tsfWPfd7Sz1MGVPA4hc5BLyKerziSPG9l04fJvDzZHpsuaFH5xshD21owti53Xg/uNdMqQBXRk9kB57D71JDaQQCZ2cvE7FCcr5aLDC+godwZXkF7Icc/DKctBPTn87q+6oTncJwG1mooM6KgHZpaTwu962YMmeeZE1hdrkFVJfs33gl5JdEAZuzP6rKufhfrHV93/a8vPddQzdjmI9ywlO7ZMSpFnBgbXrFs6TZYod96cDMbEtfSNMZMEF97SCzn8XltVlRzmMiOQH6+qnKJ8pEMXmCAov0XIZb/P25AX5LhwQoV3SLn+UnhN3nnDcXIY/D5YJt9Ov0tLEun4dxKur4zvLM9wi4grir0wsl2a0TfUDmbAp/dOZ6+CjN0u5Kh7p8kUKkf8niLNZpjfILdEqe2MnWtzCUGKGnkQ+c5hEkNkw8a8VxpprFUIm/gy+JeVXxQBTxjrcJGvrGbkC/7PPqbNPOxwfsM18Qv1Pmuao9LlScclIdQgJ8bGayrE9qiPp8wWIUo7mTHHhpm0gWG7c8acEzsbLw16gxk4NgwTuzsP0NG1cbnSNbEZmOIXewgSv6FxwaOxaOtFh/wafjFAl3pSq2If+R0dPKrCTQ+VdwwUg9r4zSWJ/SAzHRzAVOEqh9EYti2Hsjak2yfKvDYUfXqeYwMz2WT0eX8IaRymjkSIiV/vSxvSWLC9c6zflLWBhuItuVxBWSu/U4bfSm4WgYkQh0PyZNhyBriQBv9KynU5IDTlNhraH2tLL3k3oKNDAHipXFnZ8LvEbjCWPnDvwU+cEsQVR5UVQhm5lDMrptpib1fZhqrykna/Ke8kXGwZfjnOxlMmr6rq65OPSzmXHXh8yu5amhx+HyzDr9ROS34vxCoUrqt53h2xWBXIb/TEIrY+rb4He6LLtY3dpM5qtYKBhbuWRViW9zneRiAMo+Q5dtpkplXWFo+oiLD1x9Yv5D3M+oXDVon9E314Qvk1dtqMvZj57VzYWRfnWLW77N+Tym+CFQKQuDZb8P824j6HCC63gaq6zVyCOeZJgv8PedOoCCsckS3gt/PuaNSGd7smEszvpiIchvp9Dr/JwNUT+TV9NGNynXR+k37LcRSg4DI7svQ/uMs0tjsfKkhSOFVuR7LhWMYzJbQuXUtPA1Ni0oGQ5hwC6jq/CBUqumYyvwiFO9FPjvyauDWdiQ+eJso6KOPyTJl4fotm0gnJHE9hW5uSQApntAkBNxyHPXK07B28O04AGdi0zVPSzG9pN7yAKuUmxarHg99GTipW1aY688lZCXdGfu32wzSWE/kwmVyp/KZ6DJZLro0HnsUkJ/poA6KyoN4xndYRsGk0+4etkurYiG00pv5Nv2MGtgJ+RwdNOsAvTj46DzQpv3IPsvyYXT7MRn5Lu+KV6cPWyUXRn57dQVV+JZBJOE/KmbnY/o613lJhz5ZRT4y4UMw5s0ATr+OeMp1n6O8SvyfmzUyhGIFx09dmYUMTg38Bv8FxzIfOZ7p9xO8JPnFyWuD3VBz79pDfiXGFLdU3c2y7ozgbBPZiXcHXTeVx3NPy2c47Jj45TuylmP3Ry4H8nl9BkWIWzC8G1aIDEeB3WNHL6gL1R/xi38gZzMwMxA3I7w6+RcU++yCGdZiEQ2SVUo5YBy7XJipoDGQoaxxY4IA90fWAvyVOMnnMlkfHwjFjmOTNwFiwwVUgv59AkJoyB5lwdB+CaPFbGJuF7eO6WRRItCW/hRiz/Bp+o88LsPyCX/uQWt6x8SS4Vpflt5LTN4HcBSXHzGXfvn2fW15e9hYSEvxnFhYWFvfs2fMYkb80Ozu7snXr1m9v3rz5dXo2HT9+/FyqxIbV1dXZw4cPX/7CCy/sXFxcXDh06NBP4/8+FUSnwhHjvXv3Pu6TXtP8CAGYj7Zs2QKhSZ5Ifg/l8Hs28ztF/M4J/KLYQo7Rb+BrTfw+ptzFIxDBL/zkwe9SSn6/Q/L7miW/4FflN56aat+EsEAppmfPTf/Noz02K4NjQ1eLyLByq4DfomWsVwAe5beefoXJTEfk92WsoBC7p56WTniuFQiyl6CmFT/PmG9RxVxvB1R+68W37dw7wG+rXiRt499Y+bBxYZOh7hk0yqCyLm2sYVpQggBs1IT9fQ3xu0thbxYB5rdu+U1ucS+7N9UsMgMsDbvxWLbwplPRjnzRpsFDNMp/WJVyNzoKNgUxGGMTuAJ+EaxJ+e0GtaNaML93VsAvNv3A721DufWkcLOkY1wWVge+mCsrK1too2j2yJEjVx49ejSZ/R47dmwWG4HYfMDfMzMzq/Q5Njc3t3LZZZcdvvDCC785PT39g8ICNEHtCKQ3Eu0Cmd+tFr/J7Ffg9xg4Vn5rp6vSApjfc4jfGZLfK0h+Db9zLL/Yh9pgye+rJL/Pkfz+L5XfSqnQzBQBRUARUAQUAUVAEVAEFAFFQBFQBBQBRUARUAQUAUVAEVAEFAFFQBFQBBQBRUARUAQUAUVAEVAEFAFFQBFQBBQBRUARUAQUAUVAEVAEFAFFQBFQBBQBRUARUAQUAUVAEVAEFAFFQBFQBBQBRUARUAQUAUVAEVAEFAFFQBFQBBQBRUARUAQUAUVAEVAEFAFFQBFQBBQBRUARUAQUAUVAEVAEFAFFQBFQBBQBRUARUAQUAUVAEVAEFAFFQBFQBBQBRUARUAQUAUVAEVAEFAFFQBFQBBQBRUARUAQUAUVAEVAEFAFFQBFQBBQBRUARUAQUAUVAEVAEFAFFQBFQBBQBRUARUAQUAUVAEVAEFAFFQBFQBBQBRUARUAQUAUVAEVAEFAFFQBFQBBQBRUARUAQUAUVAEVAEFAFFQBFQBBQBRUARUAQUAUVAEVAEFAFFQBFQBBQBRWBqasOQQXjppZfOO378+Dmrq6vncTuT9s7Ozq7i59atW1/bvHnzd7ds2fLdIeMw1LYJ/KKpG4jflRS/3xsqBkNul8XvnNVOm9/jJL/fI/n9/lBxGISCfuONN05aWVmZefzxxz/wxBNPXLu4uHj+0tLS/PLy8rxNrIvEbdu2Lc3Pzy8vLCws3XjjjX949dVXP02k/91QSe9bu4jfE5nf64nf64jfBeJ3gfjdBoVc1B7ltwihdr938Av5XfCpGfO7lJJfnXT5gFdnmkceeeTaG2644StE0MtUzhp/1uln6Q/luXj77bff9+yzz15mt+G11147sc42ad7vIGDxu1glt+gfEGrm99IUv4UKXzmqBoEUv6Vl1pZ7S37H+K2m5pqLEwFSkGfedddd+0FA1ULrUuwoi8r8BC25zldq6kWA+D3D4rdSofXg12vGVi8Cw86d+b2T5Vf5HQrdROxZNOO5p+qZcuhsm+pwLynqdw8F1660I8VvI4Ircc/86kBcccfAxMqS3zb5vYfktzcDceeXcxDc/fv3//aBAwf+A/UZn/qC/OS58sorn9m9e/dzeG9mZmZ1bm7uVbJlJhsOx44dm8UH9sxDhw79tNUfvcqgznbg7rvv/tWNGze+XXFfHnx2xOkJZOOHSWoKgkv8/g7x+8sBDU84dvCbbAgTtzMl+J2C+YP4/TXi962AemnSH3G6gfhNOGL5/S3i91cCwCnid70C+f2M8hvAiEkK4TW/33///bfR7xDkvBE3sT2zzeke2LXefPPNk0KLxtKLbWIPBphP1qiOt4aWNcnpI/gF94bfe4mj60rwew3tWSi/NXZAKGdLfiEbRfJr8wv5rYJfsydVNFNX+Y3pC1iC0OzoqQLFjI0e2IbvpPS2t0ZMkZl3aHNwJ5Zk1gakk2zUlTrm5koKnoBMlN9hkwx57Jn8HlT59eyTNIJ+oGjUBfkYaT2zLJ0MM2sq82BRvZqsU+lGtZRBR/m9xoPfNeW3uNMwRrmz5hbkV/ktpq44BTwl8mbNTRObrjHNqi8pEmTM6ItbOpkpesDvTg9+908me8WthvdNx+VX+S2mUU6BTZkccmEruiU276rf47o4/a55t7rqYnudH7wjCvjtjC3f4lc0a3Fbes1H1ZXvGb8382pYnOkrv1bvoA2fDbRx85BLeNm+u6nqDlU2Pzr9dCrV+wFXvXGApmwZfX7fbBb1mN/TCvh9sM/8lK17il9gIQ5mHZbfU4jfL7OiztQdm8llMRrE+3nKmZdMnW4n1fHjOUoaCnyinwHw+7EcIZ7oQRgdmxWZpJzX+mDuozrm8TvZSjpHeLEhc01fNBvVdY9LiGm5dHdf2lF1PQfE7/tz+MXhqYl8BsTv+5TfVBfO2TBag4tb33o81fkiF8l9mElUjfcA+b1Q+X2nlxTwe3HV/anu/FR+LYTZFSezLILPcR+Vs2kawiO6hBiuenV3sq7kz650Q+QXp1DFjSXlNwlABfntnXL2kN9erehL6QEc/XR08l7OnNNg5CjptToO1JQio4aXid+zB87vrKt9ym//Vr6C/LoG4YmQX8RPkE4IYoQazAzTZZOmtj9Zg07sVJauE2QD41e0SSu/neqK0ZWhvirapNlHPjrfzr/IsTUyS98h2mh5dzjdVvhz39R5oiIrSG37ML0q8Tu4wx0Tyi9i40w6v/ChHt5DfsOnSUvDIfsbsp9lRkmzGWRQJBO/pyi/ifLCUthcsTYYjpXf0cAEft81GGJNQxwuOWt0kCH4hhKyc260PifaEbS6BBzVa1pSWkM8aZjDb0xkwZMIO/MZRTfsEreoC9VRmnSsDdG1smJ+T7D4hfx2kmOq16kO+R2W6yzv7GaWRnUc3+6asqY23iiQPKgNB/a8aYTfrinpHH4HM8vKkd/OHM+vq19MAr84bZQ5ys2bSVG4YsMJJ/iQBwz3+L3Kgy1QOLCLc/5PIf8y7kO8eTSmwIY0i66J3zH8a+L3aeLmaeYXfuxRj8DvoGbR0mnBkvJ7jSW/iXxVya+LxNjJm0N+hzGLZtejjB02xt8ZQfVz4syu4bsy19nABTAvjm1s/g6vjjV2SYtSCl15ifDGzdpp3+Aol0ncrlKA/8EyrmzAu478iV/Jq2Mo/MKenlkdRcpvrfymZYLs5idBuZbdmM/hd1NX5DC6HlKUq5jRF6E+JXuQ0HmilAPlv8sz//WYzskuOnZHR6yC3ns38EpgTIA7ym+t/cfBL8Ln9vphe3or/Ja1TVuhY+HGC9e56EdaJfFpyug8O/Ei30gyRnCMT2zILcAok0bPk0MAiMg/aPOLTSRjM00uM6SanUtbIb9L0kxN+l9D/G4MAdvBL65e6vXj4Df4sowI+QrCPw2yNGDSTPqXYsmQjoIzNrFZtv8e25VKK6WcQOAmJnPm+G2IjTcvrgDPqkvlb5gQOjtGdtwg08tHMt3EDDoe/GaW2IH8ugLJVxrT28FvsDLrSmfgpf0Y9jXxm+HB8BtjNxaUc9KGsgeJBiO/ZmkibS7EHEqRRl8sveBvSp85KW5vyOjmyP9emoWfDv9PaZkXkj9cAiF03PaxDs8bbF2RSa96GKGpmd97wG0Ov4telaVEDn7vgW8+fTZWwG9yUaqD396GrOSY5mP9tUL5Bb+2/KYncsGrD8Qet8wapt5JvpBX45/OLn7Brn1SaOHenuOgjn+iNOLwppKvbE1RPgByjDwi4RlhSZM+Qg5XNpyrz32wkVAif8Rl8H6wyZkuK2ZG4l1gzQkd/AZd4FuS38IDIZQ/lGdt/ceGeAL4XY/cpE3jf0iQX9z5ObZHE3ogxDFzXuMJXGlpkM41hEzUYioQPIr4FvLiiy/uWF5eHhNWKNbt27cv++aBdCsrKxkluLCw8C18B+HDQIDf6X/eMyq7fEf+mdE7Nn+7rC1btvx9enAhjLZFdvoQGCtPSza5Cx38wpbs/eTh78tv3jKY8s8M0hKXNfMLT5dePcQv5HfBrjRcEkl+g/ilvj2TbjhhncgX85voIPpfOl8MrMnKpMjMwd4aBw8dOvReB8jrNPv9DZzs5c8D9POPqW5BEyyS3zeAgV0GZCB00tmJjiDd61bihFXGjk3LmbFNOmEZCzcnnPTyeQrt5CXzH9VB8nogrHrn8E91RkyCqny70/gvpU+YlsQ/nX9mkuDIHyfJgh6BX8RfGQq/uFcy5sngD3OEnZEDf5zELXzyribjPiqFiIW3V7Dvu2AO6yW/0lU40TFVJd9VzEQRVxoeITyqRbsCufKHax9c6hzfY0kW/LCL3liH6ZMdmga9ZMUi2SdjvHOQlwPfQxa/MGlVze8hcMH8YlYUnb/dCRz89s4O7eA3akNbMj3Q/8DvtSy/mQiXvq6aPEMXY3SnOU39PVLQRTP0FL+Zizl6aYcuMyKmtR7PQDI7+TkEBN2H5oqyV5A/7iKMfQpn7LEZ1/2eUdAOfmFjD34i+MWS1duHPCL/oP4jNLi3/Jq2SBurOEgUTC69UHRLuiRnhl9PX2hxhkz5Or10UKY5HexZht300huaMThW9o60MVPWmO5ynZHI5bRB7ck7YSbMrqJmzzmdH4T37alUCQXijxlX0BOYv/Kb2lgtu5kdKL9B/PJJQdvlNu/3kXcH9lGCOhEnljbHY/Jp7R3Jad93yeKqNHZQJaf5tPJER4ox2mN24JH/mu2uEwuwoCzgcdKbjSTu2Omd+SChSmPniT/cpcBvEogoZOYDDwtpVujoP4XeIXncO/gtlWdsX4t5DxuEPPscrVorkF/gj83B3JUw85s4F5jVmk8b4CwAcwc2/vjnufTzHOszQ+36KbQNtmf0YcofIXKDH+kQjI/HWHBBdb0g2eFCDhYIwpv4EVs+q+KSJrYM+EVy/sbnOb00Sv4usck51iRpoyHWflsXh3n5Sqeq+Eh/VHWMDRCnP5lD0aYYW4ZR5Jw/gty48q/khm5po7CJYEBR4AsvSQNwrGyxok02BK0zBZLpAfIVuwlZVdO98nHI7x6vlwMTBR1XDsx7bJd2ZmbmWOD7dvK3cNhjenr6Tfrnr9LvHzt48OC/PHz48BVItHv37q9dffXVT5EbzPdjyqD33sJ7lP8PkT+Nhr/7zW9+86JHH310L/294frrr/+zHTt2PE8uRq/G5J9+h7BYrSKflvNI8xvdJsIfsyrg/0/046PE728wv5cDf+b3INwUY9pM7yUmJM7f8Huxxe8jFfMr9fWkjT15xrhFncvIr8VvIl/E753E71WW/D5XRn6bxrRJ+a1FQa+urmaWc3Nzc9HKDQQTqfhspN/fpM8/ECl/yZ/K+SFFvEKZ4vMEMj9w4EDVZaSFFQLRGwEmfjO+xWX4TYPbIL+PN8Rv1f2n1vyY3zElXTG/GGiBfYJ/Dx9JVmuR31oUdE2AYxaEmxhOJgHGTKuxh5fgG8xMrGzBUmdPH/ooW0bN72dmWDWXV0v2hlfOfN3M9MoWNlB+a1FAZbFu432B3w11yW8tCtpR2WChZtvh6EQRzzLfbpoUFtwqO6jZKAnGpOm2S+XV1RmbblsNvDbdhFrKq0p+a6nchGVai4Kmndig46AuzKUZa8jOfVe5pOPHMAHZyhneCZVg1kSbHXXt5WBTB17M71jWZd3U6qinK88+9cUmcTFlCfwm3kV11KUWBT07Owt7M2aJI6GVYiLkNQh3gX3+85//iImRsLi4OP/lL3/535DSjt6MqgJAuPDccccd8AQYxTHZs2fPX+zbt+/zAfn3Wpk5+O2NG5nhyXiPVGXaCOC/00mHwm+nQfasXC0KOjU7TKpy7NixoMAkR48evZSCn1xlBUBZJ8+KnZRVqxsL8O54+OGHf8FuI+3qYkPR+3FgUaUJxbsukQkzAwy1KRMUJzRvKMwmlWVdZQ2U3yD5DeW+T+lDdVmZttWioLdu3fqddKXIpWZ3SEV37tz59XT6Ltg+OcLXmIKiuh4NaRthAfexsQduXiF5tJmW+D0u8PuesnVib51TXn/99U2cl32owc7exn/s9+PHj5+bqkfewGfexc8Trrjiim+UbQPeJ34zWPSMX0l+S/NbBba+efBhG7N/teGCCy74P9S//tF+nw88YU8LfeQk6jvnUB8olOW+y6/BoNRRYOmixjLO8r7EFqWjGAEfY0JHyiP0VpTeHxX9EUil+LVxNvsKOCDB2EhHdUNisUSl5VOipU90Kr9FUlTv93y1ld2H1h0xoaV+Vli5QfArBdMpbLmVwHGcuFSMhJDyXWkdxzy9g9TDTVBQbsG3R1TRljJ5lOU3paCTlZwUQS09GNb9N9chGhriFyFK7cErCQ8QnWFLL1bJb9NNkHQHODHBkVAf6bSnTwwfnkz0O1gSC9tDKWECQJf4ksWB+NNHcluNWUHkIL50pk6+bUI6YWWAGx++HJJHF9JyiNSxGzCI310xdTMxF3xiNdStoMsqU+Eezspu9IjBNvYd4TozyO+lsfk1/R7xiEs9MrIKfh39DHGdEeM89+HbwdPhgh8oei/2+9puVCHPBpz0s+1/G77whS/c5ltROpb7thAnecPjjz9+vW8eVad76KGHsDk49tBIfF9IOeZ4sf0OYfVYSB5dSCvUGfyWCkx/1VVXlQq4VAUusXUwZhrltwoW4vMwnjkc4jSdEQ6ULKRvikEiuBb6eGIRv/+ako/tQbGui690zpu1bBKivGuuueYv0uX6bhSis8MH+sYbb/xD9pgYZfXJT37yP9Efn6sFjYJMqez/nCJnneJ0/HnIUXBpg+Gyyy57ro32lCmT+MWgMuZK6cuvUG4ykEvxHnAxA8XieBa4w1MEcRD4J/04Not3+O9v08/0BqEpamyiwGWtIBYEPIXs+sTGnDA++9IGYU/5hfym+b2sTJ9p4l3jmbN3796/ghmDZPOjaYUq9b8//dM//VnaICysoiC/68Tv1wpf7GICyZhOyvds37pS2tMpbWaZ0sYVQrz8ydQlfTVTXts4JGHGfmXuVfTFpSvpJDslcbYptH5m9smznrENvphbpH3Ld1xfdIvv++l07BUg8VvbRCi2rj7vOeQ3mF+fsqpMY4cp5U19MXohBqCQjWHp9ha8zxdPV9mEevMycVYlO1bITRiopXSVPUChMs6qtxXjuUudNTT8qOQBUtWNw01iYRSqwG/QTSeCgoMHRWYQpPKSmzzoZ9WKTtrjiD5wQ/zilp2xAaaP/BpepE3bOgfMuvow2Y0RCjQzcGI/KGRyhItn0/mU3VSuq81e+eJOOQkYr5c5Ec1QYSfPjIBNAuO4lHItdJCQNif6FAc6zRvXfUwhld1kk27eMErB2BdD+o8rrXTprc8ufl7Z0iDec36vSQ84ZfmtgrvQPFh+x3QITiqH5uPgFzqunw+UaxWNkpa+6DhNjObSrIjLDrqTULqloo+dPd0Tq+DXztNxf2Cl3js8I8/MnnmFEyVs0iUGA+b32iiQWniJuMbN4NKqzOvGcFPlocov/A0Rt2JslhUzU3HdacYKtHLqcS28NMtCW+DCg9shQgql+j+ZwgEXkwYp+ZDymkpbFb92faWVRkyfcWEg9SW2JcKHOeqR/OObmEBEVTbgpTr4DSi+dFJp9syyGJS3IL+lzHlBhdeZmAzrOMSRGcFCfKJRP76zz3VVEQaBSh+pY7KCxWzO+2AKKiX5TgKTUBNJpQ2sKDMHL0E+7+mq8CxaMmuV9jd1mKvWy1xJJdk4B8QvbPKS/CIuTqcfFy98FsG77jnyu8k7ky4nlIQiZkYkXUZrlCby42VmKSiQhzRamnJCyUVlpPxCNxhLNarml6vi166ma8WEQz28bA1uFR8Iyij+mL5YVNeB8YuDVKVXwTZm8LTgU7XBPPq8IHnUoA0xm7ZDl98ph2LFyZ3ggw0OdzfTeZJTWzGKmgg9zyXARjnz9e4+/WOUxroSfuzUXegsPKjQhhNXya+pOvBxnSyEiYlnNV4tRdqcvOAmhROiUY/L/XJg/F5E4Ejurt4HzwTlPDIRkinoE6Er6jyysKpznRYM1Q2TIL8Jli5PCLL1BrtOOZYuYwoQBMHGC+UB/2P2qR7xSn+fgTP72BhiMk3gFCnQzhqXGSTEQlyGJO8uBH0KaohH4ir5NcXlrJiA4xpmNhAg8Igb3+1qEufnImgOz35cfrAwVy14NE9M4tiAGiq/mVk0OIiRX3vmzDd5J3zaHi/GlTOUm7w+4zhd6CwiR357cft4EHaOJQdmvF8JyogTgwhLsRZFL0uUr3UOPx3FyvV+8k6sEDtm5GtlZmwxWDXxjssWzb7S0VWweC7k2MGv+B7Shs6m0o1wDUrELw5YDerJkd8HYxpKGJ0gxHNJBjfuS0HZYtOezUriYByjZ6QNRuiRIfKbgO1aLsTudmMGQ6R8GqBhZlrxZw15ExlRO/vUpjuEesGsE31SLajHtpDYtdyP5dc0AeYnthNXwjPyCvXCScMpHTpC/xs4vzcJMgZvpDtDu5t0AM3KG7J3tx19zpU/+oalA1zKOXgQ4UMpGZ0yZH4TjB0bcFEmBEMaZkLWaFdaiJFXGRsiLdV+Rho0ym5GhQpBG+nr4Ne0g90S80xRRYN0JQOkY1d/fUL4RcjfNM6QXxxq8X5gYpROoqbzxkoHs1/MrKHUoSDxE/9z7SvYecSs4Kgt/2pS5RfucqLbDgBhZ3BvktMJoagx8nrYlDMdDO9gJI5ZXtn1oDr8lEQu/kedcnN043ryomv3nPm9sGwzsJeQ4rhIKSfxFvBO7Gooxa+0YZbYUCeEX0l+k/b7zHiBpX1kn0M/FHIoDApF70TN7KUDKVz2RPCb9HWXXyF251mBl5XjxHMEMy6MoDSzecpW2vgd/8N3SFNWKZvK5pHb5yO/oWQ0wS/3o2sws2J+cSt6IrTE7yJzeydxUpm/rnRa0AjvhPH7fmkSwvs1hTfSYAOQPqNNXdxIRBw+HaGERSWNlUzMCtiS38wqfJL4TeTdEWUKm3LfKjuTDlUoVaTPU85D9NoowiyHX2zOlZ5JF5Vf9fc5yhkbW8Pb1S8AsIDfi4vwR1wVW0kjPcwXARv/GeWMgTpWkeYp50nkN+HPseua2BhjDoSkO0V6pC7qNLHfu2xWaMfEktsAv+Crhgh3mW6Q59ap/Iob9F42aXNYhX6OhU3Aqgd2ZqyEeKbu3FfCzBtpy6yUrBVfppxJ5jcRBJcrC4jpQ6wKKQShWfbGuPbEDhJdfc/Bb2KztPmt81RZGWysjcnMvoXy65Rfw+/IuwM+xTG+zQgHChMkFDBmx+bD5xsyoWGh9EP4tuQ3cxBH+SUkEfA+T4hhT+pizAocjMg5eRjt3x3SufqQFhENc/hNPB+I37NNW0IFrC4MiN+THX7OiaJW4X0HeQ9+R7Hb6xiIkWdov4Hizzs5rPymJCvHnzkxefhc6FiXsKbztfx9paUXzBr3NFWXvpSTd4igw/yKp0qV32yv6xm/N+WYTibaLJmrTxwbD6M4G5htxW4CVKHIsLlVdHQ4xmm/irr1IY8CfpPZdMv8mkBZzqPhyq+7p/WA3x2W/IqTK+W3QJPkGezNqMeC3NhNBtgkKiDWxBIIctbvg1Ktuo4F/CaDcUv84gBGUTwW5bec/JoYKrUNxPAOSVcRfc5TfntzEUHVchmUHx/tRYD7vFOBSZwMjHgxPo9FFeJDL5/2OfTCdtTBH0Ipwsz3exxm8Tm6bfFb6FvrW7ZJh9UQzGo+p9GY302hZUxqet+j+SagWcjZB6OA2U0P1+GJD/H7k8TvHwTI72gfZFJ5C263Fbuj6Ph2oqzhEgOn9+CC6AVsNGCkxcaBj9Bipgc3oJiQqTH1G+I7DfO7MYLflwcfe6HGjhXB792xJi74VKf4tQOiOQNmdZ3fzHKgRr6isibgz9y/f/9vHThw4Fc4A586gxDE/Xhm9+7dz+H3mZmZ1bm5uVdXVlbm8PexY8dm6TOzuLh4/qFDh66yKueTP3y477v77rt/bePGjW9FNUxfShDA0W3i93eI348G8IukMIWA38MWv68Qv3C9Wi/JLw6ffIb4/Y/E79tKVTwCxO9pxO/vluDXlt80v7Ml5Pdell/lN57ed96EL2TBTnHR2fxKvscsfRJiLlTBWUgeMHt0hN97lN8Q5vzSpqLOVSKLGIhDP+hjxO8mv1prqmAEQDQCrPApo2CCQglFepSFMm1/3eCK6wteCDC/5hRZk/ze2UV/ey/QepQIl2fg8E/D8pvsVSm/DXcU2gi4BDPaOsimPJcQcIfsWo15izQMX+eLw+kx+BxbR34rU9gmoFKszbPz4PWggil+K+OWJ1UIUwr57bVnhpe9tQdcw5Z55sGDB9/7xS9+8TbYpZaWlrYtLy977f6TsL4yPz+/uLCwsLhnz57HrrnmmkfJXr06PT2t9uWOkG/xeyvzOx/A7zLxu2Tx+1XmV+2P3eF3muT3apbfdwfKr+H3ZUt+V0h+sVHY62cwClpigYR6+vXXX990/Pjxc/D96upqskFontnZ2ZWtW7d+Z/v27cu9ZnFCK0/8npHid1bg99vE7ysTClGvm+0hv6+S/ILfV3vdUK28IqAIKAKKgCKgCCgCioAioAgoAoqAIqAIKAKKgCKgCCgCioAioAgoAoqAIqAIKAKKgCKgCCgCioAioAgoAoqAIqAIKAKKgCKgCCgCioAioAgoAoqAIqAIKAKKgCKgCCgCioAioAgoAoqAIqAIKAKKgCKgCCgCioAioAgoAoqAIqAIKAKKgCKgCCgCioAioAgoAoqAIqAIKAKKgCKgCCgCioAioAgoAoqAIqAIKAKKgCKgCCgCioAioAgoAoqAIqAIKAKKgCKgCCgCioAioAgoAoqAIqAIKAKKgCKgCCgCioAioAgoAoqAIqAIKAKKgCKgCCgCioAioAgoAoqAIqAIKAKKgCKgCCgCioAioAgoAoqAIqAIKAKKgCKgCCgCioAioAgoAoqAIqAIKAKKgCKgCCgCioAioAgoAoqAIqAIKAKKgCKgCCgCioAioAgoAoqAIqAIdBWBDV2tmE+9XnvttRO2bNmyZqd94403TlpZWdly/PjxmSNHjlxx9OjRXfj+2LFjM4uLi+9eWFh4GX/PzMwco8/q3Nzcq5dddtlzF1544f+enp7+gU+5mqY9BIjfE4jfcwR+Z4nf8y1+V8Gx8tseVzElW/zOkvxebsmvxC/kd0XlNwbpht558803T3j22Wcvueuuu/ZfeeWVh6jY9TKfG2644U/uv//+2yjPRLHr0z4CxMVO4vdO4veZMtziXeL3IeW3fU7tGjC/kN+nld9ucRNdGyjQ22+//d6yhOa9v23btlepjM9QWZdFV1RfjEIAg25D/N6n/EZRVOqlhvm9tFRl9WV/BGj282FSnEt1KmYpb5SJmRctwU7zr62mDEUAGBPWy8pvKHL9SK/y2w+egmtJxH6kDcFNKwrUgZbbnyBFfWpwI/QFJwIsuK82rZgFfpeU3+o7KsvvKx3gdxHmUJLfU6pvZfU5dn6T8JFHHvngvn37Pru8vPwu3+bDFo3Noosuuujo7t27n52dnV3Bu1u3bj2+efPm77/++utnYJNpdXX1PMp3/oknnrgOG0yHDh263LcMUtSvUKe7Ze/evY/5vqPpsggQv9cTv58rwe/XiF8o9jS/51r8fiCC32Xi91blt1yvZX4hv9t8c8JegyW/4NfI73dYfs8k+T0nJb8/Fii/yYpY+fVlJZXupZde+jHa0HnYZ8QlZZmMitQZriXPjjMji5yiDceTyDZ2KeX1m8jTp2zqTE/BnhZb5qS+R/yejw1ZH4xT/J4Rixnzuwsz5EB+L44tc1Lfi+D3Tpbf6VjMiN8TjcNAAL8H6R3lNwR0zJopPdzncj0ysIlUp3JEJ4Mwe9RlDbOtkDZOclrMqnwwbYDfeQzsPnXBammSOQtpewf5LfLsgvzeHNLGiU1LQnkgTzFjsw4uVzRTPrtJkHjzKndWDRcu3UTMZwVeMQX8YjUEfqNXQjH9wpPfB5XfSvjd3wK/txbNqkl+we/JMf1n8O8QMKcX+Lmu8WynNSwgnEUzLvhyYubdWiU7WjDzm+vn2gF+T8XgkDejJn4PEr/zHYW5tWoNjF/v/a7WAG+yYMyG80Y3zEwpzeYm65RXFgSU6vQVlyCjLZTm3V2pb9v18OR3U9v1NOUTd9uYX3FpTPy+TGkWulLftuvhwe+fdEx+ffj13tRsG/9ay6eO/s9ylHOnbbtslxRt5XDHw4ZjreD1IHMMVHmDb5dt92yXdPG7WOf+Rw+oTaqI1WKB/N7W1bYU8PvyxG8ewlPDRS7+3wcBwEwqpw1LXZo5NC0oecq5R/xSVbchfktmNo3/K7+ytxPzu6vpPhdaHlZLyq+AWt6yCK5r9P1ZoWC3lR7uPaizQ4iX4N7VVt3aKhf8uQaugfG7OKH8bhoQvydgb8E1CE8iv1OuwCi8k9qLUz5p5Ye6SyRDIU0ayQPlF/sOmZk083tiW4NhG+Xm8AtPpr7Kr/KLzkSuVvfldPTOn27MEwiXkubAP23IUuNlDpxfUYipzfc0DnRLBbpcJXmg6rv8Tja/7MQuzkKGEt/CZe7ASamWZKqxYnP4PTgB/F7TGNAtFcSHyIYuv6K5g9o+bH5ZQDO74uyWNhi3FrTTYZ9ba/qATZNynMMv3NIG41vK/Eobh+C3N3snoX2DD+m45HcwvuFop2PjcNDy6zRtDHFmiSDkJACZzsz+taGy0Yv0LtPGQPlF/AaJX+xDDPJxmTaI3w8MrcE58jtMftknOLM0avv0WJ0dy+UnPUT/6AnmN9On++AeGtrv+VIDSX5/MzSvvqRn+U23eW2I/MJrI3NdEdtq+8JXVD0le/QQ2y1dNzbEdqY7gYNf2DAH9TjkFzId9ZDJ6zw+Vh/1ft5LZGYabVSiDJ4NR5UzEfw6No4wEsEMMOiHR9v0UnhtSMtC18Zg109ikSCfRp9SFy/k8HvdUDp2Dr+7YtqI/QgEPaN316v2brKVM3vWYAa8Fns0P4ff4Wz4S6Mvu6PF8Nu7d6yOMlouDWl2Kc2eY23tJBAXEl532362wAoY4tRXDPm4/d28h0kB+h6O4kNB4IP+if/FBkGaAH4zq1+O5R1MB+F/kVHOBv+qlHRKOY/dV8qOCFFBzBz8DmOV5LJNxo5owT2iAy9waEVpFt37WRYu7zWCZv+MUaYcGyEvdm9wbBZbOXPcj9zYwDGxQdhzY9L4DVZ2hNNGUpTfkvpLWSWdp5xNeeyZEawRcuS3/5uj0q0oMWQQSKOTWrBfQZgx60GkOwhVWTeu9CwLtivkjQ+C9pfdGJBuqEbewb2lYy84+A0+tEEYf1wSXOl/MUqUL14oCtyefB+T/4Txi4NmQQ/JVxJnmX2JxQBUsYd9fJQzzBxUdvSESJpFx64igoCrMzEdb8bSMiMUsbNnKOG8MJAcMP/02DZxGFEoTVGQy+TPMaIzs6w++80iBkkVs2eYNXyVM6eDTbFwBmcGdR5cvZSzqYdP/nY/4z49KfyWCrUKXmg2K14gG6ukwYU0SIJPmFTKTuDY/DUofqdwS0Va8EJtr2bk5Q2nwmuwMFKG2BLNJpHL71FQHF7KQRokpB3hmNla7ABU9XtV8Is6uQZd2IbZFi35G+M+w9zH9B3X3YewnefkH7y6mRB+cemC94PZLfWTm+ALjxksPiSfs3kXI8QoaZdyhj4wK2AM1Nic50/wbNrBb2fDqTpJopM4yaaMtDkYq5CkjSjXrAu2ptCra6S6FuTvHRCGOmkyq2fPjbGZHCsI7w7fpYRSwJwYfqVTW7aXC/2+B4Jm84FNH8Oxbf6S8JFOdabyxxHeMV7s/Iswp/KTaIUD5DezOciDchEko+9JKe5Ic+eSK/v/IUqaz1IErZBQp1AvMjaRpOUXUSz791Cnxe3LmZkPG9yDGsSjrUQA8jcf+/ug67FyCHblvx5ywMbYyNjkk1km9THSHVzUHPwGHXXGxlE6Hx6Mx/qINHsxK6U8Bc0rpDHMJdu/FOQqdFk8MH7hfijJb9BdoJgtxyhovGPwNwOgpDQkfn0GAFbQl4Qoojb4HbkfhVTUJ+3f/M3fXJBOhxnXli1bvu/zvp3m0Ucf/bn0O9icgp2Q7cbp5e6Gz372s//etxzK/2el/In8TVBE0mYA5f8R3/ypzRg8pjZu3LjGM/WxV7/+9a/3zh+c+R2LXMb8fs8XF06X6YMLCwt/i++wEjOrMfofLux1PQm+jic2ulpenmJROfziWHivHuL3x6nCaX6fob783cCGxOKPYsy7eXnE5o/3kndtB4G8tg2J3ylp19zMOnnW5MUzpYUpYWwmiyVxetYpLJNHI3BeQdZMcDQT5yXx2GupZXKSNnSGhQyl2Tr9r3fHZaVVTezJMMnEYXvN8FI0Y4IwpqOijiSYOMb2EXgmLuWPVULQ4+D3E0GZdCCxg9/gdgTsHY3hb/vRF5mwJA8LgrDI5AETxy5W0N5KvipcfCmu7aYPmpV+MF2JD37wg/+dGoh/B81OuNMDRLy3Yffu3V+j0ewtVq5TNKr/ALYxzLRnZmZWUcCxY8fmPEEw5grjcTKF/Pfu3Tv2upX/ipV/UDvw3oc+9KEvUHv+C9phCqB6w58S/+vNI606iN9HmN+gdszPzy8uLy+PeQZcccUVf20OM9Hvv5DOEO8Q7//gUxDnb0db27B9+/ZvGXdP+v1XHPn/wCd/Ow3x+0WB3+spzSdD82ozvYPfPwvll7h73mEOTMvOSB5Y/h5n5Xky8fxPeVgcOHDgo2Qf/vPDhw9fzumMcja6Jj0T30D6YXbr1q3fRgKzwvXBm+UXXNry2zt+p6RZiwHA9lv0AcWVBvn4Lk/KlFPDu5kNrxrKqDVLid9YW7rjOG3uDCjEpzUif/jMljnKOwR+M+FUY/mN7YiwPVelK2Lr4Hiv3/zy0rOVRmA5VKfS5vxRhveyKE2yQ7n15sokaWNGMguFCEXORnBGUYfs8Js6hOz0x+Rvt9XBb237PSE4+6Stg1+fcvuSpu/yOyUdDJik2BtFHY29CMa8TkJ8t4vyr/t7xFOgMtI2w9Jxclkx5vm6r9nKM3SQ9MgfwXuCT0Gm8XbwGxVHpG4upfyZX9Hzpc7JTxttjSlT8PiJ2o/yKbuWUX11dTVj/zW2YZ9KDT2NhMXx48fP6Uu7HfweK1t/2BIRu0Xyr8b/4GeMNCgHG80htkO8Y+WfCZPJ+V9n8i/TFuI3jcWGnvF7Xrr9pk2EORT3RD+C/NbGb22bhC6CJ5pZbrxEsKT0+oRVVQMwbSp9g9r9XlLA0+Tq9c+BwQUXXPB/STG8YTZu6TvEdVjHDDpUSXP+VyFfE9CJNgmXDx06NJXeGI7Fn7BINpLth/lF2/ryjJnwquK3L43Pq6eEBfN7tOr21aKg0zvyVVe67/nNzc0hDkFvn7r5Jd/nDdPT028QQM/bILHL5WiHPlQ5pwGHYk7lfyLl+XZZYojfV8vm0eb7xK90v2Cwx1Kbbaiz7Cb5rUVBS+A02ag6yakrb4dQ1FVc5flWye8Pf/jDE/j0mD2LSxRz2uUKSvv1118/i0wIMzSLedfs7Owr5D71nc2bN3+X0v5jSEOrUM6u8pTfECbeScv8biJ+zyV+zyN+X7X4DXaDjKtF8Vt18duYgqYmRns9FMPT/xQcxLz/DamgBawo3+YDCtgngSlj5AtLpomZL33pS7fC753+n5gr+DG+8qN/wLZ88803f+7nf/7nH445xVpBc5IslF9/JBFOmPi9mfn96RS/+HM0m7f4/a/Eb+gpVv9KFaSsi99aNgmlyq6srPgeHKkMtK5m5MCiN0tIB7+ZjaUK8MeM+U2jnBFLmATyIJkmVsht7rfJbvxeHvhHx3ZTf2+gNFft27fvD3FEGe82cQ2X8hvHPPP7FPH7CvOLwddwa0/wRv9DHyB+/4j4/TvmNyi+RkxNm+S3FgUtNRond0LAwLVHlN4+4h0cfSqkPN+01Inen64X1fVTvu9bM72xV2jpltlYCsyz1eSh/BZVFu5cxmMAShXCR5t4f5lSykXZ4PsxYcYmIeX1ZMyNLz6FDYTfzGq3an5tLOHWZ/Frr4gCIJ9KBmPi9+vIq2a31TQ+63XJby0KukxlTZwOy1VpNDs6cuSIOcoZQlzVae1jo8nvVNfkyKjv88ILL0jBkXozg3bwW6kJyyhnOmJ/CwndUVbMvhDnpYMgv5dmaYs0S8MtLpU9xi+b+JWCIym/AtK4GQnHwSviN9EVUNTE78tV82uq36T81mKDJreol6gxSdwM0yg6J/8eT0lIOjJ7Oowta7pgJhE2AzaEbpAtLi6mb6RYx8aHJz6tJ4PbWwl+c+tvz5wRK4OWr7+c80LSVxBtEK5Pxv0JAgSMSVCN/TI9eCR/kwD/FpUx9/u///t3kNdI6Q0n41UyAH4l+a18cuTBL2haR+RKuC6m+D2f+L2S+0YRv79O/AZtGOd1UuI3c5uPievRunD6ViAvFodPHhwLYew0U8xdhj5lhaSRImeZqFgB+aSPwSPuQa8eKQh+lQ0QTuONnbwEDz73RKIfFZ0gRKxpvr6rqiYovwVISvG3edAHzzgxeq+PXHnwixC/B5XfFCHCabA1mh15B3PHTi6IskjD3WJ5MYGrEq7cfKSwptQuXE6Q+5jlr9QudKCi97v2vRBAH/xurqKeJJy4lFQMlgTBpXI2hZYDmzMrBekoeaIQQvO007NboDn8MlbGQPjFwaCq+AXWLn7viykHd0IW8Fv6CD/45hDDY3VnWcDp1krNfGX6Y+G71OE/kyJhLfS6nKI4wYWVqDgBX26aFj6vK284AA3uabwl3TmpYz1QcVVrz05SotS2D5ctmK/MkoQXEeZKX3MvrcyYD/TPW2Prz4dowC/ySMcpGQq/3pdUuHAs4BdhO0s9BfxC9qIeo3wd/JaOQxNVqTIvEVCIB53uqIUXfaJMs1EoRThjxVCmatHv8qbDmIL2vfrKKGgpkA57hkTXq40Xpfv3yl5D77p9Gysnmrn8WFXthFeINPhT/kEXDtv1MQpauKAWAwvuPOzV4+D34TKN6Dm/iUOFZHoLCX1bBr9K32VzRikTheOm7TU6Cpxcwtrkw25Zo1tXePCBQHsrDhxhdtzu0TsfceL3TCg0exAua4Jy3L4NjN9dNddSxDa0pUzUReL3JAe/76q6/nXnx2a7qvnFTenp1VGQDPm223WTS0l+TxwKvwmOkh3ax/BvkyDNdNqYRVt+2WMdLKQu0oDD7fPtd51KVwW/pkGu2VUVZg0XaHDxSg8y+Du0j6ba0PsNQtMe6aLeEtjAtTRjuiJ+S5s1IviNOsziuHqtdxv8I7z4rr20QoNt2vthm09mYydk5updmCNh0b1qGFV9ZvXS8ogVf9kqtvK+dO9kyIBlV1pSBmVmO76A8N13aVMcZnrBj4PfSjangitTwQsOfoPkN0/Zw32ugmrmZiF5i0i3uvvUw8Fvqc1ln3JrS4Nbt6UZSmiBkvD6KsXQstLpaal3usNeKe7kusqTTALAhkflstVs5X02PWSWrKGVIWym6Z3M7Ao786F5haZ3DL5rodc7SSYBtMnHFTC0zk2lZ/mtit/0JGvs4t662uQyk0bwK/bR2BVFXe0Nzldyxwr15mAjfGYWzUvs4DqFvMAuUlInzXS4vM0C6cqlPrpfpbFz8BvkDeHYGY+axYZwa9IKs+hgjxFptmncr2Lq1JV3pMsTQr1dHJ5LQ+A3c/FDV3jzrge7Xo0pOMxIySSAoOvej+uwATqQj3nBuyBOiBmvSzljGU/fHcIM2J755S3JpYMdbAMNrVqn0pfh17guSZuDddom0wBKrlmhHikOfoMGqk4Ry5XhyVQp+XV4PtRme/bkN8i84uC3tFtpJzivovPSkuQEydQBBcluWJnjl7GNx7LIZdagzvbfrHy9NoSkGSIPUqfG1rFL70k72yGzLOn9OgZdF2Z8+CDaY8GhxLAvMWR+vX2KJVkibE5rqg8rvwVISx0YitX3ZCHHBYZ/9Jl59mDMskMEO33yB/m7vDVQXxogxm748DnOTvU5JT3TRl7s491UH621HAe/OFm4qahgSgNBjTr8U5R3yPfSCVGf93klmDG/+frH+5TRdhrH4RJffrFS7jO/Gx3yu79tXiorn8/BZzpxyA3K5igtz25x5Fs8KgowofxCNpiQJytM6RiwKQf+19goSB6uT+GRXj5CnLFh+yivygioOSOsbqRO7MOv5V8+wqgN223s0fUcfs+uGfbGsid+cYQ5Sn6JX/j4t66gld+C7sIbBZmNtRgvBsy8GfA8hZqYPqAkMAPABh7KQpxY2BxRH3zn46HBg8EazBuUx27kxe+NlW9c5kiRJ6eOeNMwM5AwFo0JWBMFuWZZRfxy3N41wnMZH2DNm3ZNVHtUBrsHoh5LrFDgYXMpD8aYRY0eM1nI4fe2RivfQGHSRh9wKvJSMeYF4GqwbZnfpI9x3Xcxv2OmKLOyniR+ky4kbLpBIII3DE1/zAmO4ppdV/H/9GnC0QybN5uS6sHtSlL+bcwOG5DfIn5h5unlY47om8pb5rbTlN9k/wfy21tbO0xsZsBNDcITx++UFGwII1noiGqEBIBilPOZTfOo6a2g2b6cO0O380wv5yX3JHvU7qW2Kqi0y6c4gt9WooKxsJ6CuBpQzPQ52RZee8/C5eHTe7/YHI5dPsWh/LbV9y1+wS0UM3geeZOl+EUQtIy+GDK/CS+kyD4NRZVqPMI94oqr6AdLbEupeivWNAnIw/hpF50gNO9CWLHBaCrvsEtiY/AT0Q3syYt18dtE84lD3CY++qRmVKPbh6SY4OgLE8KvuYrOVl6l5bchfk/E5A6DLv+0+T7Rkl+c/swoZz4Z3URV2ysDG4au2UesbRZBiNAibGZgRg0FmVLWRbbqJVeAcNhIc2boyYakHQxcOpACsods2rB7EzjI4RexL3r32DMrjmiYEd5J4RfkDYlfcItB2XRKKYLmJMlvgoO0c88jFmLyRgkxgTy2kYNysIEBhY3ZNRQwHOZxAAEbQpjtIBAPvee12468oHyRB/JCvumLR/Ni3VI5lQQ774N2Mxt/wiwkmt+22m0LryO4UrLhNGH8bkObB8LvyJzG/Epm0IniN5E1hz0r6exlLnvkpUvQKcUqhN81c0Yn7mW82JKg8O6+KMSE1cdKZt/461IscDOpmFB+EZ1uaPyKytne/G+847VZIAcyF0kua5OW2mVvLsa0m94/nTcX8DOJSQ0fYJfNGQIccqIupk5dfqeA3093ue523bgvisIba5brS9vz6kn87nEpad6L6EUzua7Kr8SWwz86mUnz5puXCaKJnmCUs/FzhonDdfx80pWz4aOA3yftzdUmOAwpA4csiN8nXUoo1hwXUoeup80z+wC7nvCryjmvo+UJMYSDR+pO9dWcOieDyyTPnNNEefD7/k6RS5WxFM8gbK114ktY3eQaxFh+31dn+TF5W3VWfn0AzFkOm9n0k+lNOZ98q04D23nerJk75HVVl9v3/Dz5nW+7nXCtdHgp2AeSsLTXx0Igx9xhy28X+L0oZ1WU1JX7qvKbRgDCIR2hpnQJcPjAXkSK+rym0cORVZf/K9cvOVo+iRtGvlxg4zCH34TjFvndxvw6XTJR9y6u5nzxrztdx/k9zwqEJnKs/Hr0EPgU88kkl6AkiprSPFAU58GjuMIkGAxQlmMJN7Jdwf2O7G1nFWY44Qk8+E0UNfN7MQfqqQ01rMqka6/MoGt+Ik2X7am1ARSYMTbNPfBMTg/zQbDAEsKSY2LlKb/gV+XXF96czYexE0wY9eBc7qOsbZ/WvHqAVLhVFcz2RkveIYWW9OWnbLoCG/4IW4vfS8qWad6HUkafEcLFiptFym848nXIr28tWH4Nv0WniuHWO5zQob4gVZEOM5aC2fSYsuaZ11cg/LAjYRcenhcFyvg8jOToUFZZRaSaWd6DfG9bFc2duDyY38LViTWbTWZeFr/nUR6jELASgBBWDN7YtLWCaym/DfS2QH7NyjjNb+LO6nosfm9RfhsgVSoCypY3bnwEKzML4lCHSThL/pjQh2kFL82gpGO9BwcfNKVBrkvwmwg1Ztn8WcSs2HxsxY50/CnkGJvAym91HQB2+wj5NXwV8TtK58kv3HfBb2UrsuqQ6nlOONFTR+Q6S5BzhZeJTWIE61M9AilFHTUY+3IppVN+q+fUzrHEQFw4qHrwbhSzym+9NCexPBKPiiqi1xURizJcgZTqbuek5o+NWesyBe+ZbxGXwveYnSm/DXc0S35fDlnZRPL7MvqSzpgbJtkUZ4IYcfzl0OWOuClkhBYuc30ORt4SJZUWi/0BbOhZKyeb45iZ1UgpM7+9vUygUqBbyqxifkcmLw5odi3fGdlS68oX20pg9PLVlnMAGS+++OJPHjly5PKjR4/uOnz48O6lpaUFpF5eXkYErtEDWzT+mJ+fX9y9e/fhnTt3/jVs1Tt27Hh++/btr9RVR803HgEMlsTvTzC/lxC/71F+4/Hs2psl+H2O5PcbmFiR/B4l+V3pWtu0Pp4IUCcYBeb2fEWT9QgB4jcTdrZH1deqFiCg/GoXUQQUAUWgRwj4nm/oUZO0qoqAIqAIKAKKgCKgCCgCioAioAgoAoqAIqAIKAKKgCKgCCgCioAioAgoAoqAIqAIKAKKgCKgCCgCioAioAgoAoqAIqAIKAKKgCKgCCgCioAioAgoAoqAIqAIKAKKgCKgCCgCioAioAgoAoqAIqAIKAKKgCKgCCgCioAioAgoAoqAIqAIKAKKgCKgCCgCioAioAgoAoqAIqAIKAKKgCKgCCgCisBkI/D/AZhKjzt3ElS2AAAAAElFTkSuQmCC;" vertex="1" parent="1">
          <mxGeometry x="280" y="40" width="212.39" height="200" as="geometry" />
        </mxCell>
        <mxCell id="haDdtKFeIpYZxnQrOWUY-4" value="" style="shape=image;verticalLabelPosition=bottom;labelBackgroundColor=default;verticalAlign=top;aspect=fixed;imageAspect=0;image=https://cdn-icons-png.flaticon.com/512/819/819019.png;clipPath=inset(0% 27% 0% 27.67%);" vertex="1" parent="1">
          <mxGeometry x="271.16" y="280" width="72.53" height="160" as="geometry" />
        </mxCell>
        <mxCell id="haDdtKFeIpYZxnQrOWUY-6" value="&lt;font style=&quot;font-size: 14px;&quot; face=&quot;Times New Roman&quot;&gt;&lt;b style=&quot;&quot;&gt;Signals the Genes&lt;/b&gt;&lt;/font&gt;" style="rounded=1;whiteSpace=wrap;html=1;fillColor=#FFFF00;" vertex="1" parent="1">
          <mxGeometry x="361.23" y="340" width="140" height="40" as="geometry" />
        </mxCell>
        <mxCell id="haDdtKFeIpYZxnQrOWUY-7" value="" style="shape=image;verticalLabelPosition=bottom;labelBackgroundColor=default;verticalAlign=top;aspect=fixed;imageAspect=0;image=data:image/png,iVBORw0KGgoAAAANSUhEUgAAAQQAAACkCAYAAABxY1BQAAAACXBIWXMAAA7DAAAOwwHHb6hkAABlDUlEQVR4Xu1dB3gVxfafNBIgFULoHRUE6cUudsVenr2XZ/dZnw17+SPqswHPBogF0YcFRbCggqAiRYogAgFCTSAJqZCe+//9ZvfcTG5uTUJJ2P2++917d2dnZ8+cc+b0Uco5HAg4EHAg4EDAgYADAQcCDgQOMAi4KgvjDrBXdl7XgYADAW8Q2LHhqbF5f4e7ygu/uYTXXRXZCfkZY0e6ylJ7hgqx4l2rBvIe3P9y7trDisFokran3v5dUfbYsaH25bTffyEQvv8OzRlZqBAAwbfOT3/pPyD4Q3lvk8i8TjHRShXnTbvGVbLguB0bHv8guuiOp3dlTXgw2L7Ly8vDXOXprUs2914M4n893LX10Li4ZtG7tj83OaZ83MnoJwF9XwQmUYbnHhxsv047BwIOBPYwBCARvFGyIdzFT17a2b8Vr7d+mx99Lm/qzTIUV2VxjK9hUSqAFPB1RfGyo9HfEt7LT0XGMPeHEgjP4fpWMKR2uKffHn5Np3sHAo0fAiCkw4tyv/oX35SEiNW2d6hvjXu6Y6Xe7MkE+N9kDvyN1f5ptM2szB35vq/noL9+QvC8B23HQFpoSybicrnCwABaQDoYDmawlkyiMvPsQrbHuRNDHbvT3oHAAQ8BEFZU3rZnv6DIDT3/PhIufp+HVXluadY9v+F6bHb6jBugrzfzB6zyokXHgnh7QL9/SAgYBLoOfR2BPqIh9kewj4rCKVeBCaTLSm9LEqs8++a4oHq8j/ZPon0F2+E71580gTF/y3YY9y9oF4dP02AmGGN+EpLNO2gfwfaFhYUJ+O33fYPp12njQKBBQQBSAJbU4nisrtvs1TUT32X47NKrcebZ+SCu+SQyiOzHg6gjvb0gGEEfT4kAxPmWz1Uf9oCMlYP+FqkBK37LGgyhIjupcOsti0z1QP8unHKXr35x7d+26pAH5uHC/b97HS8li8rCBF6jB4QMzH7HoyB1hAMef/F+vPORDWpCncE6EKgtBLByn0JCANEXgAC2myu2p2hPYoH0cCeI/Gfcd2rN1bwwGtc+kvv4DSJv5W9skDrOE0JEnwM9mQ1XaBDkiRibZhzyYd9gUjMxnivxjI6lxdvag7H1BzO4m/2JbYEEjX7P8SJ5xOCaVivQx+WQDp4x+8f9GXxGQWprFxhdr9rC17nPgUCDgQCIqIPtspttSwKbQHyH8wVAIP8GUaSTSMAsaNV/FgS0W6+g0NFBJAN8vSiI91e2Qx/3BwMMSAmpJvMhkVurdnETXCsQJkVbAwj+nyRkT1uEyShsaaLEZhp/oL8baG/wHEvu5nunmfd5M3raDOMiukfJNNBPl2DeyWnjQKBBQYDEBsLKFlEcq+10MId4eQms3BcbIvQgngcD6UymgLZzQWQ3CeHKPdT3YUM4CkS81pYmzgwGKJAqJnowhIvlPqooeN7vfKZxbiiYzkregzFcBgngWPxfwf+2cXIMjI5vmkwD7a5yjxOqgs30RpttcM8raHcWPB9XFKY//JY3gyjavBfMOzltHAg0KAhAlo8A8Z5hG+lKsPK1M18Aq+HTsjJjdewq13DPCUK8INJZYAJuewIIe3o192Le1MuDAQpWak286O99eAuaGwwmGhLBQyD2Alxb7DG+R7QXoSz1IFvfXwpmUEDjpbSDkfQdSDMVrtLlJ8g5qBVHor8NHLu2M6AP/P/BmwQBBhkrzEra0nsSzDs5bRwINCgIgOD/g1VwGokDovjj5uBpYANx5WnLP/Xx4mVaQuBBFx+I6TuoEZtdFbkpnkwEBJgrTIGrbCCg4FkxkChW8llUCaqNoyK7DZ9POwClBEo17nFUZCdTKsC1nbj2pZZ0ipcNMe8Ho/nKVoWyJEAK7+2WCtxEDsL3NU68YyyescFmWP8L9D7OdQcCDQ4CFO2x8v2gV0drla0W1YeV9S1bldilbQYeFv2MTZ/dSCK1YwhGewIARPeYsaL28AcgiOjnwHBXJEwEIvnH1ZgCGBCe/4TNmI4zr9GAKUxrd9Y7Om7CYBitOEYwLqo4s8Es3JIDxveoPI8qQqAJ5BhFtUBfX2hbAlyoge4T92Wgds51BwL1DgGIyidAHB4sHftyDRorfTgQ+xUQTSnEZfdKj3Mv2DEIZ0OtaArmMBmrfpG453g/DY965c0dORXPrBG0BB38Nlrn7diCH30lNeHewyAdLBXVhEQPF+FsEzhQUU6S65A4PjOvIWZgnDsuoTy9WuIU3mOULXW8TZXCvI8Sj9vVWZbaJtBkQI1pBjhtM20K9Gx43gcbSwretTnG9V8aXcGwPmHE5NZ1bz/sxDMEgrJzvd4gAKRLzlphr/YV2YnsGMj4P6xmHwNBawTlcHWDuL1ODIogwm+xCt+J9trqrs/Dlw+k745+5vAciPEDNzMpWXC8bTS80rQh2MziSDFGmhZ89HcjGMChTGoiIwCjeUXagdjW41lJVB+ot5uAYaQkiPtVqBPv6vZ5U/8t1zHez2xRfko1JgJDI/qsdBNw3tQ7eZ0rNm0jZgQlnutTXTCkjeYSZAVYfQzme5T5PLxTDOcAfT+BcT6TlfqPxZWZIzba8C1nHAXOj8FnNFWuept4pyMHAjZi09//JT9cuSHSXm0Y+j4B8b7n9u2XpXb2BjV4Ea4GUb5HG4JpCIQ04Hbz2QhdQcOcVgG2PjQJK/YRzCmwLfpZENU1sbmJB3o++lyOMUwG8d5g9i0rvaf1nhGLeA+fyW0kIkYrCrNC35+CuF6WvjG+PBpFdbuMsc+64xAQv0AGJH3jdyuTWdH+AGlBJ1/5O8CUehnqVTUViEyGTAt97QATSJN3tGGXL25a/se45zG0mmHYgSS4QGNyrjsQMIiukP75Hb4ITAhF2wfK05N5I9UJM4SXBjoQz0siJdC3D337TzCXcyH6tiYRgPiPBCE+h2s5nn5+IPdUtKvh2/ecJhj2PjbHaRAxjZkPC5Hzuf6mGEzoJ66yDK+W/nQUoZXcVGkSIt5jm02An3v2SbcopJWb5X3Q51OBUIsxGdIeUsn/TCkG43lZJCtpQ5sDmE88rmkDpgk7jC0D/b0WzHMDjcu57kDADQEzss4m6kwg5lR8ppgECKJZg88WW8T/h3QAwjhRVlJb118OJE7yBmJGG3rq0HZ/7ngBr/dVFoeBca3XBJE39Wq6L7mSyn+bUfUBAZ0d7NSSMZAJgCF9Lqsv/2ubRubZq3gO0s+1YFbJprvUs38aToVQISUM8/V8287xtwlTEPMotodx9TJ6RkTqYBuqaW5pCcFMompgbEvw+YtjtQ2kw+HBSAz2vZ12DgRqQMDWp5/BCvcvM/OPK5KnCIpzZ5htNPEUL3MbHdk5kneagTGcLq499O92L3o+XDwHtj3hYxDUWOjSRweaJvTZBwR6qbTjiqoll5IFPonQX5+UWvgeXOltm8ItYBIzGNoMhpYCiWQK3v18f33g2ceDUekoTM0MrfDlCz3vQbtjpA0YWQYlGoz/VQllprfFZAY2Y6aLU8cq0KYgNg5IZFolwv2v2+pWKe0NgeDnXHcg4BMCQKa3BYFF1GZmoa8bSDSBRGOsaDrMmOnCFMGxkt+P1bWHafziCupe2UlAGEddpslkXrXVpUH8kWA0mojBdA7CuN2RiIHGxqxGb+oWbRkU/+E9+QgreZop7oN4nzT7BQyeB8w22p6RKWDSV4IpzbeZQg4lKlsC28Wwb7kX7W7X9hgwMEZ6evPSBBr/gXLdsb4GmGnm/JflPPtfV8ErF7lcsJonvH5/05a3vejvNuqx0cWP3l8SfuaS5sm3jlIRyVmRTQf/KPcAIYeERyRkh5cvP718x4gxYfYsRDYdUoo25fyUFy3UIc2RrSbft6swOxaViro2b/3YjWHhMWWhIieYTceosC1dK8p2dsorqGwS22x305y88LDWrTusVFGHLgoLjy0Itc/atKekATj8CobaOX/dwWms5sSDcBUYyH/NdCp6Fyd0X9gc71ypzyPpKm/dkM34GZXQbXarsIiWJexr+5qLf2vVMpIp06VluxfqxK4SQLJ5BzCviOTsXdufejW6cnpfng+Pv+u7yqY3PhzTvFe1KMzavI9zzwEKATN0GLp9i0BgEAs5VzvGBmhx3YsrEoxjGkTvHyEmn8U2NMzRA2HbCi7X53JHfhjoeb6us3oRxtsZz/iC7jeswOV2qvVWPoP1EHkNbbrWxWdPwymYTpdgx0kJSzwIsEtMlMQsjgmwGETvBc6totQAnV+nSjPICfdU0pjJiE4wap22jXfs67ZLZAzbBGnjPZFETNWCaeW2KjGL7thgx+q0cyBQDQKs/gPkXERkAiJu9eeqkxtBHK0MPXi7Z5iyJ4hpWMQzVrMGAAui2gwkEv20ZJ3E2k4JGM54MBnt4vRwze02xXf47OcwNDoUfz10+RugPlwHhvI9goL+R2/E1r/vmIF3OAYMdLi/MYOIBzAhCszgHb3y4/1FLWNAkh8GN6iawTB35LuA2x9Mm7aZqE7sYjyIPV+ZcEsuQpu58r541+88c0hqC1/nvgMMAky/3fJH+1KxHegVLDgJ4SCts1ohyjWi6/yBkUVN5Tr07qdsY+ApmnCQGQmGcSkDcgIQ3MD1C3tSN/9FCAG/38XYE6n7g0DmyTuJSxLEOZPehEAVmVHm7VLWc1j123F/0/7B4Czzo8+l/oPMbXggxmC+A5jLJVQp/DCDvhj3QvRfZo7djLkA81ugjZBgrrY08KGEMoNpvWLbGkrQ5r4DDJWDfl2n6rI/UEV0SI1v9/DosLi7pkqzyvId3QJBNzd71RDqxNSRK0pSte4azEFjX9a2L2+WmP2iwlVD2UdZwZRbwQwSy3Y+9m5F5ojJ+RkvvuyHcHpFujYe0qHriKWwexwpurkr6shZYZFtc6E7r1VNhv1KvZ1HkxYPv1gcduavUcWjTktKbALduyyexkNv/ZNgoyKjoreuPO/bDq3+PiS8cqWKjmmlysMGZOKzg/eUl6xU+Tl/ds1cd92MitK0IyDluLM2/cGgZdsRU2hf8NUG414e3er5f+L6LthaKvhesAdMjEyZcQ7mB6HSMCAUTB8SlnfHs7AX6DyR3ILEfNgfKvi7ZauDV/Ke0qirRsckXf9aMPPhtHEg4BMCjBTUYi1WV3+1BbEKd8Aqpq3l7oCgwik3BANa8dPTdw79ebK5+pmBT7Du+9SBqc9jjEtNa729Wk4AU4mi7o3rWnKAtDGC46IaRNHbFrN3essZ4Dv/tfC2mXAdFuFTik8h1IarJI4CEsEASFPaks9vCetmQlcoqog/OEFiesCdQo3ITDxbh0CzDJx4ZDzVIx2whLBnejOgWhTjOxv/q2VoakZWXh7Oeo7BzFNjbuNICEHMLnXemMhNqOuFVd81/aiynQ+P95Y8RCNe3oZTfm4aubIz22IFe6+ovHeGiuy1LIjHqPiWJ79fXAKJoHB6r7Kc59xxBLyXqxv7jEYycnHOezfAMHYriG8xRP13pW9GRmJsH7rKNvTGc/Mr41+/B59/QQKYA2nh2sodJ64q2dgqCyuolhwgMWzSfYfH0opfgZW3pFnSyb8W5312BZmH9AvCS/z791PnpyTtOCjStSSmafP2q1r3/K5Lm07nvwdLfw7bbd7wzXX8jm3z9MXJh8w6OLPgmOVl9JcolZi35b5vme0ZDAz8tYlL0Sv7brtNE+UqtXIiXLtSikublOGdd0FiGBHdaWvLvMpbdVEVSFRflGw9fF5MxMo2hcWtV8A70TMseujCGs8pnvWP8vQj1kGdeESuQT26iB6auo7bub8BQAAT3Yk6LvccYNViXfrcLv7pOXys3Hq/A88VG8T4BiP+GAKMFd3dxl59/QbqmM+QuACMY5gYzfgN5LwH4+rOAib4PgT/H/IMadYrnh2Awz6hi19jhxC/Kc9gGLDYNOwAHR1mDElkHseO93DHWvC8Zxl1wKod+vg/rvqQDDIkjJiVnBFmPQo2g/mUCnAtT67R+s9z/OAZ19eHlID3DNNl37c9+y5tFazgBLh/zjwO/meIs7wz5rW/6WWgcZVxDRiLuy4lJJzrJeCJUaj0COmkr7LUbvRE2BLTtgaAzs4QawMBiITNaQUHAXxFBBLxUlyDdhTefQwxNvun647bojEaDuL6tYJoZtKOp4iOZ7gJ0t9Y6Y4EIekEHcMzsc5Mjzbv11mLdqVi28jprrpEpDaMhOMNhvAA20JkToWVfTwI57/2f22dN410tvtT51fI/Wmrnn+JMNJwoqgOkZvjg2FxgRgU81dbLlYr+csqqsKcDJ7T6sO2Z/8baM5oAGT9RjzbHZ5NVQUM05RWUvCMr/AOP5vjpjsVc5orBVsAi5GGO7IC13abBlM+R64DJjpxzJwD9zVDAgs0fud6A4IAVzkgwb0SMozf9wFJp9pE1QOIdBz1YiIwVpNKrCYfmKuaWP9ZZVgIkgQmiEQdFVmIFOWvZp/oA/sqFLqrDfkCFUVpPLe6axDSgF8mgpJlIklQQjETqEAIzwlig2gmYwV9yy11wHbA1GmqAMY7pIEgJpBJyH2smSjPpwuVIdSy2pO4SfzCCECc71NSsBlEKq9J3Ucw1qNtu8IGfyHaAmfGbzC82XK7YjMY2EPo6sUnC/1Xq6HAlGrAeAsYlHsOPAnaloaKkDH6IUOsq5WKQ/o0nrXKGxOoZv/JGLYNi8D19NLgM461FxoQ2jtD9QYBTGI0CPw/7lUc+f12eu/HQOg/eQ83SCGSY/Lvw7l5QDbWJ3iOdRCrifeQHohEklCD+460Rct8YQC+Vnc/TIFGvV9s41/AlZT9eBouScQoCnI3y6l5uhRNBAeDeN0M3sF97qKsGIOuw8DAH8lNwDuxnsETtrqwmQQBUftSYQh0Zcp7sfDqut9aUUr4VsMUMQViYIS0UMMzwgrUXO0Zcox+WgPe14Ah65oKVGfoRtSGXCuwq5rng4yKMRq4/3PM7fP2uLmvRYUObUa6NvrNp5EX462SOJCObdeH6GlWnqbBklGP9PAwSQt9/ttTArTdyEF5TRoqJXp1LzXUl/E17ord8y7elX7H3XEdP7mveNfqQU3LfsUKeAHDj5NjmrUt1gVDU/t+1rzt62OiEy58Ef9fzt94zpY4NfmuCpW4Gu0mSd9wjf1grRKRRUr9B0G0hy4ojn761ej4xHQY5xh6TGPdDtGlca4wEDzLSne2Kdq1NTkaZVUq1KErArXXz2h+yUeq5FH3pq0VFYUx7bvf+DKIqtK1+7JXxN1Y0vT1B6OiVFlpwbcXxMZs75WfOe1iGD1bRTUbklWYuzA5OqqFNgryKC7vlBsD9hfX8YMzImL6zeO5stL81qWFs0Xvbob32YXTH0FdGBkXbW0qK8fOnVkdo2H1dJX8drJOXCpft70EMcQxlJPCYmAurX5ENYnfGe2aczTGk1i6uX0GrzbB82k8hWG1WkGUytJ1jLrcXlk856zwZmd+iHFksj2I96bKirzkrNw3c1q37biutGTdoYVRN1QkN0vaFBl/5eOYiy1oprMhKXFkr79yRlzEp4MZ7JGEECgYIjckdPn85OioHuuM0XGso/G8STAS/4rxaVczQqHPCYvqscHzPZz/DQgCDOJhHQOsitr9Zf9nwNBQGOAegJjPajyXYaXRJcchth6FlVJvGMJVByvNj0C6gCW/TJBQPLZXuTVi8IMeTmK9xRN01HVFpNcSTN5Uv+nNcj/Unf9zqyb2Kq29HNuefZMFQWzD4kRpj+c8ZKg3WyiK24E62RSJxXCq05wZzYdKSnIvQ7dFZWBaNs/jfV6kegC4fQpYdkEbqlw7bOPiblOtwHi2AcaneUMbPFeXZBOjJ549Bavzg8wHwX2/m7YZmRNcf6w2KKhXf6RKmxKTWTHaW59is7ENxefWh3G0NmN37qknCACxJghSUbfFhNJwNRKIvAwM4VEgyDb8Xg6kHgbR8n5OPBDuNTCONqyKBMKpwLXDAg2HxC66N4nDbdCCGAymc5+In/SZm33BWPmiiaBgQGMCPYvXMeYPbIblll5shjYYUYq6CjOLk0pfeKeRtn1kMQ2ZHIcd9qs3grFFbjLAaqXReD9Ckj8DsWu7AUOreY5qGKSEtZ6RiizTRumIO0Lh+jo+k0yCNhsZC4jsSIZV03Nh2Dfmeiu3zrRrvM8aN9PAhjSYm2q1HIOBl9mGaorNTJdIJKO/PtB+osmY8C7Xh/pMp/1+AAEiPohiPib0VyDyDbaOvhDnU4CQP9hIoXVOeh1ADN+CYUSSaWhporK4uQ5dzpt6u7/XYblxSdaB3usOCvK0XNOlJf2YcQzUaWXF10ZO7Hvg93kItPFgIhPpkrMZAvKpsVVc2tlbtFFt871fAgafyzZpLLEmfbMSMu0F/NjMZRqQ/TaRAtxjBSxY+s22I2QzA1SeRWIn08Rz3gcjPMYgeu125D0Yz+lmMBeY4MeEtxAZU5g9n2m+P1dpaUsDZ11QS9dvsIu3wtgYlCfIrN6kJZmtDzmRjnWZhH11Ly3qYAaMbx/HMcBTEI3JfcNtYS+c8iiMhlEkfiD0HBBzOVULEU0Naz2rGPsNrMFzdLFUU/z3ZsGmsQwIucbOUdBbuNnE1Ue8DRgDogqL3SK7CT+ujiCgWW5ispgZDJpVgT+UVCB6L0Q/v5nvYksNU9iWqhP60UY7mzEy03KVWarMGNsAruiA0SztQkw7ewnvhxHzERI9DaseBMyoxVJeA1x+0xmd9vvQW0PpS4q18tmMJgyEI3jWXcIEce9HDMwKdI/ndcz946ahkFJTMH3AIPq4LUHtYERmMPc4bfZDCFCXtwNWFiLq7BasvIOAmPE4fzLE0GIzRBcIxq3PXUBWyLfZbXWVIKyW9sr5tTcXIiUQ9HUoVzczhRf3XUZXnHuFRa0/EMXbJjLaDEFXU8LzWjEZyRRLGSINQjlLCInP4nZnuK9ciBzI2R32jXhvdRbJ5CgZsfqw7aOvlhRkiODr8N4logr4mkZKNFAB0qg6yMpvhzHn0CVI/VxnMW6+d6ptRyjjN4gQlteaB+fGDgQqCjJhTJdGM2EUqjcHTOVBsw8w5z+CQVvA8T1buvzCsSEEA7H9tA2jD03R1DaiVUI1+MWOBHxZqwaWhPCdvVKuwop3skw8YxOwkngtiIJV8zVPKYBxAb7AAUZxrSA0DWduhsFt0a1ouyKMbZI3ycJTatEMpSLb78YlOvYCKdVA6Nl0wxl1EDfheWk49yGuTacKgHY9A00jA45gTHzNjEUQ5mDaEoRpMLaDcRvVJBz0AeZ8I/MttPiNb38pz24YYQ8IsSXQbRqMVOHtfSgdwXZ0vltK9Nh5yvMeqitgXGWi/jHgrD7CsAPB2rm+hyBAGwI+8+hatIk/AitLLyCiruGP7w2i/2M/wuGsZgSE3kXxGQh9An/Tzy06ujlMhr4KotjGyLsCvYasNpQAGF7LICEtJRi7EkHH1vsuysdkBngXN8Pw3DnJ27MRncl9F5phdXyMqgQJGu85BN+vc2XH+1bbQSrQ+CE5DYKk1RvEWUTPjDACwGmnrU5soWqBfod6E69xL1UjbbOwxXAmUwVTdKa3qGP+CrkGGj+vM6xa+gITXskYCO/MozCW6plpC7IZsdfCuME822mzjyEAIvgnEJBhqwOBCEewRoAdYDIY4uzrIPaXMOlrcL0vkDyDagRDZRkvL5Z3M5TW83Vw7R+C3OijQ6DX5R4LJrHT/edp6cZ4ltmqygQWRhX3G42ANkL3ZlgwLf2Bnud5nQwi1Hu8tQcs+5AhkskgC/JLwgjfrL7UnjkZvp7B1RUwf47SiRsOeVN1YpS/Q/IxbHeq1+SyQH1oxotiLDTueszBaoz/PO0dgQRD5gwp5gJhBnpHLFSwJvNkNGUwz3Ha7KcQAHKeDCagKx7ZyPSZHY/QDohRwIQmMIwtjHpjQRIawOwVO5YrGQuA+nJNUa9mRWPxoQcjSgKhetB4KAZIEIY2eJoHKxQz9p/eB56nMYztzUy8/RTcIQ3LSCn/hdZ/Xzd75m/YsPBZPZkZikxe89Yf4ysgwbyFud8IeD7gaZcQPPFU2xjxGNLLOY33XwhgJbvTthmMh1dB5xeA+6+mKsDf0IOLId4OpWgNYs2hi5LuOluS8LrLELPkBJm0e4/htx7htV4RsjydDEgzBDxzYLBQA8HooquN5aB9B3DYLgQI+K2ldOH5fpRExJCqbUCooGyXZa+xv6Vm5Ei6Qr80lOaQYbt3liKD9SJRgdk+YkoL5m96MwybT43NZWgf8cxtcIyODQBDbffjDJsp/BcI9QknWgfoQISFqpBJhsBXASPQmW+2/9ztV6+xipent2UbiJPa6s++aRMIBA6Kpm4VA3sQBGrfWK/DTvKONxsJbSsg0oftUmg/mW1gM3EbYk240HsgLkQGMol9gAFmrPUI5qA9LJIgxWIocj+klMm2ejYGBN4TbVPt/+8xLZ3l8BlNiWKv1ewGZGh8DpjGDOBQMzICtBuL8a8D864WfNZY57DBvxd96YbqMBMI0g3i+Zm2jviAXNeSQenyfsG8MCafFYrmaiTaekvACsloO7uaWIp06mCe09jaUE8HIT/KuAqodUO9ie6eDEPbeozaD1oigFTn9hhkDFvpGQwmfTAqk2oh7zErRDMlmgxI3MoMJWcfYD4PeZFWBoMRaPsIbAw36IAsqw7DD/j8pI3TaWfvYKBaY5uvBv0+/gxnjMvH6vS+pztS2xe23jLPDr0NKcUVyDBVdE4glNdVjASAvl+Udnj+JjsWIeBOTA16MoIYvJ32nGkHTk0Wpkn4sKAJYz1wLpVEh5W6hkeCcBXCB3PXm70CvjvwyTKZCuIOuMWe3mLen6GYsR9msVu+AmMs6Jmi65a1GPA7A59s4pHeKi7t7AI73oO2njdowKbBlZJEECBwmtQXBGgkgl/5Aqw298CVNhqc/X7E3n/IOv74/wIm19vW7GG2y22gXU78MtoEuOFqqOMSg59phALi/aKt1sgXoEsNq8nFRHIgT6ZtENPeAuewIEBiYyUm6ux61UeyFv7rqk6S+0Hx3dxxCvMez3oLmLeDCVuBP4jxTjPaEnPanuHOjOY03bdM1Q4F/pRMWB/S3uhWNryt9o1xlOGjVUhpB6PxJ6E8Z1+3bdDpzzTo/P37Gd+163zKX668cVfHNkmP2o0kWldpW5W57tfT4V9rUpwTGwWEyItvc9vjAmxU4mXNYabb8uMzWo3hyju3/3xOYlL77bty553SPPHobzN3rDuodbsjvlbhSTvRT3mzhGE/7So+84Im8adObhKRnlK687m7kbp7pCqc/lm5vSMRFdZo/rahXVG6Ve9D6BwWBFBReQm+kFFqbabE6tCYs3FRsS0z8Tub5yIjI60KjfZRsGPSva7cOx5jVWrtR0UmR0SrGWdEx542Q6nb3O2axLTbij9PgfGnNa24UCeCYfetUair+HOI8I9GVeoo7quF2oylSCXXxumwiNYl5WE91hYVpnbBudiCgt0qKs6q4crfcR0vflWp50J8lNM8ZAhggrmv31J3AQ67ig8t+Ky6Q4OfXMOq8S585JOp7wfzIHtr9sNocMK9z1LUxGc9PtyLYCd80tzs9H80HlFCkT51BqFHeK3YCxhQRHXEFmd3eguFDmZsThsLAtwUFvOv98jkBwzkrkCwYUq1vXpvgwR3UTDiPOtLMrANn18N9aAU6uUSBmiZXgW0PQE4wj0mqUKwWAvzPNw1HAONb3+4vt/s7Ui9Pysrq0VZWVmT/Pz8+JycnBYFBQX0w3OM/HChDY+Liytsl/D5KV27HRqVlzHhNlQBVvFt7nozKu6SMSqq7xqs2qXcTCR7/c2TY+Na6H0CwNdVUcStMxPa3nZ/dEzKKlQK1nsF+jpA7J80bx5fGVk0StcmYLERVkNmxWM5UGAkr8h14syIJu1XYK9HvbEoxdDSbYfPQdGNTBTdGIA9Gfqh6u/X+F+e0PW7Vlz5uBlsRJOuf0m14v0BCRrqGJhUBXj/wvE36bCmI4qXsBiKz4Pl2PM3HD6P81hW2UpVuFJ2oApzL8zFTl83wc15R9mOy17DfLubcOXHfCaL9GLeS3tI8baL/oqLa6YlhLCorkVxiX3/XLvlsPf/WtskH21LgMN8XmVSUlJWfHx8Lr5zEhMTCyEF+cXLvTFPe11lWLt2bZcVK1Yctm7duh6rVq3qvWTJkiF//PFH39hYq6K2j8PeVkRfDTv7lDA14T9hqilG/8JbHQp+W7bsnF69SjsOHdx96eLFi2emrbrn0aT4NiUJ3X9pW7F79gW5aSPejigbd3ph+vbY6G4TT0cfrPpT42BU4K6siQ9WlG06KLJouvZzo5T62KiEW5+OKEkdUJRx9ddR4ZnhQI4t2Iy1Q6Rr4SWuJq+PYj5AStcnLwdi/Uy9Fm9SDuSkqLoVFYmXRkWVNAUr05WTUHFJI7Bz1A0CVgm85y6geEZm3SQ8SVdQ8ntEdl9ZVDHg72i1pCfmUYU1vf4TlJ7K83dPePMLx5U2yz4oSr13B1QFBbVAxbZ94QIyg7S0tJTU1NQjli5dehxxeeHChYdC/enw/psnZ1x2Tn4bMAOFSlhNcc/QlYumDz3/mqX+hxcZqY477rifevXqteKggw5a07t37z979OixrkuXLn4ZXaDX3q+ugwF0njRp0uUnnnjiLAyMhO3zExYW5vL1wSqv73v12W4s963jBF56qhNLXenzB3dTrvEvhbl+mJqsr331fpeCxx577NtZs2ZdDOPiODuXvwTE+yZE+xrcB5y9u/ZhQwwV15UdW+BO+pE8BIiCayAyvmsYskbh/qDclPvV5DTQwTBq0AwK0zEGfvaElNe0g5Z0sRWpzhwMCJjfArwo0XU2oQa8+Nz5y/3h8bMjhxXaagNVBxcYhMZR0LtP/A5EG9dff/3bn3/++VmQohteHgXFfzKBvn37sj5gNQbgj+j9XSMwTxrevvyJf3dxsZAnmcIX77ZzQVpwXXFhrGYCnGieJ7Lw+6YrwtzPnv/NUF0mnF4Bb9FkOnUXrirRSTHx6/gbXos7iDREJgbNaMu3vfMPzjEuXlvDoWN+xRoBwSCY06ZuEGBAGeZioSSlaYYQRJAX7E6Xs61mJkHkT3CUwIveWAgWi/2ATIE4R5SIiFAuLlQQ9TWhy6JFHGV74iA/bNs0xmrHD/8HQwfSrycNYXH9EQvd8XWD4l64G4wg+sUXX7zbGxMQYAQDCLMNGYEAMSXZkgKkvp+Rl6/PPXp3U932iguT3AZF3sPxUJogQyAzgZSxGgzrDoh8Oj6d1XbpHgKS6VqEqEz8IpBggkgKdlGTv8EkNmmGUJbq3gsB9yyycyQ+9VYzcS+A/YB9hI7tsA2LmCNUwir2mezFaFW01SnuItmB2deocUlgQqrtBjx+GERcjBoQrACtV3p++JtSqhA5mQI/Fp5auEaJQJgBv4F7bglBiDxUOmB7T7qiKgGpIWBxmX2CIBRn6ksa8ASWMASu+FQJSPzkwsnJyfqb/yktmM/npHHyKT3wPJkEJweqhFYvcI4GnMrzzjtvHsb+L2QPfmanMD8hAEQA02vVogptizbUhUmUEsRqjdWAewYWm/sZ7JNJOMAeascGzDSiT5EFWTPuBPELEayLKIwAjH075qsQc+iufgRRPO7VV1+9f+DAgayy7cYl4s1n7/a3JE8wBK78CHV3DeqnXdeaCVhSgnXPVZcOcpGJECf5zQ/vFTz0pzaEwiTMMWLMS2A7679fTD/VA+g378gAQ30pf+3ZJ7kv2wjARWXgN68f3CNRA5+MwgQSJQmKhvzm5JGZUK2g6iD3etolbIbgTmIBwb8O5NlJhMPKMEdClD3DY+3kplKoDV8Hk8+wX0xcIxgE94vwtCVgvjYwKAyi/iH8QGpjiLE73RmSYLUKTpAS295+++0T7AXCjUOCd4JTD97VRzMDkRREJRXJgO3ZRpiAfHMBooQgi5qpMtSGZjzpxcR5SDX31HVa6+R2BFfqO2zYsEXmVlt4YdYuhKvO6joiwqUqKsJQa9/F4BL81rtz6yM8nNes37ikD7blPVH4X1qGJbzSupcHVn11weklqlVSupq3uIU68cIsfd+3U5JVl/Zh6v3Pm6uJkzeq04Yr9e/bkhX3CIiMtiqo78rfpBLislXa5ih104NhatnKYmsM3CIcz8EqUDji2OWx2EZAhSW+/n/QG1rHlDx6HTZA3Q33UXZCj+WdK4oX99+1cegf4n6EB+LtiPJfTobHoQuHiI1Gr4uMPW1iXSfFuT84CDCOoCTzgfeaJ986elf+4iMwXzfLNvemq1j2qGCv2Dr+rSbJ/7kJC1n4gw8+OHHMmDFX8rSFg1X4GQVVv9JlISXxefyYU9TxwzapZs2aA6f0Ng1waa9XOfmxKi+vSCUk1AxxiY7crjZszFJ5hR3Ug08tVZuxS2RZOUQJF+kDqxlwJgzRavxPOiAu41HaTa5pATIs8Z8Hx1NW7ptchUZgX5g9bdq0M+G18+pJCw6ytWgFMZs7/rg5qnAunjO5GFdh+fC86Fs0srCtfMtqzXMiDZhGGIpu5M7vvtbF9fmEZtXEsCMGKdeimdHVbAuUGnhP5w5hmkOLvYF2hhOPTXQbhfg86nxmuKnnbzvc+BFIAO9LZiNWIb3PgJ3cpLdSpzQBCWFQLcDp3FJHCOiak8b+DmYoOeZtIkun25Le6tUrPqZ6S5VR4wFwz/3bwj/LSMhv4idxlis+8U9sA6YkQKmT//ktH7YVWwN/i0orKobgvUlDIm1YBsgqr4RFB9Y4+PGkMbEviPTB63Tv1waktdoOHrrW7dC9v+IDyVXNQyQDOcfVl5yOH3I5ckZywf7w8kOvUs883ElBnFczP0pWZ56EVf7Nk/V16GKaM/PD49STB6uDBn+peh6coo4ZWqwSmy5R55/ZQ1/7DRGvU7+1KpcvWRmlCkp6qAXLW6muHYvVM4+epAoKw7WkkFfQUg3ql6R++DlXc2NyZ35fedP36s2PujAMVffBIJQZ329XX32zWf/mEZZ3xzPYUv0Kjp8SAvzQ6daF5nhDFYHgIxXe8sMTseORFX/rHHsVAiVFm92l4OIPzo+LbLvAnVQUlXj/vRGxl4x3pazs/uiLzVIP6XPxl5w5DhCeqxLgaBjxjQfUS41zXHEpzWr8xep9x0Opaur0YvXK2yVq3bq1ql3SXIWdq/Q9lA4oJfBI37ZCrd2YoGJc09U1l/dRUGXV+Vf9DJzsrWC70gf7PPSQGAV1V428p5NiXA0YCSTbMPW/t5qplOQwdcm5SZoOSDOgGC1NUFqI8EGxpDuOW+gRcQwbKMHv8UkwvQjCmfy7Cy1ui4G5pQGuyFy1pe6Ayc35m54AclTq+pgwfS9ENm2wIQemvYDfXPXFtcj/dqxBjdWefZKz054gnJfcVIxBlCR++TJerwD0M9OIxGfyg7GushNVysUlyfBlSguMfIOd4W3tmcg8m+e+8kzP3eMT4jzADQFGCZr1GTEf/8VnLBvQAwZxeonMK/T9DEqWnGviEPFHvtmG9gBpSxzkf7YhHpkJTuLGFAmBONXn0Na6LX/zPJ/D/9IfmIDrnlsP0X0Rh82MTOKS2MQoYRA3RUoJ5Lo0PRjyLLgnjwsFRUKyITC24Oqrr/6AD/CUBHw9NAIyThTyUoqgspMbDhsQro4YsEnFokh5Vm5b9c6UKJW6PksN6NtC3fXPtnplbpucrnr0OFgx/POJ55erxKRW6qGnN6mfvxqqenYvUnPnF6gBvcvUouWWbaFNmw6qR4dFKinZWs2xZ6H6/LtO6qSjy1RyYrqWSnhk5rRVn86MVv96ZL2WDCwdzpJYMGnq8/cGYR/CUt3/WVem6XvAEDYg6qzrmg0xa3oOmXJUZfmOlMKMRydEV06vVjcQCTOvxrS49W6b+YUyB07bPQwBeBDiBw8evAYGxNaQAEovuyClSebOeHX1xS31Kk+bVM5uy+FQXpKhMrZnqV/+aK8Wr0hSndpmqvLKePXQXd30qg+bkgIuqG1bV6p27bHqdy3WIcoxESvVhu3HqGdfWq4+mJqjEJykevUoUe3aNNE4e/tDG1TzGEutf/Sedu5nLvwjW51y9Ca1JaOluvvxLNUWheROP6mtOu3YDLek2qxpodteJqCirc3fQboT6ZoeiEGDBi0LBsxBMwS6FaEmUNQKyAwobpFhiKGD94ATq6iIXHXyUZsA7Bbq6EE71Zj3O6h7H9ukx0nRiueiu1ZqYm2RqNSXHwxVQ/qHqSVLlqpXxjdTq9YWqaSklqpNcp4GbvoOpR6+Z4jq0rFCtWoJY2bRQjfhr15v7S161MCdGrCiDrz836Vq5o8VavY8RhZXGXSwAqicrJXqyYcGqqYRS9QP87W0VQZDYxTvv/r2lbujEy5eMH78eNY7fA0GrDuEoZTFPPh9ZVj7lXHJ5z/jLb49mIlw2uwZCNjMYDWYQRusthqHxj7fVy8g5WEDtFHw119/VkceWT0bWlSAiR8sVONe1MW03AdwAURfSHUDBu3qpRZvvW+BWrelnZo1eytU4iTVoUN79ddfK9XA/p31/Q/dskkvRDf8u5ma8kWhXozgiVDDjyhS3Q/frnbmKqjFrdXirzPVktWDNW6TSXHxmzo9Xz9XaMvfokyGwEOYAt6/M+IWLGKr68FADfRh+10tFcDXh+2qXCxWSDFFMRr9KA7xN8V2ikumq1AiD8WgyHZm/jqvUwQTYwzb0Z3IPijCsX+KZWJYEuMOr0ncAsU3/he3o+ky4rhvvb6X7oPt6GIynw+GloY2la+9/NAHEENnGkFLufBxfxtMgdW6zoNzf+gQgJowX3AXKqcONJLANv6m0ZnXiUuce+IR1UdRTe3sVK3iUuUk/vAaoxUF96je8roYHYm7VBP4zfgDiv3SViJqBfftCFzdL9vyP9ub/wWvrf6SbLXXUnnFUB+IJsEMNjMeI3QIernD5ixBhVua3gYhbtoESEBWJKHFWCTYg/8ZTSjBGxZAYnV7Tgxfmv85MZbnwAo04kdCRBkowv8EGPUu2ZBEdD25h7ogzxER5Jw5XgY6sR+3pdhOZRbmIBZm6Zfn4W24HOnSDS++vF4wY//uBLksLwiujBk9VNulhBkQJ029nvEswhCEoGUBEfsC+5JzxAFGLSJ5zbQ36YWE7WkjEAIWOwGZDRmPMBbPBVEWKjIX9sPnyQJI3CNNSNi02L8kXiKQHY99Id5C21P8HQG9DADqkxA3OoqYQlHEVAWkczlnXqPYDwCq5KRsravfdsOhqn2bMK0SvDt5mfYUsE3H9lZJgbnzd2lx6p3Ru7VacdTZ+fAFKy0mUb2gp6BHt2QtqvGIi61UxaVNVOeOCQrAVD/96lKnnNBRqw5muuqFZ8YrrATqtqtytOpAcTB9h+Ud4XhlzBAvEQMBW8eorWrcpAq1Km2wjnfgM3hQlaCNYdo3JQqpz98jBbZ9eVjnhSjCkRMI0M71vQsBGNNOfuqpp/SO01jQ1GtvLFCtWuiEU+2FKlVW2UMQpxbtb7oqXnsIaDt48wOXys5LVN/9uFm36dVlkdpV3Fy3a9c2QZXttlRTV8V2FRfxqcY9egpOPnqntnvxaB69SS1f5VJdOsUpqq+0X90xskSVlCWo58e61NP/2a6GH91dYZHU7ecvTFcdW2/Uv/sfulvbsUgntL1RpaBKTBp66+WBiuot6UJiLuiJYOyOJ12a/+l9QMzFrXXKgYAxoh/fWz7Chcz4bc/4ATPugP5+RmqRG/O3WFClP4kapIQg3Jpc0+ScIjGQu4uUwPvlvCSdCMeW1ZttyHHlf2XmCLc6IRICuS9FMHJyxjeQM1Nt4PuNOPUwLZ1Q4iBXp0RD9ef7z8+hHuZ65IFLfti7KO48LVgIwKPQBHNHd7DGXa7WogpKXgGlRfFWSTg8cYwxLpKwJGK+7UXSuEQcJP6wX674gneCX/zPfoQu6FHgOdIAn01VQlZ9Sszsj23pxeB1XqNawXZ8Bs+xb0oVxGdeo3RLT4Y8Q6Ru+W/GJchvg44rAZ+gCgXVgDeyFf+0iK96hpYQvRVkZAVv0CVIkVvEbt5HYhJVgf8p7lD0IXD4n4TG3wQsASN2AF4j8QkTEF1estvYjkDhJAvBc5I4gcIgeK/oXjzH/xLmSl2PAJaPqBhifyATk6ASSY7iBFQB2posMEy9Watz7F8QQJzMXYK3oqNzrok3xCshIM6xUbFZ45IkI7E9f9sBZxqXqMKyDfFJrosKKrgoDIMLDQme+C14RRVD3OriLifDIO6ynbgb2be5oMl/0pm4KgUvhd7g1dD3yHkz5N9Ui9kGUv8TIc+YnUXl1ZAokVNC1DCquTPCZKUnByZhERgGd9IDlhgCWcEl7kB0Ld7HF2c7ckgCj8xDbAvk+JxY3i/MQoxDXMmFSchkcnI4BjItmfQXHrVyG8ToKKuF+IT5bPYlnJpI5BlVacfAhwxb54Y9CwEsZH9ZDMFi3Fx9uSBwjoUQJSOWDIH4xnkWIidOSW0N0+bENp5xCGLs5nNEoiDe8NnEUeI0+yfekyb4fI6FuCfRtcQ5GZ8sjHy+lZwnRkTrXfgM0ovYGyTHQjIyZSGTiEhfuQ8wA9TYFMfvrIDzUC+uYUi0LPOWxMAXlIQPcjoCggMjJ+V1YQhi5bezDN1iHAFPQFQFC1kvLGKUnBeGQqKX4iiUNiT7kZNmeS8i3VKDMB1eEyCJwZHPEAMTf5PZcGySBMXnE+i8RoYkwBeLroSPYlz7vOTVniWthtc7pLY+5gIkVnvipkiE4jEgLlnSprVgEJ95jfPP1V2SlSyDd5K+LhmPxA1dQMfGPeIPV3oauMUoyTbiWTPHJL+FPiRzkueJ17yH4xKmZqm2sRofJciOzInqrTAsCZwy8Z304C3Umf1iMXvd2+x6NSpCOjgbBrZEb35OMyBicP8k1oxTT45erZ75zybFElELFmeoFq0GKABWDRnYUhUgFoPGwAdv3qT+/CGc26ZpI0nfniXaSDJ6DDI+9GEZ+V59K1sbSxjKPP+raPX5xC4K+r0Ocy4qdmmf7LRvXervVJc22mzLHgBj0BbtK85eUanjFhYudanDT1ugugzdqjKzy9Xt17dSmFT9zf8JzQv0sxi0NPuXXTrRaT0sA4uXFWuD0vqMY1T71rrYrzbwMHAKNhBttGG4s4Q843LYfpuP3vBouV5GPHHixJvZEROEaCC2It/L1PK/cnX/hcVd9Xfv3kO0UZtGRMYKMHy+e4dtas2azYph6GecephatDRHG6DZ7p3ReWr6hHRdQm0UjIJMrLttZILu67WngXMzwnWQ0rI/LVf/YtRU+uQLy5i+FbW9GRJN4yNxnzE3/DAgaeacNhrvOFYaEb/8zqWWrrE0UdIQaSDnr3A1aUxvHafDYL6kZkvUA3e0UycdE80K0Oof1/+tRr2yQuN8VuEQ1ecQlm7kUa7Dnb3RMQyMt5PGPYHutabi008//SQbSoBRzZmy8gu2bY9WcdjShBYcz4ORhYnNN2vAc6CMBOzbK0wdfHAEzm9ULVu21VFfSv2ubw0Pw+DBCHaXtsMLpGtgHnxwR3XU0BQAbpG6BKlUYWHkX+lq+JHJasGSLE28C2/7Sc2bPhBMp1ylpJyp8nM3oI1lM2GAR9Pm7RFJtgHXuqodO7aqlas2qomIjsQWqurwIQMwUenwdBSpwweG6Wfn5GSrpPhCPSkFhVswUU3UtZco3FNsRzda725lobnUe++9dxN+TKsJI+fM3oYAw5OR5adrsDMzkNZ35iFkZCUgErZS5e7qqIlkyfICNWNWvnr24cEgnvVq4ZIcBLohIxaehA4dumhPwd2P/K5zZBgE9+KTAzRToOeKUYmtWlgE16unlT7BBSw20Ypg/H15N+DlCp23wIjDYixgn74Nz1pT2ueZ67BFzZoXq35bsBELUxN4ypBei0OyHgVmSYnxmn5WrO2svvi+UqVtYjBUJRjXNh08d9GNi9ULT8Ro+ist3u4GdUzkJp1diThgO3OyZpakeAzffffd69CwWjp4jTmzs6S0uOLNt0kRTMQQU4SiOE4xnSqD+G09vQqi0/GbIo8EFPFZck2MMxTTTVVCgpsozlF0EuMJRTWqEmJFlrp3YguQ/xTnKDKyH1EPeA/HKKqB1FAQSzHHxXGIkVECR8ysM7YJWR/b25RygDxPivQIforVnTEGFMs5l1QF5DzVXeIJ551eMIrdYvTmua6dLDWC16TQieCTaUsQQ6FZBEVwh/2zUhdVEcFZXuN4xGbGZ4h9SgLyJO/GzAomPUgOEFVeGhIlFoL0xzGaFZ18VWfi8/mhWcDc59IrmjDuwCJQ3xGJZq03WjkZnCHGOrjl3EZEvhwBcuRg5Trm8GZa5yFxSRISDXsyKRLJaBlSYt2FJmjdF4ZBIBL4BAp/G7q8bkOg8Jqkpkq0GfVHyyiZ5DYSsj0n3Aw2EgMl+yDTYHv2KYyE90iCCX/L82HVvvMAobn9+jVZC4DzIhF8pg2KBmXOJ+eWc8oFifNHwhIjNOef+Ei8bdUyTLv2iAfi4pOkPGEOxC/ic1URVcu2JmNgP2JUlPP8Jj6JbUHsAhJBybGwT7GlkS44Zknll6A56Y/vRfojIyAui73MLPDizbAodkDEJQz3O6kg8CxhCN6kBDEqevpALzy3rwYECYYfcRuK60ZCfcXAKEQuKzfbMRZAwkJ5XYAilmExCjLqjNfJ+XlNr/r4rc9hAslxCShKDvzmeWnHVcIqzGrFH5jZkhJ3wAkgonA1EQZjMgXCgEAWGMCqvWq/ppQDYHC2lKbnWohB4gmEeIg/nFfxIBDfKBVwAeI14gLvJQ7Jii4EJoZlMgd+uLhxxZfaGnwGaYD9SYYu+5WCv8IkRCqViEPxpInLkQyAeMf2XESFBkjwIvXynKc0InhuSuH+ohiFIaDa2Xif6GHnT7u5nK9wSHmoWGdJ1GJlJRGK1ZTfwhAIULMOHQckTIAvL8EenAixsPK8SA68X9qLC4eckRNMCYCAZf/ifhQk4EpAjksviMQ58B7+Zp8MRDG5N1cGUSFkNRGOLX3LCmQGfeyV3PMDgLBr+4pIy2dUYjXJ1gyaI65yHklsknvAuSdhEndFnOdqLzEuUtBXYhgkNN7EF5PZCHETl8lISJDsn4RMaVjCnoUZ0H1ORsA+JA1bPGmS8yPvZMbdsC+eF3ric3md7yO5E3wnSZv2trCbuGuqDdW8DD/99NOJnBAaHTwtkxLiy+9unSwr7iP39tWFHWhdXfDtYeqQHgnq1Wfaqh+nnaLntWBXjLrv8dV6Iw2GGdOaSksqjX1/zj1KZ5pdc2eaNjjSkIdJUZM/3aEGDOivi6Ww7QU3lmrLKrPEuEvTQV12qh2QYW69ppVKTd0Iv1+KunvkMl2U4pG7e6qNWwgr68DEq1NP7KJTpelhOLhbmerdY6M68egKZJHh3FWb4JVI0uGjDGHl0e8wq6Bybk6mYopseYVlRMzP362OOTxR/2axFx40WklBCli3aVx0jn0EAZRDY96CPiRkl0ZqO+lPexIW/LFddelQrLMGabDblN5G9esdo9YhYvi808I0viQ2W6teeWK3xpOLzklRCfHl6pxTwzS+0JvQrVOlbsdQZTkYSs+Q+YtvWKi9FDz4f2h/pU48rqvOWrzzujDVtfVcnc7//c8Wjt54ZRv17U/iZVNqKDKwib9vTMrWXrPrL5FnlCNLs1wNOGSRevfDBerbuRaOEt9Jf8yIHPvMbnX2iMPU7UgPmDTmYNWzR5guwiIlCr2lFsj4ly1bRletPqoxhJkzZ57tOZ9WfUML8QW4t13fTe346zAd181c71feSlcvjUtVr78F18eQtroLxCKoUSO74FeUysppqW64aIt27Yw4IUzN+l8HDZxzLp+j2554XCftTiSh0wVIS+x52F+JLiMCiECjJZf1EJnfwLHsKmmlvRf8/uZ/x6rBfUt17jkPxpzTZcPj3n+i3h0mlf0v/LOFysuP1B/2FR3TSrtER95Zot1RZAq0KhcUNlE7Mou1Nbl7p3KVnQMkCz9YfTItRzMpXbkGcKElW2pEMk7c3zb0nnB1/tcfBBhiL3U8OR+ymJku8i1btuq6Gms399a1N9K2xCCHJl7j2+jHO2kPwyGHHKTTkHlsyeypFiy1Cn4u+7uFSt0yWJVWtNLXjx6coesWsMYnD7rfWVfh928HqlNP6oeaCIvVpI+z1XHH9NG1N775EXn6OLiwPf1yEfDGqr/Rrc1c9dNvcBPgyMlepk493iL0J0an6XyZV58K0y535v988MYwXTOB3jl6wuhGJ77TzU7P2csTOqlHRu1SFaV/6z6ef/JY9b93uujfxFnLDRuhadiqwlRVxmDevHk1d8K2kbmad4Eil+ghbgOabWSTuG6zuhCe4RZ/qPNQ7KE+xX5oaZUQThoVIQFU8yyYaoIEFbE/iu1iaGFfItpRPKKxkmIYz/PDsfA6x8rzfKa9w5Nb3zdLtlN0o/goYxPvhQQ8Ubyknik6mzxbPC2eIaGM36g/NHd6ChYCdhZfwF2RiEtiN6AaIFWRON+CA5JRyzmmfUCqKxMXqXYwYE1SmCmeEyekVDvbEO+IVzSui2pA3GQb8UaQHsRbIMF64l0wcx3E4Cl0I7kO7E+M4aYazuczB0eMpBJtK+qDt+hF3mMbY6uD27QfmLYDEpekWvJm6uI6TNKO0vIViWVZPkdoYhJDjLgUJQ2UA+Q1voAknfAZErYpadOcRDHuCNMhUAh8Ro7RyMi+OTkErMSFc5I9jS9ivDFDkdk3J5n38cN7CGjxWoieyWeLh0XgYjIFADbULcaDxXmnnQ8IMJFJcMK7m9zaLanK7hWrbUdiDBS7ksw/dXhpy3knnos+L14L4posNsRvnmeJP7FlkT5MfOb4aC8QO5gk6Zlh/cQ3/pf7dJ92+DLpg4yCY2Y/pCueE+OlvD/HLq5H2VRGUgks3K2iZc/FrAZ47dWtmoQgHgWxSMomFGIAlPoCpsuDXJeA4ctxUPwvHgD+5guRifCFZBLEF0xgcOXPx9buwk1N6z5figxEACFhqeyTxkACjas6J5l9i2WY93FyCRzZJp4TyfYy+WLNFZ+0hDPzeWY1W/blDfFkUmQ3KIeC9w4EJOcmUIEQ0wUpc26t3LHasMcVl3Mu12QDIL39H/DRJHCp38F7iG/EP86/1F4U47NID4Ib/CZtSMgymQ1xkguPMAueY+i/mVPDMQrOS11RCVnmffxIDBDPi9Qu+6DKf/GOeau9WANvJf7AUzqQ/+xMikWalnn+lnRic/87EVv4gmZRE3I5ijB8AclmNF2Tsm+juIIIRAKY1l+pakNGwz74oiaXZEwExyO5CMIVZdcmjkXKsXOi+VtENo6LzILnJdmFE8pnixriixmY3NaJSdg7jECeIrEH/hiCicP8LRKDxAlwziUQiHguu34RLyXmgDhFvBDiFqnSVDHkGnFVVFguljpxChKEuLjF3c2FS1KohQHwmVyc+G26zSVAySR8CZKixCA5Nzwn3hWOgZK6PNcXjDhuqZPgDl3+888/+xPIZriyFCeVgo00ktCIuKuQRSB26zlZ9neKatuuSK1Ps4pP0CD4zpTtKikhXFv2WZtwyhcrUOAhDEVWu6phg5K1R2DMO7/pwic0/k2dtljdcFkYwpEZPlqOUNMMtXxFoa45xyMuPkWdfWpTddk5VvinUtvVql+HodhJS/XtrGWK20rzuP26WNWxrZWn8OdqK5yahslrL4nQ8d/PvBat/u91q5bi1Hci1OnHpasHbgtTNz3gUnN/y1WZBcepVmouQlA7qOZx7VHfbrt7Uw2Wv5ZNM+zHef269957X8GF1/y1ca7VDwQQVdsV5caPC7Y3GqYtI7m1MUpScm8UVF0Lo3Oixj0e9Dpcfk6aLmhy64N/qBk/uvS5T95oqXMP6F3guR/mbEC7MFWCnX2OP2IXPBhKrVlv9WHhagddjIeh9L98Y5mWcncydHqTDrnnsau4mS7IOv6lBcjPsTwSC5dwJ7ko9d3sxerW67pgy4GN6txT++uCQsxzGPPOWjW2Zxu1LT0Ghsv1KMqSoY4/rrXeaoDH6tQ8XeadR7u2bVRS7CZ17RVD8MwF7s1euEGSJy5v3bq1enFI7g+HPqqpDBY3rZ7dSE5qlo2iCEOuxI8pmnC1psQgRhZJDSW3YkaYxC7wmeamFSLaib5jhiSbm26KBCJp0uSGUmNRMiLFliCqCZ8l/ZNrix4oZbUkgpKSC/szRaxAparYt/h2nZiEYEm0bu0Qe3CvwD04CUE2YLFwWrYF5LwLjoj6QLuViS9SnERwxSzFJiswJQPiq5Tzl0xgwVX+pzogKc1Cb/Jt0oEE4VElESmFOMn+zYhE3is1GCkpmDYDSiX8zyAq612s7EfPKGReszWEKrfjpk2bqnMIY67oyqHrgpVkmazUIqFEuxA1F2ptVTdmliOzHdmOq/Kjd8er+MSu6oHHf9ZJQyw9Rvfk6GfO0hlhvy6OVjddY7kGub0VOa/p2+V54XSMb2C5KlZMTujypf5cffsanenF0lK9wDGXr9iqUF5bb+nGo7gU7pncfF2+ir+5rZt5UGIpKc7U19iGpbe5kQtjHZhw0qzJNv0eVmkqK2ss0CGVbhGT8M9AbZ3rdYcAXL13sReBe6AexUVMSYHJdJRiiResvkw3NPGFeEBpsqLMKmdGHOCHbdmO1+UT0yRdbw940bktdYk+HkMHtdEJR3QbJh70p8bVUy5arXIKO+mkqT59hyOmJVe3pSuQ9MJEKGbzdrT3FOd/xjGwgjPLDjLjkhvEMPaGrnbG7/C6HJQy6HLELmLuLeXY9xnHZ+vx5OdZsRE8iMdSidmEFySEqg5ZqhoX3VxEuG31mHArTlvi+6UKEbkVV25Tl5eiDbLZCu0BspJLUQgJWRZ7guQdSPkpMe7QfcP+PSMKORYpsMK+2Q+Nl/SCiB1A3klsFZRu6KqkvUAsxRyrPItjEmOkGJjM6lDBrELyTFi/reJ6zrFHIGDrvCEV/pWVUUKaictSrUtWebYROxZXZ/FcUSIgXhF/OMfi+pN6GjwnxXnE6M5zos+LJE3pwax/IC5u4qNEz/I620negtAOnyW2Mz7DlAb4LPEwiF1PtjMUOxnx15uky3vF9SiBSe4AJXMzVtlckgEewlXIjcid/l7XVJ11WkedFsrV+6yTozWXY+TUg9DLKR3MnJWugyx+WVAIDhwB28N6nX++cUuB5noMyhj1WH91z8gFKiNji5q7IFYt/auJehabsZIr4wURVWjpW+u3IIwRh5lpPXd+rtbTUlLaqz/m3qJ6dstTN19hBZMwOpFcmxz46Zd3ap3wivPDUEe/tZoxKV9HfTHwhHnkfBbHzmhJBisdM7QQAStWhCKjEhnMYW4Y6g/DJSjm+++/P2mPUILTqYbARx99xE1agz7EdqBTojGnxOce3RJUm9YWXnGV58Hzb3/cWksJDFjbvDBcvfhEit5Y5aW3mqpfF1mP5GpNabJfz53q1qtKFBYude4ZSN0HPq5anafbEBeEhubMhZEBB+spLJx1gq6PQEmAz/3XY1Z19AefT1Z9D01ELY4StervDLUto1R/uHUcC8CSPminoCTOoEBGKDJAiXUWpAAsafGcs07S9BXXYhDscc30PYKXviTdzMxMhFrZB1wOFFZq1E704qt0W1nJIblyi22AEgM/5ErkXLQhkLtW+X+T3HsxkOOJS5BckX3QLUi9iZZcM9hJrKqe3JDjZfqnZFmSc5uWWHFlsh0/HI+2f9jxBmZ6Na+LxEDdUVyNZs6C+TuQpMD+wHHnBo2tTsOQIACJlmXva9i7/M2L2I4kfoT3c+WUsmgSgCQ4JPsuUCqQGp4WjVgubPFI8bfcQ51d3IHm+PhbyveRRiQGghKKSMZsQzrgh1IDcVCkAI5N6ioKPXHc7FPsdFKvkfTH+0x7nj9YGfSR654EWGs7e2MIlgHCivwzgzvYluckJoAvJf5Rukok6UkeRmKiYYOikKSdyjWpW0ixnkkbUn1WrkswE1/YjCugGsJajpwAilcSRSiZilLcUghf+jMjFQVJOAmceKnVL+qCNwNMIGZgJo3YiBsSsjuNA0NA6h5wToOZD2kj4rLgNO8n/pk7h0t0Ia/JfiBmYBJxwzQ+E2/NxCgxIAoBsx/eI4lNxFWp00mGxAVQjOF8Ng2T5hgkHoZjICMx4yl4P+mOtEU1gW34PmRQ1qJWVTHdVBXEWG7iqk0fFvCFIXgDsMkUBEgCQHkZ4ZxCdHwJIXQ+nEQuhVOkrVSLlYAhqXPIPiWwg0yIVlkBJvsgRzSLU4iv2LRhsE/eIwUoRALhs4UhcFwEoNgNOMkSdSYh257RiKEgH5/lhDIHJu7atLDrAYbEDMxYBFn8JByfeCCeBuKTpD5zYZP6igx843nTyyCxC+biJXq84Co9ahIvQGbA6xIyTRykzYt4J5KyROSaW8JzfPQgSLVyPo/PNhdIGQO/JWNYgp6E5sR2YjIED6ZgbYlNhgB/bhp/i67B39S3mDFGGwLjE5jV9dDtJWrk/2XpuAHaAO66vkyNuLJE70nHg/o493E857RolbZhvRo9NktddVGcGtSnUG+GyYSmoQOT1PgX8tTXc/pqfYi61PFHhsEvm4jYgwLtJ6bnQewW4Hbqhy//oVolYF886Eh6nPbW7VfdMlf7cun1YMk1Zptxb71dBVvVMw8lI+PM0s8qyzN1khWtwvQs0H+c0soynTSJyFTX399MbwIzeWqarq/Id6b1mjYV6p+BNtc0EVsyy+DKeRqbhTxWG6R37vENAdSfWLF8+fLeJq6GCi+ZW84VVli1ZOkq9cGYVqp5fCdssrIFSXMd1K78TW58iW+OTYMjWunztB2cdXWl6t7V2iuS3q0c4P+bkzajZqdLgfC1p8ETV5n8JxsNh4PyaMugbWr40e11PUfuVcpYA9qzmL340/w26txrtukkKsb0cIOYsR/g+RGR+j83NW7ZhzhcDq+J5ZVjXA+vZ2Wlq4io1jrLmAf3UKUtjPE0kq0r9gRjQxddpFBFRUVZFjSPQ5iBZEedfkKE2rwtVt1/R3+1eXtnnTWWtytOnTI81u2eYRcLllrddWhjpXEOPswKMGKGIwutjvk/vBTqKSbEbtHnSYAM1iBhkwkwG0xcnTQK8tiQukCde/lXuoAq3Y1Hnfal+uLrTdpoQmbQtl1nnbLM7zbJu3VK64rV8eqWB3fp7MaC3W31ZPNg9iMZA8+vXpurmQHfhQZQjoXAJZDEwBoKM2D/gqjVXDneAOycqxUEyAxqdaNxk8wtM2fHjV+lA9Gm/xinU4/pjibRE3/pamRGLIltR2al4m7Nj4xyaWbwzewIzQy4CGXu2Kwe/JfluVuwJExxoaLrkQsX8Za4mp5Z5XiisZHEyQWU7nziP5mBhe9Rukbj6cdlKEgo6qZL0zQzYE1H7pBOZsDdybizmCya4qI/amgbzQy6d22td4IiTfAcjfFkPpWuSO16lLRoAYmk8UukYlURAQ9IS5ovbTjkgqw83jIpV3MeciIe3BaNnOnw/rlq5uxEdd2lSDfGgEn0/KaFnwcttTwXg5crQ6DjJ19Yj7Uq41YRkgzWWqVRYXnNdvhfLclgd+lWEPxaXQCT0gWPo2Fl5cGU5bYwj3L7rB1ZOZob0/r69H+2aekBG8IDOIN1OuppJwzW+ev33NIVjGi9jpokUIgo9FME61XwAJfzt8FBoFzPO4ly1mykHgOXTr28ia41wCjYa6+I0NGBt98wWMcAjLynqR1pmKMlZkYIchHikZNbqdOaTz7Pqrm7AIvXrLklmtC//M7CVRK8LDBkCoJnMai6zm3bSAtTvshRTz2Qp9pbDhDNCFgtvDx3i4prhsrPYBaMpaCnjCn7TIlu06aDHp8cLWF23QGJg1KCeRC/GanIo9LYRKBDhw6b4VywmtrlmGtYbUWXFkOG5BLQKEJdR2rFowutG8nGKJK85JnxxXY8x5wCtuE3rfoSzcjrnno6z9GWIBmXYiiRc7xOXYp6Fv3GEidujdmKneBv8f1KbTpJpZZ3q3pG9V2qQrUbmDqZE7FYDRfr7Q8iFO/2hiuhzJUZa2MZzK0dyAS/xBNAfCLumTYq8SoQp+jpIt4RB0kTki0p/XGcEsviq04p2/AjiU/U/YWWaF/wrAImcT00YEodUNopeJ7joH1BSgTyt9BhFT1X1UuVZyNSeal7guy93ry6ccQAIQYYCeqR3ZZo6WQbGglpkJHaiZLQRKsp3TE0rnCwklosOd7yUmbiiDemYBIaf5vFTgloGmckwUOYgEyEF2uq230qADG/a4NYvEcmnH1NmjTpinqjAKejGhBALcB36ospeMMBX+fMQDW2IaOgd4zMQJiIpxXfdN97wy3px9xxTHaP4jXSj1RVJg1J/UQxtnvurC4h2bKfpDAls9akOQ5eP++8876oBmTskMvUDL++XdP1aFpB5T7JWiRXIoMQ74LkOtBSSsInECXKUHZvkoiuUIjR0x0qnFukA5EqhJmF0ndt2xIWiEH4yaHhPQsBX1JtbectmPuIR6bnSeihSmqVegOWRBtMn+ZiRWlEsh5J7JQMqmjIqoFAGpIsX6lCLrtHmUzMdE+Km1XG7jk23ldjJycg8Y+eHNcM5qjy4VYVnBB/pyRciHQglY/F9WKmPJtJUFJkxdy/ztMl4g+obCuuFHlZkRxk8qyVO/jJCXYSfak2hGGdttzes3TUqHq3Ny0NmvBqO7fmfWYVsSo3XlXSkDCJQMlwniu0MBVxqUtRYknoo2RNVd0K5beYAnFN1AspumK6NKsYliR1WeP0HBv7gRp2D5HDHbIMCWEDT5h7ytP4wY9plaRVUyy0NIK0SYnUCRSyf31u0QAdKnnphZYh+JW3C9QPP+fqc2ddvlBv7dbrkARFV+K2nGN0mxefxG43z7OAJV2d1ZNVaFT0dXBsNMxYY7J26ykuqfovbpVQvQS1pRqBS//+/a04VefYoxA49thjZ/MBdCGaeLsnH0ocE7wS3BP84/xbv6vaBBqLjPu+2/voOqQMmaYhntsHXnWRle308rjl2uhNQ/oZF02D56OnpiEeLCVAAyOPdh0Hwc1etRmb4KN4IvjNsXsLX+7evXsq+3AzhF69eq3kCV++XTnPb8uHa+UJzJ63XZ18wc/4XmdvzWYNbm2qVU1W/KD83bp1inKVbdBx1iv+srwGfHnmQ1x71ek6PoFMhn5VPThYQ4MhZo7JHLfn/0CTUh/XBS52X9WK19ZH/04fXiGgSUEKrO4LGAmumfRRm3HcdWO0jtUhcQuBi5uSmZZyJFp8AAVXE/V38+hM7YXI2T1A3XL3V+qx0fDkgS6l9gPb+BubMKROnTrp9E43OxEOEdzLkGAZ02S56eb8mqu2Z7VWi6YvhKQwRJdQ576PPG64qr92zZDjPXJvTyQ9JSBhY5NOPGLVWR4rUMxk2V8zUWTCYnXibqQLpqG4/8wV6sMPP6RB0evuusHB12kVDATGjh17l0ZiUMC+ZArBjNVbGzM4ivEP/XrGqBOOLFYxIB3Gxfz2h8UIrrm8j45hYOVobn0Q6fpbFebM1tcsSaFYzV+Yrt2hkZFcaBlrUOEOLAxmfJ07d06r1i7Qno6eehT/i7FO9lYUFwhdJehcGw8tg+II94fWUupLUleOOhPbyqc+9Lx91Yf5HkBQK0TSOfYIBHwVBd5Xc1+X5xJvxIZAutD5OXDJi7vTKphaRUP0OtBoT7uC0JyZnGXaCALZMgycrTlPeCnG5PgtZy1GCTHUsT2JXOK1pTy7+D6lsCqNH3wBlolmMoZYU2UvPQFIXQC7v9yrYfLqq3fsEUpwOtUQsN1ke9WguCfxizgjVZPFOC8ZvqQh2WVMthwwd0Uzq4cJcxFG4I+excMBWH7mFa3gafghmA6EGYgVk9leZAqsPmsGVfA3PQwcHJND+DLMyhKmYfpda+N23JMTVJe+rUmJrHCkhD3DvRqTdGC6HaXAisTmSCo13ZGSUUlGIJvF6srmkCQYGGUFCibZgXhW2flgXJ/EVfEwAF/DqkySuAJPQ1qgKaSBoiq0mIk/kQgTLtdhwjyycgapiS9bIctD+g9RX7+bj7OWLhQWlq6NHRLOfOtNC7BNltJ5EZWugI8ONLT96jr3y5s8efKlGNQH+9XAGsFgxo0b9y8LnwKXtWsIr2sZpF3qhdeXYrj91WfTU9WQAV3UzZcthJ1N6XygV59aqO1pkU376VciDZGWFq1ogQJA2PJMWfTHBCYevFaBj7eCqp4wSUlJ0RZ+O7K36rIt5rqLhQazSnrWeBcJQNKSRceRyEQJyfQMaw6k6wQzlv2pDecEDHYjuW5DQMqGMkZWWiZs+fEVCrw/4UEwY5F3EbWZ/6k+CO2ICiFqtmwnIJIEiwOZsTZm3QdfMTgCQ35zKzyZ/2rusaOPPtq985BkPwVCFPF1SkbkpzOi1fwFq9QZl61UvY6Yo5auwWgxfdzw8vh/VKoPPnPpDLD+h1pl3MnR6CZh5ldjOgg/JIt0+uqrr5zt3epxYkeNGjWS3XFV9VYstB4ftde64ruw6Ku9Suvv444ZqJrEnandiaSbUW900nTEjZNPu7xSdRi4VWdTfvNzG7U1w1pz3Jvc2gWBJY7I80XYzqTvfv36/enzZWG9zBSOxe9gOJx4HEx9SDgQ9R1aSKnnCAfUuznZ21XznmB0nWDHsb+0k8QqSAmbHCmhfmjLlA72l3muz3FURd5aKz6N71W7lEXqymCeXjmLVoOzF3iOlffaOSG+J0jCQUMRx9ixGectYcTilqzakLJqjz2JrzbDj+sTuPu6L2Gm/HYSneqHIcAa/nkoi9S+xoFQnu8ZUsz/VflCVgYuDYtSp5T0aaYT1GZRZZ8Bw+ztPd78Jjl5e1GRCERK8CYtSBuTWEIBWkNra74vVjdr73DnqBUE3nvvvctqI7k2NJyR8XrSkyfteNJZKO8pfUEb2BmUJ6wxc+JQAFdfbWUCkKFn1fp2jpAggFXsWIFhKJJrfc1fY+zHllwv95wIrxZwWh0HDRq0lI3F+GDu1xDSbDqNde4HDWCwJ2xesWJFz9jYWMui6hwBIcCYA+DiMhMXG2KYcsAX3YsNxPiIOijNPXHRq22fE2CnQ7uHubeyyfYiXPbao8QaDnWs45VXXjl5rz24gT8ICBs9bNgwzQx4EI4OM6j9pJpb3jHEIKSFyfZNhmxLaIziVX28E0U00fuc0mrBIbVtjA3a01Uf89TY+yAeQuov87XVoE/vP6UEuCTGBzd1Tit/ECBnNv2+OTmoB+8cASGwbt26Hmy0N+sdBBxUI2gwYcKEq31JB36j6GAES4AlMgcwAON0Au5qgwummEZxl3EegGvVPnq16fQAucfeL4SFezTyOThY+4kXlR/FVP/AgdrQ3g+/8YFA3jzoGnfyVseGULvJkCo6ZAYU1RYtWjSwdj0deHdh86CN8DAMJ/qZOEhcdPCxdvjw8ccfX1i7O427wFW4562jyyGqMpCOaVZethGZuevZNOIE5fOt82w1vg4oqaII6GsCT8FFBycD46MZ14CgwyfrBTvsoJpGUcQkEEHX5ToRVEKW+ZtITOOsE7pcL2hID0MYJQbEyXwqzKEu83Ug3GssSpn1uiBhhbvdE+EPBICG8o5G/gI8jGkd6ocMnF68QQAb6Z7pMAXfEoIpRfG3mdFYbxiF2IRZwhQE+UMhmMbc1mSWNvOsN7g7HXmHgBNR65shyG5UxEt7p6ug0CikpGMYJC7gA6QUe7Ap0kGNpIE3Mi3g2dnZrRr46zSI4W/cuNHJD/EyU2JwJZ2yCtp999338h6bUDuuvJKrvRNXXpNDixjr5C3sMRTUHUNlYJ0JJ3DOh6Hbhk3lXsFD2WzTURu8i2ycjBpbY+1Z+jjgemedCdGTG7MqWpt3E0a5R+wGvjCtsVW9rQ3gfd1jSAktDjhK3QsvbMQmBHQD1+e8NoS+BPf2eg0OiCLxjsjmW0IgbDApNdJL9wK9NPpHOMZE/96FGjs5h4ARIRkVzX4RbJPPMMgQnnXANBUD4xdffFH3qLADBmrBvSiScprAfnAuWzs5Dt5hdthhhy0PDpo1W9WaIbCrpKSkvNo+uBHe596VVqy8sIJj+1rnqE8IFBcXc4/Afb6nY32+U333FR8fz70PanXUiSHU6omN96YwM8Ye7p6fRo8efW/jfd1982aQTAugil1pGxV1ToOT12DlGpmJdLWdnToxhMzMTMffbkOeE9K3b99VqP13JewrLX744YcTTjrppNm1nRjnPt8QuPrqqz9EJGhnhtTLrkMOU6iCV35+Pu17e/dgNRtbdDvgLb0CB65ce3cWnKcRAnYp8QMeD6UAD4yKX+11zAhlt+iG4K6p6xiFKVBV8FWNZq9PUiN/ICUExMJUEvZOTIzleSAsoFbl1nbqa60yoFio3v7JKVqhQa+NXAzlhqowfPz48dfWdkKc+4KHwM033/y23qAUcGfdCQcXLdgxXRyfpOAhWdWy1gwBiI9tWp1DcwMXmXNVRalOnTptdiCz5yHQq1evv+Qp9WFQ2/Mj3vNPEDycO3fuMXv+acYTnNDRquAQsygKk0n26kQcwA+j8Rav71YZ6qr2NZb7uUYhdH7sXkONxr7HXiiIYRZEcewHew0F3Q+ybVmaKYQyb425LWER9K5MHlNWK5VhxowZZ7GfA11nM11d5MhQo44Pqdb93qefRvdE1F1MYxg9omaXOa7HqumlDWHZsmV9Qp3wWjEEGM3+aevOoT6v0bZv0aJFdqN9uf38xbAaFu7cudMpbW/Zs9wl/6dNm3Z+qFMXMkPg7kPLly/vzQc5BVKqwP3LL78cHyrwnfb1AwG4eWOcknUWLCm1y05hyKXZ8wxhzpw5w+XBB/p+jwS+wADiWV+nmGr9EHiovaSnp7dxVNgqqMlCjYW7j23vCxqkIUsICM29IejeD6CG9P3m5uYmHECvvN+8KpLIuuw3g9kPBmLvAaJHAnsfi9EGfUQG3RINgfSJ0Ne4NbdzeIEAtmhLxOlcBzh7FwJbt251KlwbIDclV4TTX49Lrwc7IyFJCKFym2AH0VjaIanEkRD2wWQiya71PnjsfvtIM/MR27b1C0VtCIkhgNvcSCgc6O5GExNMq+5+iyGNfGBRUVGljfwVQ3o9MSwKne6Rhdy24jpVbu0EEjOwBbOl4UKVKqSZcxrXCwRQY5EeHicwyUsFZsIFUcVBh9IHLSHAu3BCQ5YOGOteH/HunhKB9IkU3Al1yTKrF8o4QDsZPnz4bL66WSyltnPdGIObuJjXewVmRIKxTluD3YtBVnH5rmvoqtkfYLO4ttllBygN1/trA+H7olMdwizSQqgp0aaUYc5vXXFlX94v71FvG71y5hp67oKZb+DJGOryn/Hi3KMCgTFN6x3DnQ5DhgBWwvaeu0TXZX7rexHZF4zBA/cDwrQqZ9dPUyD9vdgO6sWGZkyk2MjAIREDEUNx+YgRI77mq4KI47DlWjJchUkFBQVxLDsFa3UKvxkGW1RU1NQOh5XiqWEMT0bK7cqUlJQdvXv3XtGvX78VAHhFQCg7DfYqBGjLYYFb1Ow4bN26dQfRLekZ2sy5bNq0aRG/W7ZsmYWCwTlxcXEF+OR37tx5Iw2VyEsBmhTGTZgw4bqnnnpKb6Xe0GiAuM8x85tqw6BBg2pdkdk9iagVuNIUp/YFp6vtM4XL17sOtVdR3HnYvoaA7H7e0OhAxstvSE9j6gxHm5AapHdBmAEMfm/XGRBOBwc0BBiWDhUxqyExBI7V3AWa//EeEf4mMqCXYeLEiTqzsaGJSlQXZMzHHnvsnAMam52XrzMESFjHHHPMvDp3tBc7kHgEhjILLcyePdtvJSW/DIGVld94441b+Q4NzR1jJl61b99+y16cB+dRjRQC2BFpWUN7NTICczH/6KOP/FYG98sQ5s+ff4SZKNHQgCFMrEePHqkNbezOePc/CAwYMGBxQ1wcTUiilsl1/gLo/DKEsWPHNoqdh+ge3P/QyxlRQ4MAiuduFPW5oe0raQbUIZT5jJBhbwfaNEhjIj0SYlB0NqQNeeqdG3xAwI43ceNWbT1f+/I+0gVrf/qaZJ8Swtdff63zqBuaMdHzRY888shfHAx3IFAfEEBcQhGkTV0qryHTBfcOsYvT1gCLT4bw0ksvPVAfQNzXfQwZMmT+vh6D8/zGA4GG5mnwhLwwsvfff/8ab7PilSEwVFnqJjbUqZQXdzwMDXUG989xH3XUUXM5sobmdfOE5rhx4+7yFpPglSEI92jIYpHjYdg/Caqhj6p79+7aY9WQaYPjZ8k/xCQc7TkfNUqogWuEIwjjsYY+cRw/g0lE52sM7+O8w76HADwNaSIhNHSmYMck+A/ak2ITsj3ZvrSI1uXZlOqcbdX2PQE1thHYO3s3WO+b0BTpgx/PmIQaKgO4xlWcxMZQYp2ZiY0NIZ332bcQaAw7c5kxCeJN9ArVhh574FnWDDUgL9+36OM8vTFC4LzzzvuCq2tdJNh9fa/USbAzmd3TVE1C+PDDD69oDAYTeTt4GIKuJdcYEdd5pz0DAXgaGnSynBjcuaELvImH2tWmNLD+HyoD+lU7QC5mAAAAAElFTkSuQmCC;" vertex="1" parent="1">
          <mxGeometry x="600" y="40" width="317.07" height="200" as="geometry" />
        </mxCell>
        <mxCell id="haDdtKFeIpYZxnQrOWUY-8" value="" style="shape=image;verticalLabelPosition=bottom;labelBackgroundColor=default;verticalAlign=top;aspect=fixed;imageAspect=0;image=data:image/png,iVBORw0KGgoAAAANSUhEUgAAAYEAAAG4CAYAAACjLFtBAAAAAXNSR0IArs4c6QAAAARnQU1BAACxjwv8YQUAAAAJcEhZcwAADsMAAA7DAcdvqGQAAH12SURBVHhe7b0JoCxJVeedGZFZde97va/QNHSzNnS3CLQgqyyK7AqIuHwKoqjg0goMos4MozOOMyjKMJ8OOo6OOOPMCLIjgsiHsg00IKDsAg299+uVXt57tyqX7/+Pk1GVt27dtTKrIqvOr/u8iIzKW5UZceKc2DIyUhRFURRFURRlBYmrUFGWChPbkxJjz46j+C5lUdwlL4t75lF+Hj66N+QekFMhKcSzAbkNchXky5CvJVHy1diYI1FcHsmL/LqiLO5AuqIsFeoElKXAGnuajZN7lnl5yTAa/CCSLoEkkBJCY59DepAC4vV+mv7zcy/8+wzCvz0O+aSJ7F+Y2Hy6iPKvwCncjjRFURRlEcRxvNYz/Uch+lrIFZBbITTWNOA0/k0Kv5POgE7hGIS/9zvoLTwWTuFExBVFUZR5kJj0nL5Zew6in4bcDLnTGFOkaVrCMUwz4I2LNWaI8JsQDiF9ykbpM01sz0BcURRFaYN+0n9wGiWvRPRGCFv8Qxj/uRn+SeHv8vcRZ++A1/P1ODKvSG3vQYgriqIoTQCjej8Efwi5HsLWdxvDPTMLnAIdwREIndT/QY/lIoSKoijKQUnj3tMQXAk5aq0tKYgHI+wNeEnTHnoGo2vkSqIr4sh+P0JFURRln5he1PtVhNfFUUyDusUAhyA0/t45GZPUnQCFPRb2Xl6Je6gvR1UURVG2IzHJmXEU/S6iN/Z6PbSw002GNySJY+OMPkOJJ3UnUCZJwpDDQ//VGp04VhRF2RE4gLsieD+EK342GdSQhNfmJ6XFAch1+qEhfx7j1eQxezN/bU1yLkJFURRlktSkfKL3byEDyMiQhih0TtIDoMGnQ9jZWVWOgc8xvBeOjk8tK4qiKB4YxrMRvAlCQ7nFiIYmvhcQRWzpWz/ss63QYfT7fcb5XMMHrbF3Q6goiqLAmPYR/AUk6B6AH56qhncg4gQmz9uDuCWkuO91hIqiKKsLWsQnGZkE5pO30wxmMOKdQL0HMHYIe5eq18DnCf4Qf38KQkVRlNUkjZJfQnDjQYzpPIQGn9fmRdKl9c/PxCFs/budhN9T/d2dkFdDdCNHRVFWj57pPQLBNSaO81CdgDf+7AFImqwGmjzvgMLnCG6yUfJEhIqiKKtDalMulfw45Pg8N347iNQdAOO7TQLvR2wc34LwHxKT8B0HijJ3TBUqylxJSvNYBPeF9IfDYVSWtInhgNZ/BIPvwjznDtIyYsN4lnG/uGbIy5JzAheVRflkSVEURVlyerbH5ZH/DOHbvLa0jkMQDgGNW/wyBMS0yfMaEg4LXYPe0fkIFWWuaE9AmTsmj38cwV3Q0uabvoIhjmMnbP0TafEzjT2DuM3eCrsZp+R59qNyqCiKsqSsp+sXIwjygTDOS3DMny1+maPwMv38JgW/yd7Alegl6bsIlLmiPQFlnsT5cPgChIflMEzY4mej31rOC8ynisDpsDdwaJAPXiQpiqIoS0bf9vny9yPSyp7eIl6E+Nb/eMx/fj2AKXI0NenDESqKoiwdr4ccD80J0PjXJ4E3O4S5C5cicQsNRVGU5aFne3zV4q2hPBPAa/BS7wHwmD2DBV/j9T2bfitCRWkdnRNQ5kKZF09BcDikZwJg/N1qoKLgnKw8B8Br47MAC77G9SwfPrWKK4qidJvEJOcguAJCa1tv8S5MfA9AWvxs/W9+I9gixRrD5yeuRL7x/QqK0iraE1Bax0TmXghOhUhze4Gw9U8hfhUQbW9R5FWPYPHExvD5idPiIuJyWkVpFXUCSusMisFPIwhC1zj8QxEHULo48cchINtURGYYZZe6BEVpEXUCSqtYY09DwAegrEtYAN7we+Pv5wDieH7PAeyHqqeSQi4wsWEPSlFaQ52A0iowtXx7FjdJS1zCgvDDQHQAvsFflkWjm8E1he8JQNbhuPjWNUVpDXUCSrvEMXsAC32Noh/y8buBWmuR5pJCx8KJLqwHpawG6gSUVoGtXZi5pbFn659OoGpdOzgJ7B1D4LB+ah1VWkUVTGkbWlvKQnSt7gDE8MsEcCgrgXalE75K6TLqBJS24Qi8WN8F4B0AewWUjjHg6tUqriitoE5AaZuREWNL3K/Rbwt+vzf49dY+nUGIk8C7QMc5HsdSlBZQJ6C0ShmVAwS0vnw61w3FtD0ez++XVUBl606nZXAH5bCKK0orqBNQWgWGmA6AjgBRGRHyYVPUexiMs9Vf/422nU5L8AYy3Ic6AaVV1AkorQIjdgyBs8Jxu69o3OQA/Pi/7xF0lGHVk1KU1lAnoLRKURZHEXBcOzdxO+pGI++FJEnS1db/JAPc0/EqriitoE5AmQe3Q0ybE7P11j5/p4OTwJPwhuhAFaVV1Ako8+AqyFI0zefMkSpUlNZQJ6DMg2uqUNk77Al8VaKK0h7qBJTWSaKETqDz4zNzhk7gaxJVlPZQJ6C0jons1S5Q9kNhovjaKq4oraEVU5kH10PGM7c1lmQVT6NUy1uHcWRucAmK0iLqBJTWKU1JJ7BlDxx1ANOpVjplyJ9bXYKitIg6AaV14ijmUsctcwI0dnQEXhShcgID5AlfOK8oraJOQGmfuLwT/06dGPZP9Pp1/uoMRnnAN9/olhFK66gTUFqnKAs+LEYnMHVegPjegHcGq0yJDENwHDF9WlhpHXUCSuvkZX4TAznaBm/72QrW3oDbeTUv8pvlUFHaQ52A0jpo3XNsm8sdt2/mx/yoEtcboCNYTWdQRiVv/AZ0CG6TFEVpD3UCyrx4L2SHt2SJ0Y+5yZzrDXinsJKw1/QOiSpKu6gTUObCmul9CUHux/63Bb0A9+nK2n/HLUmUfKqKK0qrdO6lq0o3SE3vgrS0T7NR/MS1pPfAU0468dw7jh99NBxAUp2yiR0dw+pRnLB2+JNFXt4DOfNQG9l7GmPyoix0jkBRlPDpxb0HIbgCcgeEk5ycE+C6d75i0gmOSxg2J4xPfrbKUuUJn62gcIUQl9helcTJhQgVpVF0OEhpHJjyJyG4K+QwJIX0GPrnAfwy0Glxf7zKVC/IX6+kDzkEOQWZ8ziEitIo6gSUxtmINh6OYNehRm/w0frfJD6tHtZhmn+n8AqRZlH+xCquKI2hA7FK09A6cyjoHMgO+sWPtNW/V+D4CjhNvmSGPSxFaQztCSiNYo3lENAJkF0aGOoA9kPVI+qb2JzsEhSlIdQJKI1i4pjj2Fss/OTwjg/bgN/d5vcvAvQC3A3BCZzoEhSlIdQJKI0C88uJ4KnLQDmO7w10W/O/3vgvoRNgjuG2pi+xVZSDok5AaRRYKhqrqSbeG2Y2asUhNKN+/N7xd8tP+3DJoC/Q13QqjaJOQGkUGCk+E8BtD5wVttY4g8+3ZdEuy6hGGRVFjvgOu0jsAxr8SaNv8LvOOXAVER0Ef1b8RFdhZh3Dneo7BpRGUSegNEpe5tz0jA83OWib6QTynIaacbbaqw9bwDkbfH+eVw4GP+p+jj5is5/oGuwBHC/Kgg/gKUpjqBNQmgWNfPz7fyEFW+J0AEXhrS/fJFZFW4I9AvQBGOGvIUV+sD5k1FGYiX9f9bQUpTHUCSiNAtObr0X99yF6Z5IkzijTENP+cvgny7IqrR34tK174ha/JzZfXmFJmpqDWBBFElnmazNjaIpSoU5AaZ4k/gT+zeXVkX74Z85jMfg59kLoDWQbBq5I6rT9zI2x3IlVURpFnYDSOFmRXY7gtjwvh5wAlkngOTsBUOTV5LPrAchqJD8s1LGhIWbesIzdE8OK0ijqBJTGgRO4Ceb23TDDx2i/6AAW4QT8bxoYfDoDynhoqHNO4H1ZkasTUBpHnYDSCj3bfyOC+Vv+qZQRR4boFGSDTnlYLfQeQe36BsjPP4ET0xfPK42jTkBphazM/gnBrZCFO4LRZDGgTaUz6EJPgHMauFYa/muLMv+0pCqKonQAGNlkzaw9B1EuaaQjCEKstaMX1zD08UCFD90d6cW9ZyNUFEXpFiY2fCHKn0Fu9cYXrduRkeMx09fW1uZmjCcNvz+e1+9TmAdJkjjZ/nNLB8AH796IfORLZRSlFfQdw0pr8JmB1KYfLMrigrIs7wFDy83PRkOQHO5I09Q95Zu7lTy0gfMB17JlSGjyuC16vZ77Ld4/73sSE8fH8rzgU9fvT2zy4rzIOaymKIrSTeAITluL+r+K6DchHB7iAD2F79DlSiI+V8Cx7y2t4rYERtj1QurH9c/blOp3b4U3vAwh84BbQtAbUIaQr/ejtUutsXwvg6IoynKwnh56kInMqxG9BnIj5B/7cf/p6731ixC/DrIxT2M8KRyG4e+3fQ3ob9DhXX2ot/7Avuk9BvG/gXwB8nn0R165nq4/GNegvXRFUZaPOIoNegZn9mzvHtYkp+LYG7u3Qo7SECOcq9R/c06OgEM9b4I4mAeJSc5Cy1/fGqYoymrSM71LEFyVJAmHRKYZztZk0uj748n0hoTDYFencfpQhIqycPQ5ASUIhuWQzxV8JcsyjpHPFU5I+2cHKC1PUNPJfSaL3HMUiqIoiqcX9X4AASePJ1vPcxEOBdUniykt9ATusJF9AkJFCQLtCSjBUNro4wiuZ9QlzBk+VTy5ZNP3DuAgqpSDwe8A7OV8FrVOewFKMKgTUIJhmA++huAdkM2WeAHQ6NNw0zEwnHWIqHICG/j3jXmR3+ASFUVRlM30TO9BCG6D0WxjKGbPwt+urxqqX8sBr4sTwl9LTHI+QkUJBu0JKEGRR/nXEVyPlvdCd8xky99vOueB8fct+oPA3s2V6AVcLYeKEgbqBJSg4BYJNrJ/img26zh8E9Doc1sLOoUZh4QGNor/FN/CJ4IVJRjUCSjBYY19O4JjcrRYJnsEPPY9gn32DAbG2A9XcUUJBnUCSnAMyyHfpXtNnudBtJp9D8D3TA7QI6AXOZKXBbfLUJSgUCegBAeM7CCJLLeg5sZqQUFHQCdQl516BFV6ZqP4j4qyuMMlKkpAqBNQgsTEljuLbp6ZXTAcFvJDQ97o73E46JiJk/dXcUUJCnUCSpDA3F6LINhJVP8cAXsCO4FzeMLRMi75EJyiBIc6ASVIyqjkW7Vud9EAqT9Z7B0BncJkzwA9Bw5p3YhzuHOoogSHOgElSPIyZ8uZE8RBOgGy3XzA5DH4Eu7nliquKEGhTkAJFhvZNyAIbnJ4Ehp9OoS61BjYyPyvKq4owaFOQAkWY8wHEdzCh7VChQZ/8sliv5QU/QGOGd0JJ6EbxinBok5ACZYiKrjR2g2hPC+wG36ymE7BLSWVoawriqjkqzQVJUjUCSjBkhf5TSYy/x3RTkyqTvYIwHG4hT8pyuLW6lhRgkOdgBI0iU0/gKAz++1weKg2MXzcGPu3VVxRgkSdgBI01fMC1NNgVwlN4iaKi5J7H91SlsURSVWUMFEnoARNlg+59TKfF+gMboWQ+Kwb8rLg6zIVJVjUCShd4MtV2DWuqEJFCRZ1AkoXuKkKO0H1nAAnBnRVkBI86gSULnAapDNzAhUJ5GyJKkq4qBNQgiaOYj4pdj8X7QzuUrle9B6MKErIqBNQgiYxyXkIDstRNzDGOQH+c2pi7F14oCihok5ACZsyvmsV60xPgA+NWWtTRE+KS6NOQAkadQJK0AzLwU8i6JSe+q0jwCnDcvhDLlFRAkWdgBIsqUnPR3BJL01PkJRu4J4TkBVC7A08xsb2HB4oSoioE1CCpSzKZyG4C8zpmqR0Dk5qnw+P8Gg5VBRFUfaEjZN7I/gKZGitZbO6q3IccpmJzLkIFUVRlN1I4uReCD4C4ZYL0wxr14S7oL7HRlaXjCqKomyHNcmZaZQ+B9EvxVF0S6/Xm2ZQOyVxHDtB/CjkM3AEzzCxOQlxRVEUhcD4n5HGvWcg+mEI3y3MpTVbDOoSCN80dgfkQ3AGT7WxPR1xRVGU1cQaexqM/3cjytdIXg65I03TacZz2YTzBHzx/MeSKHkGnMEZiCuKoqwGcWzWeqb3OEQ/CeG4/4YxpqRUQydLLbzHarKbL8thz+AzcAbfZWLTqSejFUVR9kVqe/fomf5TEf0YhDtsskW8xUiuoHCYiC+f+XASpU9KTKIriRRFWR766doD0yj9dUS/CrktsfYoJ32TJJlmEFdSqh4QnSLnRL6C/tIvpTa9EHFFUZTuAQN2l36y9h2IvgvC9wFsQJZ1wrdpYc9gALkB8rY0Th9jTaLbUiut0JlNuZTwQWu210/6F5VZ+ZiNcuOFSLob5JAxxj3xW+2no+wKqyV9QZTV5DoT2d9LbPKhrBh+oSgLLjlVlJlRJ6DMhDX2pMSk55d5+ahBufHzSOKumYfgEGwC8pyNWpi08X46yq54JxDTsbo48o6TyBwucvMHNkp+21r7MTiEr6pDUGZBnYCyL6xJTrXGnGGi+O6DbPiUIiq4vv9UCFe2HIKoTs0IDf/oDZXMTQalZCt9QlE4z8rhIgon2P9XGqfvwXnX52V+BE7hNqQpyp4QzVKUbYBBSrmOPY7M3YbF4LlIejKEu2Jyc7SeieMETf4eW/w63NMMSZJGWSZ5maTWGf48y+EYmMbeAT8pEZoI+c4eAj9geDvkGshbkzh5G/oPN8JJ34xeBOdjFGUq6gSULfAhLhOZs9DifAJMO/fDvy+EWx1wa2TuPKu7zzYMW//GGDhSGndYddfyLyN5SRlh70CG0+gMeK5DTnOURZnB8HP+gE6BQ0SUqyBvh1P46zIub8iL/FocK8oIdQIKW5RrJjanx0V8Xha5l6DwQa4zIT3IOqSrWzl3Bhn7l2EgGngeF67lLxYe5VPraTFNzqe9Z49A/r7yBlWI78rxN34ugUNHHCb6kImSP4nj8nL0Em6EY+FnygqjTmBF4WZtcRSfnRXD78Hh0yGc0D2NH0EpOMSzxpYnRYd52oMGn4af4uw4DTgj6AnEKIkyp0Gn8EOWg6+yTKPxl9PpCKSc2JOQXkWWZXzNJYeMXBo+pyPgH9Lw0yFwq4532Dh5N772xrzIrsOxsmJ4jVJWgMSmd4nL+O7DYvAzOHwEhEs43dg+hOMLqg9zhkba+1gaarhdiUOcmUfEfY7PYMaR6Cy+fMoT+DfoMbikUfGJ8/bDR9vAD/nNFM4lXA35YBKnf4KvuR6NAw4jKSuA1xplSUltei4M/3mDYvDjOHws5GQmQ06C0SHa0l8g1lhnjaMSrXpTGW4adpYJLbsz8FJNJaR4A89ehLT8iTu9mi9gme61XKvewjFE+QfsJXA/o4+mdAgmvnyYD/iktyrJkiLaoywV1iSn28icD8N/KQ65Vw/f0UvDz+0JEt9CpPHYpbWotIA32jDf6J3BYLMMRsWwuTw4zOMNvSsrflyrtSWHjapj7jzhh37IXsvWn8+Qgu/g5DLhfAKHkP46Nb3fL+Pya1k+5OojZYmoqZPSZVB5e6lJ71Xk5dOyaMhW/90hnNTlcI+Wc0DIEBANu6zwYVDieGzhvfH2xcbj6lzE6TyYxhZ/no8b6HQCLfTq+OPc6ZXOAKF5fc8mf52X+dfyIr+VJyjdRo1Dx7HGnmIK89BhNPxFHD4YwqWcCQxEX4d5woEtbN8ypxNgzLXiadLdZ2LE+QE/Y+N8c0PeV9Vxmcr3ycRyHMuwURtlniSJC4s8P4ZeC3sH7ClcYaPkd/Hz78uLTHsHHUadQEcxsTnRlPY70ernJO9DIBzr11Z/oNBAC2zRl5FN4AjQ+mcHAGbcfV5WTsDjncBoSIhFi//RAUAPgPMCfIBMVggxPmf4g3QI1+KiXm1j8zb0Dji5rHQMNRgdBC2wh+VRxpb/w2EPToutPZljwUrosLrJuLs7ovFGaNyxOAJCg++fDhZxZ0FG3xDFcPcsczb82YPY6/h/C/BC+UTyN+LIvDKKy3fiWjjJrHQE0TqlE/CdtGht0fi/AHIqjAb36nHGQ4d+wmRs2N3R6JihmG2O7SPujLmY++ovRobdl6+bQ3BDSEhjnw/QESzQAdRhK+ROyF9AT/819JTvRVA6gOibEjw2Tu6Wl9nvIfp4CMf9tew6gDP2zkjTAVSteQ77bCo+flZFXXq9Ze/PReiSEHfnBvkQH+cKuLz0n0xsX1CUOZeWKoFTtSeUkEmj9DFZlP1RapOLkzQ5A62/kclQwoZOQFr/4+Eexrmyh9bcPfvFsPY8AKHDkONiS0tf/nahQ0BTSRKuRzBrcE6n4uqeZiN7LcIvVR8rgaJOIHDWTP/Zg3LwKkQfXJTFSfWxf2O4w+S4hUnjEJphUMbQ2Lv/nIGnoUcivQA/w4EbFkLxufQRvnzHiewBHLScqSPyW83rDK+r6p30IafDATwVV8/5go8yUQkTdQKBYmLT78e9F26UG7/a7/XuA+PPrR22wAoshkNah/XWpBIOrlxc2VSrfBwMx+VVdwBil8U4y5/SGUiPwacfBBp9cSLyne56/I82C7+UOvvtcDnWxPFnoKm6pXWAqBMIlH7U+5nj0ca/QQU9F/W1t11rzVdghr4uS7yViq0cEF8eMIQudEdVkaJDN8JPF/jio9Fn0bP8i2L8NPBB4fe476h+iP9JGn9ztu+eAr8QrZPyYfg1i9/6II51BUNgqBMIkDW79vjj5ca/Revprqig6XYOwDMyMDiPQwqEabv9nbIYXK8N5eNKCv+wlKyVh774DwOWo5/3nbX1Pw3qB1roTkdkeArHLegMeh4W30k7c0kSpV8pouJz8okSCuoEAqNne/ffyDf+3Bpz96IsOba6K6y8nB9gBWYdxmHjlVlpDhp4b3BpillSLDNXbrT3tfIbnccPG4TDQnw+Yfw8AmlHZypHYOAAHpqY9G+Lsrih+kgJgGY1S5mJxCanZ3n2bkS5/cMBHTRadajMbGyKQ9BnCMJGHAJDztUWbt4fx24bCJlsbRX+iNuEzpuC9rafAHyHwRdTmz57mA/16eJA4GyiEghrcf/5CO4JOXAPza32cJVYWo9ttCKV5vBlROFmcBwMKqth87k4b/yurEri3IM4gLZ0Zm1tjc+33D3O4/9HUhRFGXG4f/hhCK6y1rJPfmCJTVzCESAO4Qb17Bb4z+QpJZWWxedzPb+3y3umb/7M4Jgyv7KivojO8Ji/K7+99dpmkzRNS2sM9xu6rp/0H45QCQBtIgZAapNThzIM9K2odH22xGYCpSqTfghdHRbw3To0NAeYz15YEjLuvreWPf9m5vKfAX/NAnsEXFLa+L5UdARfSG36lKG+n2Dh6MTwgjGx6fUK+8osyr8bvQC+/KURI8C67Pet98fKfKAhdcNyKEd56YuUwU7l6p0Gje7inEBc6YwYfXEIzV9LkiQWDvFQURanWWP/DvfLdxUoC0KdwII5lK4/92hx/OWoGGc2vRmYb4GyclNomNyReoRWYP6KAxDny6KkA5Dx9r2V6+IcgDDWGSJzA3VpgqpHxJVv39Ir06vzKP8kE5TFoE5ggfST/gOOZcd/zxpzDiqGvLmjBWT5qFTwpiqyshXmLR2BtKQNWtWLHdqZBd+TIS3qjIUDeEg/6b0vL3TX0UWhq4MWBLeF2Mg2fhPV64wkTdfaNBY0/lUnAPHNFVqdwmww/3weMpS9nZjZ3TT+dXzPkbrppX6/DcAvOmEjG/y+NfY0SVLmjfYEFsR6sv7cYTF8MaLcFVQSW2SyVddwZV5ZmIUcxx+3nGVzuP0MAYWIN/qkrjM+bOreer3eGvT/1LRMbsqj4mNVsjJH1AksAHR/73M8O/4aVKlzcTjXMuD2BH6VijqB2REH4FddMc7UsQFdBjhZTHhPTeuM+76yNFmUP6xne3+Xl7muFpoz6gQWQF7kr0XweFSAqTuDzgepzPW9hpS9w/zyE8FVCmxZ+z26RTGtV+BlVvDNtEMpHMDFJjZ/ARfKJaTKnNA5gTmzZvvfgeCZkG13Bm0T/5ve+Ndbd01U6FWBDkDGzKXVLz0Ayc9FlGub+PuZph+z6gx7UJUOskF0YVImrBvKHNGewBxJbXrWIB/8F0TvDVmoA2blpXij5ePK3qADkCEg5mN9SGh58T2fup40pTP8bnwX+lL5Jb2k9zfoLd9UfaS0jPYE5ogt7XchmGlvoKagwfJGK3ZvLZfhDV/Rla0wbzg+7sfIWX2YVUWRRVnG1+suN5t1ZjwcRJlVb6rvPQQ5v8jyZ/FAmQ/aE5gTqUnPHRSD1yF6HqS1ZwIOAieLia/gynTE4Pk3c9HwSfoq9qBanCw2yN37o9f87qIsbqzSlBZRJzAn4rJ8OUzF01Bh1qukYJg0YmzVETF6q90r4P37Vi5DcZQculjeSeC9Utcb5o93CDPqDP84gQM4B+FfuhSlVXQ4aA4kcXJeHpU/iOh6qK3GegUO9RoXCfOFWz3TRtUn1Vc1r/x913XGxymzgL/nlhKPQb35dklR2kSdQMugSiRZmf0Gond1h4HjK7Sv5Ktq5DzeuEkPgBussQjVSXqYN76nxLxiPs06rGhlrOkw6s1/MLHhOwiUFlEn0DJozVyC4LGQ4IaBJvGVuI6v4JRVgvdNW5QkSeUIWVVKNwE8jye8uwL1pb7xodcVCvPwIFST7CdCHmjKmHVHaRF1Ai2CVsyJw3L4CkTPgEHpVF7TAHqn4B3AqjkC3q/fC0h7ALvjjT71hnnnwwPCPzwEl/tya+zZkqS0gTqBFjGl5Zjmo1ERWt0grg1o/H2lrvcOWKlnqNhB4+/N9378HAAngbtWfovC6wZ1hnnmHYFP3w/4G/ae7x8V0aMlRWkDXR3UEuwF5JHbHuJCiO2iEZmlAncR3qd3AFJcMgnsDZqyM5NG3wuRPN1fHvq/xbeeifr0VoT68pkW0J5AS8Rl/K0ILoIE9UzAQfAV2Muy4u9NjD6HxPZvuBTRl/rQEKXem9wPSZKwN3BhXEbfJilK06gTaAn0An4Mwaly1F2mVWBWci/LAA0WZdok8EGN1yrDPKtPFhPfw9qP3vDvUQYsjLPzqPg+SVWaRp1AC9jYnoKAPYHO9wLq+NYdK7mvyMvkCGQSWIaA6ASU2fHGf0ZnymHrR5rYnC6HSpOoE2gBtHXOQnAPa+0Ct4puHrbM6o7As5/WXSj4a6bw9ZvScvXDP+oAmsTrBvPWi8/7PUKlu0dcRmfIodIk6gRaIC+LpyM4WVqWywMrb70X0HX8G8H8O4HZA+AbwSaHMpSDQ33xDQZv+H1DYh96xBMP51HxZDlUmkSdQAvAVD4bwVINBU3inyPotrH0LVMdApoHk0ND+9QdDgl9t0SVJlEn0DDWJNwegq+NXNq8ZeWt93J8ZfYtvX208OYODZE3RhQZAkIbE72Bbju08Kn3CiZ1Zg+wPp2r20g0jzqBhonL6GQEa4y6hCXHd+27hBh/GiVev6TRKKkTaJe64Z9kN0eAT/nHpyNUJ9Aw6gQapiwLrmfmyzFWAlZsMap+aEWEabtV7HnB6/DOiiGNPy4RSKtUmT/14cQ96Uwcp/j3RJz3YElQmkKdQMPkUfE0BEu1KmgnfAUmvgJ7gxuKE/BYm0SyFQSvTa592Sbvu0A93yd1hkzTmyotLaLye1yC0hjqBBrExOYEBEs9H7ATrKiUA078tYa/rvr7AMSmKIuGxl96Z+Ne2TS9qdI4OXwh6hmfw1EaQp1Ag1STVmfBvqxkvtYrr497A7wIvIERxyRpOgkcFjtNFtf1puYEzsMnbGwpDaFOoEHi0j0kdhq0dyU35mNFpUwz+vXu/rzwhiTPxbj4S/DXqSweXw6+rOr648MarFenRqXrbSsNoU6gQYZlxnXMh9TAiNGvG9t6d39e8Lf979IBTDEqSiB4J0B8mW2jM2ke5XwYU2kIdQKNUvKJRruIVm9I1I0v4bEflmk7b/j9XHkiq09cCkQmInUSOFyoL5M64x3DhM7w4PESVZpgta1Vg9jYcnOrs9GWMb71q4hRZkX2FdxX7rbh77EYaD/m8HNKg3id8fVoQmcYOd3Ehs/jKA2gTqA5+GzAydDWVJ3AmMnWXT1sCt9a5F5AjHMOQH5i9peeK/OH+jGpKzWdoRM4SSeHm0OdQFOUzgnwYRY5VkbU86St/OH3cumnLANlXObmma5l0i0my4vHEz2BPpyALhNtCHUCDQHNvDsCPtWoTMG31tuChkLG/MuI7/Qf2wylq9R1ZsIx9JHwLVVcmRF1Ag2RRTlfhr3UO4fOAitxW0Mzky1HmQTOqiOlq+ygMz3Ut6dUcWVG1Ak0x2Mhmp+KMh8eip7CymzP0iZqtBogMfZMBBwO0vxUlPbhYN/ZSWzvIYfKLKjRagATGb72jhNVOhKtKO3DYddDURnxCX1lRtQJNEERPRz/atdUUeZHMiyz76jiygyoE2iAQTT8EQTqBA6ArP5gB6ouirI91XJR/vO8OIp1McaMqBOYkZ7tXYTgAdbavqQoe4UOYPOyUa7y0TX9ys5UToAPgpybmORCHigHR53AjAzywfMQ6CvvDoBs7eCNPlVRnvhlI48bsU7bjLUyAMpKI3sKgf6wGF7qkpQDo05gBlKTnofghyCHdHOygzFeB+57AeIEiDgINfrKZopyVNfYSnhmz6T64NgMqBOYgbIovxfBaRC1VDOwtXEvCZK+NWvZCtQegRIb11U8cVAM2RBTDog6gQOSmOTcLMp+FtE1SVFmh+pI4y77/YyHg7Ya/MmnhJUVAkVfohEADeER//lx1Md78UDZP+oEDogp4scgOBWydeBaORBs3Ivx5xGNvGwGJyLwc3UACnWCemKM4X5dJ+dFpr2BA6JO4ACkJrnrIBq+DFHuHKo0AId3yrKoHAGPvWqqwVemA3XxDQKLf38OvYEL3AfKvlAncADiIn4SggdADrsEZSZYj6UyswsgRp/HfCG8okzDdRZj9AoRiY1lb+Ak9AaeymRlf7i8VPYOWhvnZEX214heDFEnOiPSA2CMWckuPod7vDMQh6Aom+HCAAnpCBgtinKI4FrUz8ehfl7OT5W9oUZsn6AX8J0IzoVo3jUAnQBfBhNF8i4AcQj8x9Vyh64EUupQX0QnoCf8H4Jj9gbORG/gB9xJyp5RQ7YPbGzPGEbDF0L9dDK4Afi08OZJ3ulxnQhWJqFOeL2oxdfw76WpSXVuYB+oE9gHcRk/EsE9kzTVl1w3AB8Us9aOHhhj644NvLFIi4/OgiHPHZ/nW4PKqlF3AKSmD1SIU4bFkM/vKHtEa9EeMbE5sSiL9yL6bRDtCShKmHBu4BvotT86L/PrJUnZCe0J7BEo1fkI7s+oS1AUJTj8cwMmMveTFGU31AnskawY/hgCfS7ggNS67FVKc0z7zjZ+R5kvM+jM+rAcvqSKK7ugTmAP9Ex6QRlFz0VU9y6fAVZmP77vj5ugPj5MmvpeZfF4nfHsVrbV/NIJkCencfIIHig7o05gDwyK4SsQ6OsjZ4CGmk8Bc7dVxusVe1YmDcPkxKHSTURnYqczZJ860x+W2X/C3+vLnnZBncAupCblS2OeDdGngw8AV/Sw8jLMc79ttLTYmjLU077H9ziadDbKfGCZjXVm/NT4PnWGBX+u9gZ2R2vILgylF0AHoL2AA8BKywrtHYA3zm3hjb5fdupbk0q3EJ0RB0BncMAyPAW9+N9AqHZuBzRzdgC9AO4PxH2CdEXQPmCFlUorTwNLZWaaDAm1iXc6Pu5DXo46g3DxOuMbCWOdOXiZJUnChRwX9EzvsZKiTENrxc78CYSPoeuqoH3gKzQNPncG5V5AdAC+dT4vxIBQxBnweN7XoOyNsc7IXlJjBz5zefELPgr5Dsh4bEkZoT2BbUAvgC+wfgJaE/rSmAMgBpeTwGzdVYlzRnoEfpKYxkUMixIuRcHykrKDCjUBleBbeibl+z+UKagT2IZhMfx5BKdDOp9HvoXVNqy4vjtfpaBC5671vQgDXG/18+d9PswrP7pIPW/mkUfUl8kxf7b+pQHRmM70B8XwP+I3tEE3BXUCU0AvgC+ufi6U5nB9dULXabtS8+v9b9R7AKzMi3AC/nelRyDHyu4wn7xh9nnXNiwaGTak+ONmygv3wmWiFyRl8jRJUeqoE5gASthDL+A/I3oiD11ix0Flyqw1VyPCfVUaZWwoWHllMzhW5gbGchuFE9Q0KmJcJE0MzlIUcaMwTw6vr1+LsBkrPIHXGZ//XDkmBl/eLCc099OVM+kPo+FrrEnu6hKVEeoEJkjjlDuFcj4gFaPRSj2YJ7yBO7M8/yQid0pS88DJVMMvrNzMt2K0xG/R8Lr8W8q8kaHxqYeKUOl83k/7b0P53d5m/tARSOtfxv/529SZpuscvw/3sY7oWaZwq/2UGuoEapjYHBoUg38FfVympwxp/d7TNylXOrXSE6BID4AVu/ogUHwL1M8XNG1wloRiY2NwGcL3wyjfIUnNITojzpn5T51hWltUToDR3jDKfjOxyXnuA8WhTqCGLe2jEDwkSVNuEdF5oPZHEdxoI/O7WZFx36NGypsVisbUC1d08KsXOQm8V8T48/o4PETDIE6sTSPURY4dP2ZtZH8d0ZsgjRToZp1hCstgPjrD30AZs5BPKfNS5wZqqBOoQC/g5GHk5gJOXobJYFY0VKsBou9ANftYXpYsa26z2xisU/IkMJ2CGFFW5pCdgL8+mgOx++NrVUcwIh4W2Voe5Z9C/K2QzKXOCPPXNxqoIj6/56Uz1W+kuK9/lRjtDXjUCVSgF8B3B58DxTTzUMi2QcuHDuBGtLv+k6REfB+CjIHMCLOHldk7AGtZmbuUZ2J8aIN4L768l6HcG4IZ5PbjN5H9rwhugzSSOX7Mn3NIi/C51lr2iE9A/XiypCgKsOgFIGCr5ziEyt5ZgZKXcGSM3wr5SYjnv0E4vrvlb/YqMPzu+5MkcfE4Hv3WUojcU7xU93RAYVf4ryCel0KuZbkj3Jd4nYHtdcI2FnzMlvPmLGy93GJjezeEK4/2BEASJ9+KgL2AvqR0l2p8lauAPmVi80ZJddwHMnPbC3m0ZQio68BIubAaN3ZxH64w965CvlXvfyP4cpZlB1pdxqzk6iwOAzFfA9AbXsBhuKKHyeFqo04ACrFRDLjT4FK8PL5yAN8wkfmRoizYG/DwRRv7fikOK61UXD+hJw5A9gRqZHRp4dSNv49zyMLf+4rC3oC7+bzMrzWR/VFEP2ei+HbvNLfD5xv1hcs/ncpUOsOGeCDDbjaL8n+NhtLKbxG/8k4gjdLvQcCXx/cDUc5ZYC3jPMBziqi4WpJGsELvu7x9habIQz2s3M7ZOIO5BHnm7oHi79M7AsoKMzS1bRaKKL8CevVDKPErkSs7rpxgvokDEGdKFeEcAB1AQDrDCzoPl8QNIlealXYCqUnvNYyG/xHRzg8DVWxAXgMH8AU5FFAZeX+sefsub28QGdKPcBJ4GQz/dnjDz3uUe15ZhsiNTfoCvfoa0n4ry3MuG90Wn2/e4Puntak/ImGQJkkf9/SrsAMXV0kryUo7gaLI+d7gcyCdzge2usDNkPege/tnPJiANY/L/PZs1djl5/cmSYIKzBT+RhllWba0xnGa4adT8LJiTG3to3fwZgR/C7nx0KFDUb8/bj9RX6g3FG/0GeZ55lYFSTsknAbEMMs4FHTesBj+mKSsJivrBOD9759HxYsR7fzOgjBcXA76RXTXf7Yoi1skdQxNGIJ9vRhHWnBdXgY6G5VjdU7BO4AVcwS82S03DP263cT2ZYh+ZnDs+C3TGgTyHIAfEqoSw4X14gVJnFwih6vHSjoBVGZuEvfbiJ6KVkvXt4hgC/8qtMEuRdf2GknagjTjd+kJ+BYvpe4A+GfSslsdvBMk03oHKwBvfqp9KMr8OhslP5OVxVfzLLudaV5vRE1EZzrSaODF9rIy+x1c/0q+PGo1nUAZ/wsEj0Whn9hx48bnGjhh94tFlH9SkqZCRd/TthE0fBRZzsdjMYJtbOwVMrzXei/AM3m8xFBXtr3ZPMq+nETpK4qyvBGHx8Vh8nQ6A5lo74rOJEnClXMXwmddKinKUoMWzA8i+CakQIXu8oNBHGS9Hm325yPcERMbKvmnIdxAbtp3OWFeoGfkHvAxRh7wYXzauasiPk/qxx3Wmb0KdetTNja77qFlooTzaldBBsYkowcJcdwZYfn2ej12XY7Ahf0MQmVZsZH9CQScQOUQilMAKiwrdVcUtzJAXAV0o4nsUxHuSrUWmj2FqU5AjL482enjTF8Rg7dvYf74vFnS/NmzEyA2Svn+3isgx6lDdafZBfG6j3jlCMxL4Qz2/UyNEjzxL+Efjpm7wUoWuq/A9UrN48CFFfRG9Gj43oM9ASfAsc5PQLZ1AmzB8f59fNp5qy7MGx/3+tIRndmvUMc+CydwKsI9kUQJ38ZHR3C0y3ly6NAhhtdBfguyEqzEnAAU9Oko31cgehrEjXPWx3v9xB/HL5nm0wOECnorHMDT8yj7iCTtThlVj2qKA3TwHmHURqEs4fMP9/BUZRLmC/PKx70ErjNzIYuyf0qi9NmI3oY8OcqlxT6vugTLsdfrnY3o821kV3rp6NKQxumDEdwAoZVz3n5SUPCbpN7iC0howI/CoT0D4b7APXEF1Mcho54A71O67hzDlWGgrnXjFynMP4bMN683k+d0WFhXPr3X4aA6SdTjm7u+mibJsfX19c72KlGeHDL+RiJvGlxqlronAAfwwGE5fDuiJ0G2vVe2WHyrjvgwIHhBGyYyL0WL6x2StA/45g75jhFQchf6XhD3eAnwvoOFOsM89Pm3hOTQBurNvsiiwXvQI/h3wyy7ORsOj3VVp1C21sTx6Vk5/J+4n4dWyUqXSE3K/dC/AeGGatTEbWWyFcfjutQ/m6dUv80WCSeBfwrhLHD4aMCWK8Wv4mAvAOkLv9cuSj2/fP4tSR5S5y6DETzwunn0CLhqiGPrR9nDTNN02u8EK76eIM63812JHsEDESpdIbUJt4L4B8jGfiqlP5chFcCHk+fNUdgSu5lzAAhn5YOQDRkC4qQ4hUNAOgk8i1BHpsm0czskdAIfhsw00YEW9OMR0BEc6/hiAzYkP2FNcneES8fSDQfBaJ8wzDO+VP0CVMYeRD7YAzwXf++GRXw3f4HdfVbEq21kn5xH2TslaSa4nQQVGvckMTgDn6TMAPWGOuOHPpZkWM2/gOjAZNHw/UmU8I19Vx/0XQQhgF4Me0QX5EX2Rmvs6ZK6PCyVE0ABnQqj/fuIPhwtj0N1Y74XeG79fP49nYKXeQCXxclbvgfgXUmcPDGP8svcB7PzWcgx/oJ7qQcaq1k2rFYFKQelrmPeGVBXGPfSQWj8vyzR2cii7HOp6fHF7mzIHOn3+gVXDnWJ4ZBV0r2P48F5kb8+MYm+kSxETGy4Edz/gnyz3+/PPIwjQybj4SEfb1loTW6Du3mlieN1xBsDPYofRnC7PAm8XK+FDEUWpDNtCBch1F9NOjPIix508F8hepU1hg87TvvdoIXli5C7DbwT9oaLTZSQ6EW9X0ZwLY0/pYkKWP8OX6m91M9rSFgxbrKReT7aj/va8XMvoFv+cAS3swvAuYCW7mHlpZ6vLetLK1Jd6zEYbA7jNE4apT+CgC88Ot7FeQKfPxC+jVAJhfVkjWt5r11fW5/6ROys4iuydy6z9jKmCMdkOP7f2luObGzvi+B6yLTfV2lQvL74eFONknlIdZ232zi5CGErJFFKPf/n1NpdV+4FKuyx35Ka3qMRKoumGgZ6v4njb1aPfDcqvhJP+6whoQO4Fa1/tpBaA07gXARXQqZdg0qDMqkzXXEAlOpab4QTOB9ha6BnSn3/EoT6v+U6OiDsDfwN6m2KUFkg8bpZewlCruWdVlCtyKw9Ao4tVl1hKtJX0QPgxFmrwAmcheCLkC3Xo9K+zKozs8jk7/prqZ/jJY4ivqDoKujLXRC2ChzBUxB8fa3fv3ltbW3q9YQq1fzADTZKGp07UfbJerrGtwFdVxVI6zKtIm1XmXaSygHwXQBfNZHlS+5bB9fJieYPQbra8uqkNKUzs8jk7/G4fl0Twrmpf0IPm6thWgeO4GEI2Djh7r7TridIoc0xccxG3FU92+v0E8WdXiJ6bHj8NxEc2s8y0Fng8j9UIBfnb/LYp/n07eDnUBwXZlnGnsvXTGSeWkQ5d/dsHVwnFZbdb2RWJ5ctdpJJnfHsRWeagtdQh78KzZWDrXBe7ZqiLPicQOtkUXYZesLceO4IZODrSOjwGo21HIo+aZAPuChFK9W8WTN9bqS2kKVmUIAtskPLyglbDly6ijhbPO9Ed/teCOcKeh3PQkBnsOX6VNqVg+jMrMLfqMf978H97PTbnKyd+4tV0ji9P4L3QG6sX3foUvXqb0zi9IkIlXlhjT0ZQdWqnV44bcpBKnCl2GztvAld7YU8dZjECR1Pp7rdyyIH0ZlZpW5Mafhjg2OKSx9/NiG3oGX+rQjnDhpG3LX0TZDOrBqqypTPDny+q88OdHI4qG9SjiPyqb2FdMHYvZ4cgkKFq2LTqYZjvgxF/xl0tW+S1PlSRiVfCs69XPLdrldploPozH7gd1FglEZPLMsH7kMJaa4cPBdG11q+X3d8rpxxAz7m1utzJy/zW9HAezGifLr9Nl5b6FRlSuN/LzjPTs4NdNIJHM2OvwDBSHNDYHLcdQJ+OERL/MVQdK7VXwhwPtw/iDurDna5XmUONF0G/D7nbKqQwNyLE3ChHHPXEMb8vFYNWrRriqjgtiULIS/yI6np/TSit+ZZxoZTV0iH5fDnqnin6JwT6CU9Dmk8Aa2EA29zO0+qVtYAle8XszL7J5e4IGAauCndxyBZrfWnLAksU67x9MZe8DEmorr7c6puwYQj4Mqxj+KYCxcWxrAYfDqJkn+Bq+I21PWeSsjwIh+XmvQ+ctgdOucE0OXivt5uc7gugOvkKot3QUX+XFIWi4nsuxBsdCX/lL3hzGTdVnrDyYBx9z/+oQcoxRl4akb2mIlMEzvWzkwWZW9E8OY8z7n9eRccAS/QIo8fIIfdoXNO4Fh27PsQ8HWJXYCW9pvo3v46jC4fwlk4qEx82f5tHWldKXtkk0t3Tf0SDX9Wb8TxIcsbfQCX7vBdhjHu5UWQy91RAPRs73cQ3AJHMOxIo6U/KAZ8L3Gn7GqnLjaRvby/B5JOTrKFhKtwYmTZvX4Durf/yIMQKKPiNgSXh+KUlINT07PKtFeG3S38QRoCU51TljLs47cRR2J1fuUoRFevLONyYfMBkwzywZfQM/lvuO7j/j5DBnnLjR+fkNiUW7R0hk45AbQMLmYAMSG3DKrVGbzA46lJ/yfCYC62KJ0T4Evn+cSy0nFG9QBB6YZ6xLjD3LtEfh5zvhchz3Snu3OAO3XkSNgo+EecH9TLX1KbvgWBGxIKH+cEjI3MhXLcDTrlBAbDDe4+GPy6MVY89FTYvf7gsBjyNZdBYSP7NgS8PqVj1FvEmxpCribjmG0PBjD8NPv8r+AcAFKkRyAh3URZ+y6wgabLm6t4MGzkG59C8JEsy9hT6QJruObvr+KdoDNOgA+IZVHxbLSyg3cCVaslT6LkD1xCaMTR1/Gvf2hM6RjUL/Y2CQ26ezbAHbDV7zzAqLHPFNf853mIeycy+hxhUeTcKuImfMgHMEOjXDNrf4oweCdQ5S3/eSbs1Wk86AKdcQLoFvKx8rWQ5wI8mbyP7lhsgqxUfCiHzyrw9YHhZ6ayCbb++UpQ1gPXsndp/IQPiVkYdZr6seDTytPHKPcSjSl3gGR8Dg/gnnflSVH0RXz3Qh5i3I08ztmb5hYxQcOygUPm1tJrNrYXSGr4dMYJlMP88QgS35IJGdQotlo+OCyyr0hKcLAByMfz7/AtSiVsqPfTdF9S6AwQK/CveASX5mTU5Gd6HGWjd0rTOeTOcAE+lPUOpLiX6YbGMB/yAcd3QIKeIK49c9Eb5oPO7CXUCQtgYrO+EQ1/CgarM0tD0zj9LwiC7cKipfL3CG5TJ9ANaFwqAyPAFkrZjctPzDydRXXsTucBhQdQR0Sd8XftFDqCgpE7beT0IVjWbP+PERSh62tVRtzb/kXW2DNdYuB0wgL0TMo990+GAnThLT7UgqNlXH5eDsMEF8k5geuyLAuy9afsAK08hAbHGXyKQ4aH5LD6zMFJYlZ1+RuxUxwOQppYreugr9SHYMnKjMusb0druwv6ypw/0RSG7/UOnuCdALp/veP5Bt8bcAoMlve0wcFuaq/nOirsWv/XrMj4Ksdgycuc+wh9DhL8WOuq4Yd+2Op18SodB+64OnCmXWDo4zT0qNjuNJ+Ov0MQR1ywgAhOoLsoxx3VK4qyCNsJFPmNuKXXo/53RV/TYTT8tygvvnMgaIJ3AqlJ74eAL0kP+lpZOfM8Z427LYkTPvIePCYyf4mgS5t0rQTe0JfVGLMz43QA7kEvfgYpIGjJ05zzGaWxc6CZl03kLM73LgQtfXxXwfa/pIwbU1wq/HaJhk1qem9F0ImHHK21bBHe1caWtitogncCZZ5/J4JO7NMNJ8AHsa7IozzooSCPiQ03tONe6EpgOBNdGfaRgYfhRplJfJRUwOCjRY9QBoPcaZAYrWcYfvfMYiV0BNU51XfSAdxmI/t/eRA6w3LIt/BxxZ3cRNgwg0/JiuyZchguQTsBKPwJwyj/CUS78LggKZIoeWVXuqwwHxwSuspFlbCAkWYrn8baWTwYf47r51wa6k5gKmMc/jFwBAidYff2ESEdA4ShOAkG8nnlBNiqvhYnBbk0dBLUq2E/7v0HRIOfF+AyXsA5zBda0/5L+2chaCeArtTdEdwNChv8A2JF4VZZHEWO8oUYnaAoC75khs8LjAaHlcVDA12Zd3fMuQE3F8ZDGu/qobA49r5bzqOB9y19dgec0a+GfSqj72Ba9bwNjelVeVks5CUyByGPi08i4BBmdaNBQ/t6ionM+XIYJkE7AXSlnoTgBCht0NdZQUP6x7jmq+WwG8DcvBeBrhBaGGKcneGHsefTwM6QV8abnzMqG7+xZY8ktPp5PoeGpq6YZMuf3zL6Dn7dyPBPwvf6dgbUr2tw169F9Gjoy0Ur1ofFkO/2DpagcxFq/EIE4b9jjpcKQ5qalA9gdQoYks8g0M3kFkbdUPNtXzTeiMPmS3uf6XQLbPnj2DAmf5XzXBh2WQkE3B9CUKvdJPIOVD2DoY3M37mEDpHalBPZXdlemhf5HNSzYOc1g3UCiUn4hp6zIEE7qqo1wl7AV+DxueSya/ClNxwW6kSNWjb8MtAxYsiZMk6H8S+kR+BWBbnegXwmjoL/VnMFPMfLDqBXwDNuwR91Yj6gzka+wW0kvgYn0IVhTM5nnojey9lyGB7hGtgiujf+DX6NbVVRb7eRfRXCzo2tw4DwVYIcE97FbCjtMDb0hoYc+iQ6xarJOJ0EisaNA7kkHLuggg6iinrrD2+xh1YyhwCP4aygto7eI2UvSn4bYfA9WJQlncAhFEuwewkF6wSyKHsGguC3icjznJNUx9H95vK1zlGUBZeIXsuoS1Dmigz1sBqiNc9eAXuWbhkozby08GnXXQpCuAU3FzA53ON6Bi6J/8iDZrtA43Rb9X6JzlGamBPEbMDs6u0CIIY9e34VD45dNWUR2NicguBxkC7MB7D1/86syP5ZDjvJRyAbHZlo6zyj1r4LmUDrDnNPcwbh2n/6ZJ7jHIRbHsrzpXz4IBhxfzsCZ/jvQ3ybSeA67Al8GtIFI7qFYTFkfXs35HjIelv1yPqQR6UmCXKVUJC5ZyLD10iejsIN/fkAlvDRJE64WqGzpFHKycE792A4lIaQ1r8s/ZSRHh57R8D2Psf96/bZeQuJAjeBPLLf7o/gAKqlpHsjs7IyrLOkJv1dBOyJhz4MSzt2KoqIc5zBEaQTiMv4IgTr+1DoucIWV5K4TgoftvlAVmZdnBAeUcYlXz6fudap0go+b2WM35l4NOyh3xwyrlr4I/C5a/nXjL4g9UHqRSVubtSnS+9hjxS4ilC3Ot8T6A2wJ/NuNF64uCF0kqLMuRFmcATpBAaRW1e7FqoTIFA8dqdvRy/g30lKd0GLkk84D5DfnZvY7hLGPQPA4Rxn55HxezbYU/A9CH6XfI9fXroHeNbRyMQcU+806A38DgI6gb3d+eIweVQGuYVEiE6A1/RIRkJrmY6uBpHKCfxdtcVtp4Hp4CoLXSbaImzQFG4rASgP/t+S0VSukYLthJzIcXB5X7AfMfV/vKci5Eko87jz75mu3uH9cUjoY5ksoItNbE6Vw3AIzgkkJrkbgpPhANLQegJu9Qa76oWbucvQC+A+Jp0H+cyWFFeJaE+gVaA/sL98+5dods3qI4FpvnMw7iQwwo3j8C//rqoTfEiMdm/ceXN/LdHd4Yl34rs63xMgPdP7jwhuhGMsQ2s4TpDACQT37uHwegJldAL+XYcEd22u/omSsQX18TzKOz0X4IFpoSVhT0BpleoNAGxMTFFvP7xDfNzvAuom7as4hWroDd4BG0u352Ue9DsE9sqgGHwMwYeQR3dy241AYWGtoQi1J7ArZcQd9/oHVOxWYSmiBcbJ4NsTk74c17hML2ThttLhZXrH2dIypfF2uj09q2nn61MFYver8xmyEwqZsXrwr78o0eWgb3u/heB4lmUhDwuh6MsLq3gwBOcEsijjK9mCdOec2APDOIr/XVYMP+USlwQbGd5PyBWoszhHwP8RcjiIBlx8w3RLzkVDAiO1c1xU0thImqGhlKG8P1jFl4KNfHBZGiV8aj/klUL9LMofW8WDIbyeQBQ9DVJrC4VDlg05hvqV2JjXS8ryEEfmqwh0TqAFaPz5lC+12jXmkcYHvrikc5oxd+dUJ7rPXXWQyeAtPYuDkePbvlDFl4Y8Ll6HgMteQ23M0N4+UaLhEJoTYFP7DEhQTqB6IpGKtZGa3i8URX4rE5aKWCeG28AbeW/UnRCG1fMBvlfgznExsWFuPsCND8lnbl5gRqox8w1871LMB9QpyuLOvu3/AqJ3JkkSoi6zpE+wsQ1qcjgoJ2BjczICTgwH4wTY8qoqJyeD/2xYDJaqG12Dcx06HNQCIyfgYZwa7kIx8h6JivrHnBzgI13ukB9MfM8BwN/zC/iowlJuH76Rb3wY/aU/zrIsxGEh5n0PNiWobaWDcgJxbA4hCGq/oKoC0wHcmlr3mPpyGsrYObnOrxsPHTc05Dd/c7O+nCUAI+NehU7vqGo+vRnQm+CXbuAylrXXVyZJ+hqERxh3KYGAsmc3DFkfc/VjMIQ2HEQHQKlqyeKphoKOpFH6C8N8eIVLXEpKPvxGJxBUxVkmpEEh8wBuhRD+l/cAMMt5QPsM2+xW7HILCPdX7vyGOY5vXFqHP8gGV66Z/q8hevP6+rrf4iUUWM+CWvgSVk9A1D6oDELDiYV2eWHK90nKcgI7w+Wu+oaxOeCNum/puCOmcZBGPmobvpVrmcsaLZrsXQj/4dixY7dUDbmFU03q8+XzQRGUE0CbhwY3CCrFYZPstsSkP5kXWWdexn0QqpfOd2V/9qBhZZdhn3H1qgyAg/FR6x4BP5mW6S30AIgbDsK3cw5oacmL/Nae7b8E0esGg8GdzPMAegTM+ywkO0eCcgLVS9ppeBduiNADYEvpFhslT86K4dItp5ukUswu7MYYPHUHMOkMiDfukyGpO4uW4I8Ni+V60HEqg3zjcz3T+2FEb0QeO0ewyCeKcQ3OCeRlfpWkhEFQTgA4BZXoQmFh3ZFEyTPyKOvkG8MOiPYEGoBzr17qBn47aJzq0jLUbcqyTgxvYlAMPt03/R9A9KbhcHiMZbJAaG9z6ERQQ3FBOYG+6T0KAWfOW68J06gNAfGdwT+SRdlHmbBC3FiFygFgK5NCQ143/js5A6bXZQ5GimMinXyl5EHZKDY+1jdrP43oTTAsR+fgaKcC3aCB6adx+mRJCYNgnAAfoNgoBq/BBS2mhAAqIB3ArXQAeZS/R1JXB2T8lQi0J3BAaMTrDoCNismhoABg/eJLhFaKjeL4u/tx/2VFWbIlvpAXKFW/uTYsh6+1xt7VJQZAMBqal/mvI7jQJMncH6SoCofDUOwB/AQcwDuZsGrg3vnCeXUC+4C644Vkmay89GneIQQEGzrXS3S12Cg33tCL+uwR3IZyGfhe27zI85y/10P0bnmR/3uEQa2EXChplD4JgR+PXoRwQvRKGMEnIFxZ0ij5EQQcr5yWRypTBJW6RGvfST2tfk5gwnfyvgKysqBHwOEY7jH0zV6vV8IZTMun1qTSlSM2Mpy0VoxsFcFtbf2qoHkLm26fTeLkIQhXGjhjbt5HIzEtn1SmCA3+2IhI3NqxQwhQjqPt+5MIV5qe6X0rAm6ffnPdgc9D+HuJtWz0fjWEN40tfDjIRIZv4D/TRecIKq9bAQS5HA7gB7Iy42vqVps4uhP/LnT5RFdARR5NAstkLocVZGKX7/oNmBxXSgO00gyKwWdSk34fopejzG5N0zRnebYJdYZCnSll64hTkbLwuYEQ5gS4X9CaROdGCfhw1AdSm34vHMBSvCGsAbh2PGgLFgqsyK4yu1U94/2A5Dj4LAzqYaVFMSyGX0b9fzaibxwOh1/vJWmrzpH6QidA9ahUxEJrOBKyUBbvBMqoj3/ntmaZBQGO96L0Z9EV+4FhPvy8+0AB7inShayc6ALe8Pv84UQfKzMdQMfyTHt7Faj/30DwojXbv/TYxvHGH5ac1Bn2FGX/KFcEFvbvsPtggQTQE4i5bnkus+RVYdDQfWUYZ28oykKfkN2M207aK6yyGV+Z2ZrLc1ZkSefKYjqEjsC6pk5gM8XxfIN7Df0zpPFunB8GEqhD7A24Iujhx9gIXighDAdxydRcrE7VTWclOMfGduHdsADhJHnRgeGMhUEnIAafWxBwXiCEKrRvtIAnMLHhe0zuLUfN4RtUnCcaDxtuyn7av4USggbTE85FKatJGTqB1Bp7T0lVPFUhoCcgk1deVhnev2/JMS6Tvqw2fhK4k41qdQITWJPcDQFtUSMKT2M/Xjgg2T2lx8i1xOoEAFvk87Y0CarB2VVcGUN94DbDcgTUCcj9M+QQEJGe/Xirh66BK57L8GuXiMv4HARcpNIIbGtSZ6gfDH0PgMf1hgNSdE6giPJ7IJiLUjLzq0ptyqLku4yVreQ0a964dbSl2xheZ3wLbvP4bifJULLB7Wm/aNAk51LNBgu2HA0b+l7kFGLYPy6RXygBOIHiEQhabW6yENg1s0ni3ttRwXtv9Xc7hxj+VELrAt+l7bjh2zcjnYGIH5T7z/NstDVER2HhrrZnnw4bojPN7nt9sda/t0B6Alk23E5naH/40NpCWWjNTk16XwTfiQrXek+AhqxgG7d0dj/HMddKO6unVMRu/Ti0tYQii39ka4Z557u1qwTvdzwExB7AUtw/Dd3KPyw2SWxi5svM9pBVhL1HmQRmD6D6YDr89PFJnNxPDhfDwpxAYpJzhsXw9xFdg4Fp/DpYgSm+8vrKXLr3t0bsEnAuYqFOMED4xLB72QgnsbwC14eEfL4uI3WdYeh1hg1nbgfkh8g6TobSW+q35B0EFO9pCPbdQ/L64nXGTwLXngXYCVakw1mZvdrEdmHD0wsxgtbYM7Mi+yNEHwPpt1G5Nldmfj+PpXBAuhENvoVVngeKgMYLHYDbO4hlQmH+UXwZMb6sbNUZ9gDk3tkj8nnQYXgDcAKxvjdiM/GwGFyIcN8F7OsHRRpLsnSYdobH9QbUNKy1nIz+jqLM/4eJzdx3UCZzdwLWJGfkRf57iD4SGdDadhE+833BJIk8rs149c8TWV48UAQYOT4sxt7AqDJ4BSc0gszPJTCGU/E6IxN65cghLBEsuDtxU3T0SgWM71oWFU9EdN/LNVkX6g6AOrMf8LcGdpCjEo8uyuK1OFz4aqFWwQ3S6P8BxI/HNy7IUCdJkpT4PQh3eJy6te9N/aR3EUJlDDWYL9PZcVtvKPpoC+Vpn3dNvM5QRFe8TD+/w0Lv9gWU3UJanKHST/ock79jP/pctzNSH0SmnbsXQZnQi/Ddw69Gs2uuzw7MrSdgY3sKukivQ5QbNrX62n964zyDh8btyROdzOct9OIivlcVVwQq4rYvlmG+ErZ62PrxraBlgPchcwDSmluSSeBJWK7XodxW6vWSu2FK8yAX7rsVz14jdUbszCw9ZPx2fMIJJ/BZhWeVUfmfoI+NPbOwG3NxAtbYM/Iy/2NEvx/ek9tGNworMAuQhcK4W47FOozGHMfmtjFU8fFigy91mJsj7AIwfx9BQM2eSt0ReJi/2+RxsPhr9tftl/DxkLKkQ168qb+XqFJhjuXHfgihrev0NLy++DrgGw2sLtIgcskHgn8PHYytMXxu6odw/DoTm1Pk046Tmt4FCP4O0toQEApm1D0zxuKYsmvXjNdzU8+661Mqkijhi2W4zfa0PNskzHcvqBhTzwlV6jqDiuxEdGYph4G8bMCM6dusaqQ25WjArRBa9Gl5NpKxzhgIh4HE3kw7dxbBb/BaOHn/ZhvbcxG2Squt4J7pXTgsBm9G9CHIwNaGgPDdLuSKDnpUds1288rIaLd7aZmX95EUpWLXJ6GY38g/l9cU4sOu4HXGT+jxfpZ0CGgTcAL6jEANUxo2AmkHdy38sc6I3ou+NK/3+J243+9zyepj8jJ/ZxIn95dP2qEVJ8Ad+Xpx70mDYvAXOLwPWoknyifNIhVXVnCM1+dyOV+2q1Gqun6HhtHwF/D3C9/EKRxKvu7OZc5OTHadWQZ1CRWvM4T3IGrCVU95dU/dcmb7JC6i4i5VfOWBpiYbxcYvIMq3fG1L3c7wITCaTbEz7Swb5vdyaAi/yWcHLsrK7D1JlD4FdrUVO9o4adx7KILLINdAdlxlMqugcNzsPP05h4B4PO28aYICZcjVEkcSk+iOomO4fHdPw0EUKKrPSxd6mTwvFKGOpGlaHXMYq/nufMDCXt7bIApITcpVQXxwTtYEbyPeznC40JiksjnTz21aWL8Q8vqug1yWRMnDETZKYz0BZOg94SN/a1gO/gqHD1hbW7srMmtHD3sQYGBGXplkGfOH6cyrvUMPju/g/R9Cdp8uqSsPn5t4AGRfeuHLgnnqW0ZM8+mLhtdR15nhkNNBvtfiklYF3u09FvVQUoC4p3ShG1v03euvF3l2hNknOs60ecDeKX7LwJZy1+OLsyj7a4T/L+xtWMPYaZReguALEPdmKsjIkzUt9Iz0zNLqp+WfeTJviGL+aYQrjzWWOxp+BkbCv2v4QMIyguL6VszCZbPOMC3s3kqLwrr5NRvb8xGuPGhV/xyCqc8HUD+8zshiE/YCgtBnluEtkH/E9T8S4czM9MQs384FA/qyPMp/C4cca2TLv1UXSQ9M8Z45SWSCcgZ4vSetJWvXwvj1+d1FWazk5BlU/rwiKl6UpMkpk2P+ewEVxoXzbCnthUmdqV/nisFCQffXvAvt2SskaXWAFiSpTc9BY+ecnk0fOCiGPwvDfnfo+pZFK15nZK7RbwUx7ukukLjX661Bl09GXX0mjk/H/Xwa13Xgp8APXFPxw6fnRf4fEOUa20PIMNNWBqGgqpgUzrhrxmMXzFo4vuXLMdPjkK9A3p5GyT/E1lyHor8py7NrEcrY0/LC8rwUeXzoIPnJsiH+b1lu9e9pSz+2g8aevzlNZ5h2EEe3BHBbkDdAftwdLSnWJGeimE9ArT4JjboLYTCfgOTvgHDhA9+nQMPPcNM7fqmzYz32wiGZcHSG18HrhE7TXtF2vRMN2BfjPtlD2Ddyt/skNem9h8XwNYiyO9L6eLp3AvXKzOVZLRUILRWFX87BY3pYhlfhd/8ijdOPRaY8kpfFdUWRc33xUmDj5O55mb0XUU6WHUgv6viKxNAb4nlXIDoB/q48CMaWHSv0fB1RgLCRcyOM5BPyIuOL1TsNyjeFATwZsfW4iO+SRRlsUvksfMSXxHCZJVf+0dDT6FMpvW5P1XGuHKeeUFe5Eohbqov+hElVvzgM/zHU4RehDn9ePtk7UzNiJ5I4vTgrh/8D0Xv2+/2TNzbczsOtwwrtHQCHgEibheNbBBT8LvK5pCMgDPnD34RcZiL7RhPHX4S+3IxKxb0/usq/h/w8ZOZlaN5pe6NfKaqLzxPqjFRm7xDa1ZkuUNUj6i57fa9yiR0BerRmYnsammiHIXfLo4yte76UipOmNPh8WTwNPhXQpGmasLyrVjOSdsfrDO2M2IBwdcbbJ4JrZi/gTtijZxVR/gmXuEf27ATwY6ktk6dmkXsHwBnIINeN8hW9DbwhpgEZ/46/5IW36HgBFGoXteQOyBchb7dRchku8+ooLu/Add9cRiMHEiLGRvan8ij/NeT3WbjePevEfmBZeliebTkFVmKP6I3/nYXrS0gwM26CwfhuGIxPSVJQGGvsKajra+iPnwg3fnEZ5Y9D+qMg3HaGu26yhc/CpmJRZw+st5t1RoRZxGGgjsELvgnu6xdx/X+JO2APYVf2lHGcAEbG/BIU5idweBodgnzCDGuvcnnD4R0APPtoeZ8QVMWmI/AOgZnPbjfHX2+GfMRE5i+Rb98oouJG5Bk/WziJSc/PiuGvIPqcJElOwXWZvbaY9opvWVFPfKulbZ3h7/heo7R8V7v1vw3MlC9DL78XOsk5sAURWxsbjtMfisr4XmjdPxVxvnKR2yWwV8qdhyk0Bj2UZ9q0jo51hmP/shnc+OHBzsHM4SaQnCf45aIs2OvbkV2dAL7oBHyRmwBGRnFDI9tmheb3UlgALBxfEP73SJtGZBZ4vby22vUxwkJh6PfqZwG9B6r2ZuT+N4oyP4LjuWob3+kQFfFj82jI4YAzkLcn+7xuozyJ/14et/EbFF4/nBm678xO/3suaPw3u05VDmyMXAVdfCYaeJ+TT9oFJZUaY09FI/vMIsqegiTu439vCG0Ld86ksWfTHIKrRPlV1+rEx5vA6zznAfxWENQb/5ve9nSJKn944Szbt8N+/xTsNx/+3JaxZZ0CvmC9KMvfQMa8EBl1knjg9lt0k9/fZMEHAAuIEylchspNor4G+RBaZO9GaVyDAuOTga2Q2PTucRE/cFgO/iUO+S4FtrR21IEuQP3wOiMVV8Zz2ZpTdoWZxJ7Aa0xs31I1Spoitu61ifFhVN8LYPQ5hs+HEc+D8JkU39L3QzqbaNvOjBtt8lvsBRTF0vQamWncMvwNuLOfx11uO3m7owFAC+ElaCH8GjLoREjsPSMzjN3stiZM+P2+4Nmy4+920StvB/OO90iQh3QGXIHEQmJvgRXy/9jIfqCMyyN76c5NAwVv0eI6DeFJcDsXZ9GQD8R9Cz8ycXwaLmB9nnnK+6W09ZuTOkNWfRJ4r5xw+PDgjjvvvBrRK5GTr7Ox+VBe5uyx7tuL8l25cRmfmUf5k2CHuI6dzw9xBSF1+yRYez7+yiXIrgLsNLTDMqWhbnr4x7PsOoN7KnA/7AW8FvJvXOIUtnUCSZQ+FIbjXYieitPQNZPMUlqFmUwrSU2kc+ASvk+hl/AGKOxX2EuARx9N9qCndgimlV1odp8T/PWJ+IKL4Li5HfTFEC6T4xYBfonceAZMUbZC3WNjhD1UDg9dBjP8fhiJy6F/TM/QHLsDhnM0pwUdPAnnnI60B0Hvnock6h23Y+CDo9S5qa18ZW7QphxFg/5JKJ8PS9JmphaO5UtgivxvEGXLUVyksgg4C84KR6fA1UdsrX0cQuPOtxCxorE7zZCT9XQILFMafRp8pmkFVPYLDQd1jrpHHaQDoINgnHrIBspnIGzhc1iRIfWQK3a84VfCgWX3RfTSnlCU+fWSNGa6E4jMb+dRwX01WLDKgmB31a+uYRzdYlZGX8FYUVl+Fp8Zfu67tp7JY0XZKxyG8dSG8KhQfmyGiTT43GfH9TC7q2+sRktfVzjk/GeQF7mjGlucQC/uPXJQDt6EqO47riiKshywF3ebiez3F1H+fkkSNnXbuD0pHMAfIdqNlxcoiqIou4LeGoeGT4AD+O9JnHAIb8SmicKiLH4HweMh+x4G4nCEX3K1EzyPUmcvf6csJ9P0Ya8c9O+UbkN7wbLfyWZM06tpaSsGh+/Wiqjg8lyO9jhGPYE07j0YwbMhB1pBwsyVcUQKM3qc2Vx/W8VQcFvHDpdp+aeyd3yFPGgDQBsOq8lOxryuU5P6MS1tBaF9/04bWdp7x8gJDMvBCxCwBzA9d3eBhtwbczH64hQYF+HXbv7q7QpSWQ1YIVUHlP3ijHm1z7+3MwypS+MG5xjVsU24YaE8yi+VQ8nFKImT87Iy+xiiXN97oJ4A8YbeO1vJe+m2MS7p41Y/z1fPrNRRnVB2h8Ye9oRR/CO2xfcO2NrnB2pndoCZcTt6A98OZ/BF5zZNaS5AcCI86oEdwGZ8hjsv4AppO/z4nrLaeB3QyqrsDnUE+uJUZTvbsTmd+qV2ZgQzYq2I8gt54JzAIBo8F0HcSAWs8nn84vedM5+/qRVf2awD1BcvirKZzZrhW/6krIaG2AvYalPUzmyCL9ym3UeexYbLQbmTX9Ksp/RdsLpsngBWB6AoyiyIQ+Bws9gYsSeb7Zjamakwkx6GJvrJ8JuG8wAnpqC5VTp0APh3VBZyrCjbUnXXXUNEaraiTMWZ+0o/nFmBzoh98UrDA1WgXWAGnYB/TjHIr8M4WJOXtTQJf0MsvzgXiSvKNDZVWXdAfVGdUXaCiuI1RxyBbh++L3rIshMN/8HB1nVVB8XVW/7jIlU3TOKKsidUZZTdcPqxk5KoAu0BZFJ5Box/yZ7ApobYQWA3fvNKHxYC45sLo9l5B6XLjIZ/gB+zdf/q2KGyA+59HGy2unkAP4TNuOrNPmDFY0/gkJ9KnxlW5tGwz2iSZutX6wSNsh3aa1T2St2OwNJUMeUA5HAC8egFEbNAB0AP7QqHZcJWnmFLj1HpIdTF9xp8XFk96hV5pBtVp5RxRdkOpydQH68zVBcRxinG2ZW6nfGijCiQG3fQ+nKP+ryJzOGr2UYVGyEf7eYxewQSjoVOox5XVhOWvw+9+GNFmQZfN+ltRl1vNotsY1O3M16UMXCLRw1sP3sCzgmol1QURVkJ6A1zuIFjXB3E18Xt6+3K3mFMdrWaYPJ7mvpeZbHU9cSXaVtlW/8Npbv4cmzDzkyjze8OFHanjhl0mPhS6SG6T/leu0r1wuDfMN7muH6b363MB68zLMu2u+R1/VS6iy9HigzlyMqgpqjryIrqyxC5erOB8b8TB3cwj/eaERxn47n1sfx6vGna/G5lPnid4XguadKxT+qtGIx2HY3SPkXBBqapdEYaEF5/2mAFdeYoasrtvibynZPD3ZwAvTALQl5+LgVEWMGbysDJ7+GxWxdczfYr3YJl5nXGV2ZK2zrD36Q+76bTSniMdcZUjQfWe+pM3pjOkPp3Mep7GSuiN7z5DzHirKqN0n9gfLcWt69cchoLqt2M4m8RGg8WCn9fK3X3YDnmOSuzNCLaLEJpMIx7HER1pnuInaGdYg+ARrk54z+J2JlyZGdWBGYo3yEjTgDV8osIimkZwDSpuOIdWZnFg85niMZfU91B+WtRwsSXj4iJsoxlx/KiI3CntEa9oVBv6fnrUcLEl4+3NXkuDkBsVfuII6DOUERPllFnaveUo0n2ZUbcnZdxeTWCbYeDmM5MkjrFODOq2NTaagM/ZFC/Lh/f7lqVMPA6I8OGVDzqjLS26sa5aagzvsEwqSuqM2HDBkO9jNj693ZmfjrDf8c2Z9l0hvdT3VOG/L6JEecE8ii/AsFRZMSWpaLeM7MysxzEYc4/Y9jNpyL4wmpTKZTZoc74RgJ1ZhF1ybfuqDO8HtWZsKGOSB33dmaeiIKKvROdIcuoM5WdH8D1fZXHLqvhbY8ieAtkVFWZGd4B+K5ZWcqTevPOGP5evdfBn+d11UVZPGOdYa+R5cJwMTpD6r/LuOpMeHidoRDqDctskTrjWUY7U+UpjelbirK4lQcjf9uL+3QCo5cK+JumA+C9+0lgfgm7aPNHFEKMzOblqUoojIeAWF6bdWb+Fdr/pupM2HidYfH4SeD564z8lv9d6guvZdl0hvcFhkmUvNklgJETyOP8nxBkcvOSLENAUqF9JoVAdSObFIVpPl2ZH15ffP7LJLCUTUh43VCdWTzM87rOSC+f5UDdCUNv6npBdVmWyWI4NTb0N8q4/Lyk1J1AkV2H4A2oIHfwJnnT4gyka1YfjlkkvBb/9iApjHGhdLlwuo605mTIhTozj4UDe0V0RpzTpK6oziwG5jt1Rvwx67A4Z+pMCA2IzTrDfzcvUOkwvKkP5GV+uRzWnADpmf6fI8g5lis37TMgTHxrwhdWCMqzajD/Kd7gs93gh4FCRHVm8XhjyjJg9vOhsDCR6xSdketdArIkSv4Y4UjxN9VWFE4fleJTiN4bR72qrIKtKF6Z/PVJy2J8rVrB28HnO0OKzAFIfqvOKNvhHTARg+ofAHVJAeY9L2zcA/DX549JV/SlemJ/gOjVJjYP8ZPCZHI3prwX9a7No/xpuNU1ZkAXqBeKjzPUCt0OMnlXdwCMd6dCEH/9yvzweS5q4oeDutO6Hl+/OAZKV6gaO0dtZH6liIqPVsmOLf2wLM7+BsHXWaUlJXxYGL5FJ11MCZV2oOFnnnPlGLUEWd+pCuHxOkMhPlTagTri66e11Jdu5be3M8TrTVd0Br0Avjzs6jKO3iYpY7bsy4rbGqRx+gV4iycnSXICbjL42j2tMPxmUL6iK7PDvPQiWSoVma25Lubx5DX7Ct5FhxYqdZ0hPsub3gxuHvB6J6+5vulcwPCib00i+xN5VHxOksZscQIEDuAb8Hlw2vnDcZNrXSosXyhscfiC0UrdDMxHih8CkgngblXkaYwN1Hj8V3WmGZiPzF/pAfiWdHda0NvRITvDjOaqjd9G5H8i3DJEMtUJEBPHn0dRPRaFdWaapj30CkYrQLpEvYACLaSg8fnmW3Py7AjTu1+Rt8M7BaI6s1+8vjAUnZEdZNl7pP1YRp3xDaJxfQkB5D1fFMbdIP7RxOZS1Fi+O2YL2zoB/MFGYpL/ryiLR8HbnQInsNYlJ+ALg4bKV2p/rOwd5p3PS5lmocJLq3nZqOuMjyv7Rwwi8096ALQm/t0Ay4boCesD4+O0EOoHroHvj/8i7Pjz8jK/SlK3sq0TIHAAt+EL3oPwIXAAJyPpEKQTNYMFQQPGwvAFEkLBdBHmo18GKg51OXsBdZ3xqCPYPxz24XCJN/r1oZNlg/oiOhPUvVGBeUFfgv3+oazIvuRSt2FHJ0DgAG63sX0Pqv29cHh2miT8m7QLRmDyGr0yTlZ0ZSvMq81GUVo3XZ0E3iuT98b7J+oMdscbRGn1i84w2ziCsIwOgEidqOvMeBKcOjMvveFv8rdwLXwW4A7IBxJjfzgr8q+5E3ZgVydAcJtHcTt/hdsaoDAfhB/qIzmRT8OHGeQLy8e1Uu8M84d5JZVXnpiUBsZq4Cuy1xmiOrMzzB8KdYZDQcs6BLQddTszb1Wp8p0O4BjkdSY2L8nL4oj7cBf2fak2Sh6ZR9kbED0d0sOPG950yNSV0x/XCf3654Xki7TgqNCc0GOcyRznZf6tSl6pzuwNrzM0+owyWyRr/Ktopfe4CvjGwjx1pnI8BYTPAdyOfsjziqh4j3y6N/bUE6hTRsWVSZy8Gz90Lg7PgvRwIfv+nnnDAqCieqPmYUFphRaYL8wjqbySN4vZ1jcMRGdEWSYrtCIwX8T4idMkmxsMq6M39XrCvGC0vmqo6TpUzbuw5U/5WGKSH83L/MPuw30wk2bbyD4qj3JuRnR3SA8S9BCRKCwzjg+q8FjSmy6cruIrdNWQQVzCLi4NbgqfJz4PeExUZ4Sxzkh+eKO3yjpD/MQ49UQan403pPhl3Bb6S0lkX55HxfvxCxwO2jczteDxo1ea2Pw5wttw+GCmJUkSIwOs7xKFxrhrKsrqdzCkIq9qxea9+8rss4BrupkfauyYF5vzgBWcMM+8U1g1mAe8d4aSPfxntYYMd2KrzoidOajOMJ8lr0u+GpLr/WlzX5UY+7KszD+N+IG97szDODATXIv6kSRO3llERQoluADCHkHQQ0ReeekUfKGsaoXmfUtrlw5Shsu0Im+FeURo6FZVVzzMC9GZHHkhk8CrMva/H6RhJY2pWXSGf4u85rg/W/tvhr29FPb2DUVZciXQTDSuyUmUPCKLslcjegkkhVSDCmFRr9De8NVZdiNIpaLwPqUySwVmPvjKrWxms86M8ZV7FXTGw0aU6AjzhDqkvYDNSF4xy5hvY53ZbGt2yy/qHP6WGU0H8KU0Sn55GLlNPhuj8dY6vBOfTHs92gk3wf89CvF190FgMPN9AcQxs2FcGN44LjO8RyqYKKhf3SF5suz3flA264zUZO8YVgHes9cb2VfS9xrV+O/EVp2RfCQ+3I5er0dnezu07N+ijl6aR/notZBN0daQDavLxxGeD+FcQdA1pb6eebdCWRa8A+B20Ay9LdPKvDfYEibMr1XRGdETPwnMOO9bGw17RXRmc37tlndwABz//yuc9XL8JYfeG6dV7U3i5L5ZmfEFBlw5dIJLDBAqtxSGZMdknV4mJfctV94z/Z7c23iMe5nutW3GeiPxOsuqM0T0hjrjDlVn9siojrlRBzTCnL0ZDy3WdYl5DgfASeDbU5M+ZVgMP+Y+bIG2egKOIipuxi1xF7tH4KYO4yY315TAkKVcDF2wlFC5qGT1x/qplsrBYF76yr2sUGcotFEU+gSdBD44XmdKWEgzsjnjBkW1CogPgHH9/x8UZfF690FLtOoEKj4JeSBu6P640STkCuPH6nxh+DjDkK97N+rXLy0MVmDpzlP8/Sr7x+ftsuqMl3qjgaI6cxCoD8hD2H3mKXOQ2ei1ZHN+F1wC+n44iZei58BJ4daYi5ba2J6Vl/k7k9iel/TTs44fb2Voq1FcIaGEpAUkCt9Vxee98D6InwOQvd2VJpmmM6SLejPWGe8ACMeztQfQJDHzGPrhdYcg5DzA1bCbT4DdvNoltohYhpbBjRxJ4vR5GUI4gNFb7kOGhUIZL+3qLrwPwiV9jPL9rj5NaY5pOtNFB0BEP7hwgPdCx8Y095HSIC6XkbHUEwiHgNzDYCayz5+HAyDzGA5yFFFxYxKl/xfhU3HIh8l4s3zwgU1S1hQeczwsiA3peA11Q+kruJcu4K9ThoCYzXIcQv6uAj7/u6gzHJceOzNt/TcB387Iuoh85XYPrJBD1EWKz2DawCPQlu8ro4ILaubC3DXTxPauRZk/HdF7Qq6vhKuH+EzB90P44hpuVR0M9crsnUMXegj+ej2c+Nbu/Hyo64qP18siVDbrDK+dOqNDh01Ax8o1/4iy8fsOyGUQZvYZkJMgX4F9fB/s41cRnxtBNU+SyF6QRfkfIPpoCHspC78+X4m7OCxUr9BsgfBYegRKm0zqTL0cQqd+rbKuXYYRlUb4JuQjSWxfmpX5FyVp8cxtOGgvFFF5EwIuh7oL5N4uSeYt2H0i1M7h4cOHk36/Hw0GB9o0b99MVmCZMJNw3pXbGxiPv5bd4HV2xRAtA6HpjPv96mdp3PfimFRn9sf6+nqUZRmXddJesZLSftGD0lBxLvSdqL0/UkQFRz+CISgnUIMvRWCtuRjCDOVyondB3gK5eTgcnpkNhxbqOdetq73xZcXwlblukOfBtMq7lwqtLAavJ4vUGRnf9/rB3Sh1b6gWKOEAONTzIcj/hnD7nLMhHOen/fp9lPu/hCYEtzRyvtq4T+A1T4xjc6go802eE+2any2j4tcQPRkKzp1L52IEfeX1v+WN72R6G/jfmoTplC4OV60Ck7rhy3EyvQ3cGDT0Qh5I4qNJ+P3q5/jzqjOz4+ofWvuFLOukTXqN+6DCxvZuMPyDoixuqJKCQzSxm7wN8sQkSdwGdfDCDOZCvQI7JYAw3maF9r8xGSdsYWqFDh9fbl5nSJvl5pxA9VyI+zkIjJUbpPCbBSqNwO2c/w7yDHfUMUIdDtoVGycfRdvmu1CJToAR7M3TCPpK7CvRPCqTNxrE/75P08ocPr686jrTdrm5lT3sT1eTATF/U2KV7qjeNABbn18zkXk+cvcWSeoWnXUCcAC3whG8G+Ej4ABO7wEq9rycwWQF9uO9TcF74XfWDQcOWH/xP36LddiJRNjq4/lKuEzqB8usOZ2hHsh3ii7S9LMXIKZ+5Ajcv4LXF3EIyn5I05S2hqt9PgUH8KwiKr4un3SPzpe+ic1JRVlwaOjbUDAnDId+IVF3GRl+V4OryltV1BKhq9Cs5OjSc4zXt/bY8pP3TyghQ+PbVmNl3GiAvjidqVr97vkQ0SWm+edFRnrVmDNaCZhZXAX0URPHzy1Kt6qxs3S2J+BBa2fDxvZvET4cFYsPXZgkScy8egRN4yslQxfj8SjO/xlDC45p/txR5d5ckevfpYRDW+UhD3YxJj1Irx2iH+Pf3Mneq65sxffIKzj8w5bmZ2xsfhgOIKjlngeh806AwAHcDlX/31Dha3HI4SG/dLST4yOuO0+dq8TpnxPUXndQdePdv+IQZEmypNSh8morLyzaKA9vpOgInAMYDfXwX+8E/DkIx4eb4Gd+mEgRuN1DWRTHUG7cFp/j/i9BDr+iiMqb3QkdZymcQAXHQT6VmORNRVmwsPhGM77jeBt1DxdnuKs4cbafFbPyDOiCInSJ7nMHktywUKfuVGkKb7hlaJDHEjoQEScxbii4f5FWO2sEnZScrwDY/+IoahufAfhD2JdfhH15P+LzW47YMktb0iis+2VF9qOIvhDCfTn6qCjO6fmWWEgtZF/peEkjJ+CSUCF5gDQaf7lkuW6+G9kt+QOcBHTJm8Z+lWWGrX5X1lXRjw23hPL6R3wGHXFzAAgNJ6PxeTkxdxRSXVgkrhcu8Clf7uNPeR3syRthTz7Lc5YNrzVLS2LsuWgAPT6L8pfg8L4QriJyPQQUNE8JAmf43fWwSNiixzGiXNbnYJwB0mW+gwnjnsDoXtxk8fi+/PeGdK9KM0jZMsaWu9cFaol8JiF1o3A6I+dIumtZuD/efL6fMF5RfeFN86EvZsLX08i+OrLxB4Z59g1+uKxUGrESxD2TPnpQDH8a8SdB+M7j1AJWkEUovTfQ1REEcaRJDBXWVVQes50voTuTJ6BC1y95/D3S4vOVmqgDWC7GBpvlirjTmSruhPDY6wF0iedCn8ZveJXPRDWkpyATy+IENuvm0sOJXt44W/3vTE36h1mZXYb7D//tVw3gNWKlSG36LcN8+FxEfxxyMoRDRQmVfp6Kz4pWdT9HSwaN5TGrtLz8vSxYRFKBx3MC/FtorTuPH8vfOupxZekQoy6h6IyJuBcQlwZv6g1QXZxd83/D3iX1G+lOx53mANE/2kCnb3PU/wCg8ecNc+jn93o2fcMgH36KH6wSolErSmKSe6L2fFcWFb+KwzMhfJfBQvLEVVT3ywYB9LJq6bs66bvuLvTL/9CSgzegHfAVl2nSopNbWLEKvZJwXojQ4PuXllMTyLj86QCkpe90BCl+QzlRFTZCJFwRXBZArkOO/Sbaf3+bFdk/V+krh2jLimONPTsuyqdVzoA7/6Wgh0oUc7fFpo2pb/3773UtMJSENPZp4MXIy6e+YlNDeYLEpdVGPa4VYcnWINOrk5SlYZpj92nUAQ4XugVCbBQwhZ85dZFhn7E+uU/xPYyLc/DfuWx6w6WdMhfC+4y5vxhX9FC+aaP4VbGxb4bxvxLHzgWuKjULopg4PpREyaMG5fDlOLwIciIU6RB0p7WltCwAOgA4oihnJcSBr9yugrrxXF9BWdVZnSdhulR2P6ykLBu+qrKcZQiIOuGaAdAZ0Q+eIw0B16MUdXL4sX7+vf8u/skybyRXre8f5uPXOX4+jdLfKkzxoaIsbsN9r8SY/254zVIm6NneJYN88IOIcpnp6RA6gkbzS2w9KjBCdtSZwHF++RGadXTxEWMVlQm9cWXlp+6oGiryf0WWtVIr1BNqBFr9iRh+V9YcBipEXwToDXubSPNaQW0RjfEhGxdyTKexhDrDG+LWDpzsfVPf9v58WGSfgPHnjp9KjbHlUKaSmvSCYTHky/FfBuGKonVrbW+vL+UYt+prlVYStuS+jNgycfMHBoaeQ7jus3pl5ThvdbiElXjloSGn5DmHbJAAnUEzAYF0TJ2m0Ccw1Y3xU794TH0o0BLmy2TwKdJ4PO4VUJPEFSwLvV6PL8opIGzdM1f4cNfvpDZ9V1ZkX8Q9d39TsZbYbG2UbbGxOdVG9tsH5fA5OKRTOAsizbIdYCX245KbDDWf6HRp1TFwldpF/IoNVmsc4h/X2GOFdpVXWnj1rvym71aWBL96jOVLXaqSXflX5c3GBHWCJ1BJRmogEXEi0JiRE0B6dc4SuQHeCNf30wF8qG96ry/i8tPDfHgFjn33SNkGpxbK/qh6B1xi+nMQ9g7WUNkMK+K4xc8z5ZWCbpje1VXRR3cOQj4BLE/8VrUbRl3qtKS5Ssqay/Tad/LL5HfEubhU+VDpHL4KTpafpPvy9fBQyh6h+4d64gL3FeNVP6IfI/1zaVwF1P3FA7x+ChpXHOrh3XHY57U9m75lmGdfQE1Zmi0d5sFmDVP2hTX2rrDiz86j4pdweAoqHF9wY+orilgJJeorHSogc90dskXnu/q+mYcDV9ER4weVE3DjQTWkcmsjZxmRh7akalIPxM7R8ImlF+fv9WWMbBPhjKPoDqgCB1RmKXTGRPHtuEOOid2A+G8YY7nEs7P7+S8a0TRlJkxsTkfF/EHUt9/A4WEYaPfeY2JtAvuNOGqjy2xU3ro953g/Kywr9SY7z/F+BK4S12syqLWEqhRlmUiSNMoyabHLS2L4+lQ2LORzPwxYbYXFFTBMhWqNe4d0IkUxbhAzjQ2Hvc5lBQpzgDfLnTx/DfXujahbR/iBcnBaW/q4SqBKsjv68SRO3lHAlIN747jo9dKe+9QZefYAxHgjhXXWgUMI2jP8DMcjc8/WP5lwAB5+p7Jc0EgLXhMkFGcvceoLh3yk1c+GBc5zSiT6IA6AjQ/2FP13CB3XGb+N858ksf059ATehXrEeQBlRsYaojQGnMFFWZn9Z0QfmSTJmlv/7yq1r4hSgQU4ABf1rXpWa36O4+o0rhpyvQllafFDPSx01yBwxpzHoif8nMdjQy7nMvRDju55Ad94QPoS9RR5I/+AevULqFcfkSSlKbQn0ALoDdyQxsk3EP4wKi93LAXe344dAGPuCBVXPvXnVBUZNZvGQFleZEhHWu/iCAQejzoGDjoAnuP1wTsL9iI5P8XZJZlf8qd0vOVfp0hj+8KszP++OlYaZJOaKY0Ro+X+cITIX2mNsYFWr5N1016P8xR3XJ28ufWnLBveYLuXwCAuhl3SWOziGCSB6ZImxt+ns8EvPUVxDDxnyXQmHpb5d+Lu1qpjpUG0J9ACSZQ8PY/y3+73+4dQOVFbWbvxv9RZVlXUUvyPgNtFuA9cDZfP+YGcK5VauvtLVakVB8uWQzjUCBY4xff+nAKAcblLq9/rBtPlHDmWHgHTOR8gzmCpdObByK3P4/4gSpN4TVMaIomT+2Vl9iFET0iSZN2vxqAhR2fdxTfhksQEcMK4rJYI0Tj4p0CV5YJ72uRsvsPZGystd3mGRLTAQyNuTFKF9dVgdAR0FjL56409nQCfA1hSuNTpaGKSx2VFtnLbPbeJDgc1DOojnyg+lPZ7665Oo/I6B8CKyqa/S6wjFZ9L+/jHjBNZKTI2CMpy4dw+/mexi0aIHkhYpcS2MvCc5N2sC2U5OVFMlldfLNdaI8iL/PskRWkKdQINgopt8yh7MqKWUwGsn25lDysn6jUrPucGpIrzc7b9vfGXY8JWH3sQMiygLAP1spRy9sds3Uu5u6EeiVXnM338+fhviLwykp/J942fHl9iDO72e5E7dAhKQ6gTaJI44kqgu9s06XOlBussG/+jyuni4yrtwAlcG+Q6CYDnsnI7B1E5BWU5cEY+NlGOVj0f7HJ6AWEpb9aRetnL31BruASUL46xtjqXJ7vP8SnO7/iDYDtSDYVxYvjuyKvDPFCaQZ1Ag8Rl8mMIzmCUx3Uj7qor/uEwD6ptleZSZccIGgacMDIGylJBVXCvDUXIci+4M6gbz+dRpQ9QBDH4FKbxczYIaABxXDkH2kOZ/KV+SW9g2anqEjPlhKIsX4A86zFBmR21OA2B9tnZRZR/AtEz0BOQpWxQ3FH1rOLcNI4RzhGIYtME+LiybHinzvIVA19VOTp8BC4dvQLqh/scahAbPwcgOsHv4DG/Sh4I4zyT+8i1/ldMd3izN6O+XYL69g1JUmahUiVlVlBR2TJJbJL0JYVUFR74akrj77q2rPQ49mdoD2B58Uba22q3ssdpBA17Ve4I3fxQ1dqvq4McSy/Cfwedwgo6AA+yQ4eEmkKdQEOgVXI9guuShGv+JK3mA0a47X/JqEJPVuL9OQNvRBj6uBIW43IZKwaTJL1SBAja9/Jxxaaeg/tbOAg3BFTFD+gAxjozjneMb8BhXlPFlRlRJ9AQqJDDQ2b9kwVf4IFj1tV6Ja2qnavvRAKpyF6E8d/sBf6dDCyA7lbqpWVr2ULcYVw95UuYwMKT8nMf8+/wH4+lTDkHwGc72ZPMpTd5APyDh7IEWXSlazpjI/M25I2+H7gh1Ak0BKpqslEMDo0rvFQxV73xj6SOP+MyUKmIB8dXXhqLKqIEihhzlDf1g/9zjN9VP68DnCjmsk+u8IEjwLkj5w6oKjIRPBteP8fPHYwbJl0BLvAeyEPd7aAhZrNCyojUphflUf6kosw3GWVWY/ecAGqaaxVWFdsvA50F/r1zBJWt8E5BDE6V2DL+t+q/Vz+e/GyS3T5fLlj++E+6iVQCl4ZcQB74qkjjT/CvO030hPpCmTW/Rjrj4gz5+/UeRyd4to2TB1ZxZUbUmzZEXuZ8u9hjYsPHPBFjBZZ/XKVGFZP6RmY0/pP4Clyv4P64Qbb7Mqb7z9iM9ZbNCy9oMs0LqR93xgrNBkvG/VfAyOPAhXkVesGxS6NkEP4hT2Ze+rEg6TZsZdd89DpTj7egM23Ai0Ym0IPGf4O4zwvlgKxIpWuX1CTnDYvsM4ieaAzcAFp1HOrJ+PDORKViRTvoeO52cNmpsdatPOLvsSJPVObJmu2P9xP6OKmn82b4rlcKX67Dl38w5JjtsBIaKwrPp87xobr1Sk6BnAk5BPHjIzxnUrpIPZ98XjFknjC8HXIH5CbINyFM5x45PI8NNN4384P5xdVnXHrMPDuxinMlmv/MU8+ret5NhnUl9HnuuyMef25oMJ/uTEzy6KzIPidJykEJtZA7RT9KX7oRDf99bM2anxCut6omj2dBXjcIBzMcHsO3eUPhDQfj/BGKN7x8G9PNEK5eugFCYwOjE9+Ott8dkDudxDTasTPaiA8QbuDb+PcFXMoA3zhEyN8Z4j4GLg2/izj/5qD466XvPAFyKvLpJKScgsbwOVmU8w1tD4Y8CHIWhPfre6/cOsD9LYT3jmwxlnncRD5Poz6Hg+vL8SvudyXFxX2+M065EvJpShLZr6J5cAR3fCsu75tFWdwCqb8Za7Iu8rt2uxEUFfIjjhOEyI+4h/xzS5VdumyvQCdBkXjpHEcP10Bncgi5dbiA4HLphE+AnAo5HXIyhA8+euF3EF9mhKFLZyIaIinziI2cOTy9nKMmXJpHxX+pjpUDwrJTZufPId8XG9OHBUJU6kjdFjXkBPgFNLpsabOW8eG0dyaR+QJ++1Z8iFZleSd6BHeich/H7/E8/o03lF2E1+6cBJzVqcjEU8qoOAM3cz+kXwLhXk00aDyPDoLGjkLd9vo9q54zDynO8UH4fSwHGly25N8L+QSs8ZfQC7wRn96MMrgJRp6OFu2CTUM4XQD3x6VI7rp53xb5fxj3sg41hhOJD+OmDkO/ToGjvhifPxXyUAjLgI6gD0cwa57vBq/tjbim51UNEuWAtF1QKwGM8KuyqPh5GHoao8Zaomz1E7SqXAsdQsX/0yRO3lrG5efyIr+On684aGCb05H3J8IwnYK8Pwutw3sh/SIIJw/Zi2Br1TtDOogS5zvnAnEtfJYZDBcdK8/zBpshjf5nIf+IyvJ5G9nL8YM09DfA0N+KMmAvi7Te9A0YY409C3lz0aAYfD+OfxhCB4mslTfrsRHUVO+galDR8P8ehHNxq5z3SgigW/ozCO6EctKAjAQVYNPxfgXfx3H2GyEcxrnUxvaeCJ3hUvYEzEV8COVzXxPFj8fxSyBvhTBPOQ7P+QsKh2U4Pn8E8jbIv8DfPQlG7UEog5MRpyGjR9ZG0y4gv9bQSLkPoi+DXA25DfWg6PV6U3X8IJIkCcOjKIwXIVSUxZNECVubNCw5HQGFDgAt+S0KvEfxLVB+56/A+LNSKY0R99B7uHccmSfg4MUIn2Rie386DByrk20Ga01yPsJfgdDhskEzTdf3K6wbHOa8Hk76IQgVJRh+FMKhAbYob+v3+2WaptOUeKqwpXRofZ3d2lshbJG+ysbJBQgVpctY9Azuj/C1kNsgG9R1tub300jCuRwOpTPhAocvQX4QoihhgRb7PXpR+t3rydqTcHhN1W3dq3CCkSt5Xp+a9NsQKsoyEaemx5VefwnhENxwnz3lI2u2/zT0up9YDYsqSvC8BcLWy0iROUTkh4r8sFF1DivFZ22UfBdCRVlm4iRKn4bw6xA2fApfF6r64MTHq3k19pD53m5O6itKNzCR/QkE7L5yDNN1favhIa5q4INUHNfkmv0Po3XzHBNbrs1WlJUA+n4GnMHzEOVDlnQGrA8DTiL7RhLrzPr6OuvPTXEU/zJCdQJKdzCxOQ3BX0H8k7OcGKOyc7KXrZoX2Ti5BMrOyUhFWUk4GZ/E6UPjKHopDlkvOK/GesKFEaw7nAN4H5zG3RAqLaBL3lok5gM2ZfyUIsrPh7IfSWL7pSIqL8/LnBO/iqJsJrboIZjI3KsoiwfkUX62jew1sFLvRZ3RZ2IURVEURVEURVEURVEURVEURVEURVEUZf9E0f8PpmY3B5ubC5gAAAAASUVORK5CYII=;" vertex="1" parent="1">
          <mxGeometry x="671.04" y="480" width="175" height="200" as="geometry" />
        </mxCell>
      </root>
    </mxGraphModel>
  </diagram>
</mxfile>
